<?xml version="1.0" standalone="no"?>
<!DOCTYPE svg PUBLIC "-//W3C//DTD SVG 1.1//EN" "http://www.w3.org/Graphics/SVG/1.1/DTD/svg11.dtd" >
<svg xmlns="http://www.w3.org/2000/svg" xmlns:xlink="http://www.w3.org/1999/xlink" version="1.1">
<metadata>
Created by FontForge 20190801 at Sat Apr  1 18:37:48 2023
 By root
\(c\) 2023 TIGHTYPE. All rights reserved.
</metadata>
<defs>
<font id="MacanStencilTrial-Thin" horiz-adv-x="235" >
  <font-face 
    font-family="Macan Stencil Trial Thin"
    font-weight="100"
    font-stretch="normal"
    units-per-em="1000"
    panose-1="2 11 2 3 3 2 2 6 2 3"
    ascent="800"
    descent="-200"
    x-height="510"
    cap-height="720"
    bbox="-33 -231 987 970"
    underline-thickness="50"
    underline-position="-125"
    stemh="33"
    stemv="37"
    unicode-range="U+0020-20AC"
  />
<missing-glyph horiz-adv-x="894" 
d="M715 146c49 65 71 141 71 214c0 188 -149 340 -339 340c-66 0 -143 -23 -202 -67c-10 -7 -23 -8 -30 0c-8 10 -3 19 8 27c63 46 141 75 224 75c206 0 375 -168 375 -375c0 -81 -26 -165 -81 -235zM404 126c-104 15 -191 108 -195 226l38 7c1 -106 77 -183 161 -196
c16 -2 24 -9 24 -20c0 -12 -12 -19 -28 -17zM447 -15c-206 0 -375 168 -375 375c0 80 26 165 81 234l26 -21c-49 -64 -71 -140 -71 -213c0 -188 149 -340 339 -340c66 0 143 23 202 66c10 8 23 9 30 1c8 -10 3 -19 -8 -28c-62 -47 -142 -74 -224 -74zM327 436
c0 12 7 21 21 21c13 0 20 -9 20 -21v-77h-41v77zM490 126c-17 -2 -28 6 -28 17s8 18 24 20c84 13 160 90 161 196l38 -7c-4 -118 -91 -211 -195 -226zM283 480v37h130v-37h-130zM526 436c0 12 7 21 20 21c14 0 21 -9 21 -21v-77h-41v77zM481 480v37h130v-37h-130z" />
    <glyph glyph-name=".notdef" horiz-adv-x="894" 
d="M715 146c49 65 71 141 71 214c0 188 -149 340 -339 340c-66 0 -143 -23 -202 -67c-10 -7 -23 -8 -30 0c-8 10 -3 19 8 27c63 46 141 75 224 75c206 0 375 -168 375 -375c0 -81 -26 -165 -81 -235zM404 126c-104 15 -191 108 -195 226l38 7c1 -106 77 -183 161 -196
c16 -2 24 -9 24 -20c0 -12 -12 -19 -28 -17zM447 -15c-206 0 -375 168 -375 375c0 80 26 165 81 234l26 -21c-49 -64 -71 -140 -71 -213c0 -188 149 -340 339 -340c66 0 143 23 202 66c10 8 23 9 30 1c8 -10 3 -19 -8 -28c-62 -47 -142 -74 -224 -74zM327 436
c0 12 7 21 21 21c13 0 20 -9 20 -21v-77h-41v77zM490 126c-17 -2 -28 6 -28 17s8 18 24 20c84 13 160 90 161 196l38 -7c-4 -118 -91 -211 -195 -226zM283 480v37h130v-37h-130zM526 436c0 12 7 21 20 21c14 0 21 -9 21 -21v-77h-41v77zM481 480v37h130v-37h-130z" />
    <glyph glyph-name="space" unicode=" " horiz-adv-x="280" 
 />
    <glyph glyph-name="space" unicode="&#xa0;" horiz-adv-x="280" 
 />
    <glyph glyph-name="A" unicode="A" horiz-adv-x="709" 
d="M36 0l300 720h40l-191 -458h229c9 0 16 -7 16 -16s-7 -17 -16 -17h-243l-95 -229h-40zM411 543c-4 11 -1 21 9 26c9 4 20 -1 25 -13l228 -556h-40z" />
    <glyph glyph-name="Aacute" unicode="&#xc1;" horiz-adv-x="709" 
d="M36 0l300 720h40l-191 -458h229c9 0 16 -7 16 -16s-7 -17 -16 -17h-243l-95 -229h-40zM411 543c-4 11 -1 21 9 26c9 4 20 -1 25 -13l228 -556h-40zM337 800l70 145h41l-72 -145h-39z" />
    <glyph glyph-name="Abreve" unicode="&#x102;" horiz-adv-x="709" 
d="M36 0l300 720h40l-191 -458h229c9 0 16 -7 16 -16s-7 -17 -16 -17h-243l-95 -229h-40zM411 543c-4 11 -1 21 9 26c9 4 20 -1 25 -13l228 -556h-40zM357 795c-64 0 -116 44 -116 115h32c0 -53 38 -83 84 -83s84 30 84 83h32c0 -71 -52 -115 -116 -115z" />
    <glyph glyph-name="Acircumflex" unicode="&#xc2;" horiz-adv-x="709" 
d="M36 0l300 720h40l-191 -458h229c9 0 16 -7 16 -16s-7 -17 -16 -17h-243l-95 -229h-40zM411 543c-4 11 -1 21 9 26c9 4 20 -1 25 -13l228 -556h-40zM221 800l115 145h40l116 -145h-40l-96 118l-95 -118h-40z" />
    <glyph glyph-name="Adieresis" unicode="&#xc4;" horiz-adv-x="709" 
d="M36 0l300 720h40l-191 -458h229c9 0 16 -7 16 -16s-7 -17 -16 -17h-243l-95 -229h-40zM411 543c-4 11 -1 21 9 26c9 4 20 -1 25 -13l228 -556h-40zM457 852c-17 0 -31 14 -31 31s14 31 31 31s31 -14 31 -31s-14 -31 -31 -31zM257 852c-17 0 -31 14 -31 31s14 31 31 31
s31 -14 31 -31s-14 -31 -31 -31z" />
    <glyph glyph-name="Agrave" unicode="&#xc0;" horiz-adv-x="709" 
d="M36 0l300 720h40l-191 -458h229c9 0 16 -7 16 -16s-7 -17 -16 -17h-243l-95 -229h-40zM411 543c-4 11 -1 21 9 26c9 4 20 -1 25 -13l228 -556h-40zM377 800h-39l-72 145h41z" />
    <glyph glyph-name="Amacron" unicode="&#x100;" horiz-adv-x="709" 
d="M36 0l300 720h40l-191 -458h229c9 0 16 -7 16 -16s-7 -17 -16 -17h-243l-95 -229h-40zM411 543c-4 11 -1 21 9 26c9 4 20 -1 25 -13l228 -556h-40zM226 807v33h262v-33h-262z" />
    <glyph glyph-name="Aogonek" unicode="&#x104;" horiz-adv-x="709" 
d="M36 0l300 720h40l-191 -458h229c9 0 16 -7 16 -16s-7 -17 -16 -17h-243l-95 -229h-40zM411 543c-4 11 -1 21 9 26c9 4 20 -1 25 -13l228 -556c-52 -31 -93 -68 -93 -121c0 -41 33 -54 64 -54c6 0 19 1 29 5v-30c-11 -4 -24 -5 -36 -5c-45 0 -92 26 -92 84
c0 52 35 88 96 121h-8z" />
    <glyph glyph-name="Aring" unicode="&#xc5;" horiz-adv-x="709" 
d="M36 0l289 693c-32 10 -56 35 -64 68h36c10 -24 32 -41 60 -41c37 0 65 30 65 67s-28 67 -65 67c-24 0 -44 -13 -54 -29c-5 -9 -12 -12 -18 -12c-13 0 -20 14 -12 28c16 29 48 45 84 45c56 0 99 -43 99 -99c0 -54 -40 -96 -93 -99l-178 -426h229c9 0 16 -7 16 -16
s-7 -17 -16 -17h-243l-95 -229h-40zM411 543c-4 11 -1 21 9 26c9 4 20 -1 25 -13l228 -556h-40z" />
    <glyph glyph-name="Atilde" unicode="&#xc3;" horiz-adv-x="709" 
d="M36 0l300 720h40l-191 -458h229c9 0 16 -7 16 -16s-7 -17 -16 -17h-243l-95 -229h-40zM411 543c-4 11 -1 21 9 26c9 4 20 -1 25 -13l228 -556h-40zM415 795c-35 0 -55 22 -75 44c-17 20 -31 32 -51 32c-29 0 -44 -20 -43 -61h-35c-1 59 31 94 78 94c34 0 55 -21 75 -43
c18 -21 31 -33 51 -33c30 0 45 21 45 62h33c1 -59 -30 -95 -78 -95z" />
    <glyph glyph-name="AE" unicode="&#xc6;" horiz-adv-x="911" 
d="M36 0l300 720h503v-33h-477l-177 -425h229c9 0 16 -7 16 -16s-7 -17 -16 -17h-243l-95 -229h-40zM411 543c-4 11 -1 21 9 26c9 4 20 -1 25 -13l69 -168h266v-33h-253l132 -322h180v-33h-206z" />
    <glyph glyph-name="B" unicode="B" horiz-adv-x="622" 
d="M110 244c0 10 8 18 18 18c11 0 19 -8 19 -18v-211h194c115 0 186 61 186 160c0 104 -66 161 -186 161h-231v366h37v-333h194c95 0 163 64 163 153c0 94 -59 147 -163 147h-84c-9 0 -16 8 -16 17s7 16 16 16h84c126 0 200 -66 200 -179c0 -76 -47 -142 -117 -166
c83 -19 140 -93 140 -183c0 -119 -85 -192 -223 -192h-231v244z" />
    <glyph glyph-name="C" unicode="C" horiz-adv-x="821" 
d="M95 401c-11 0 -20 11 -18 24c30 183 175 310 353 310c160 0 286 -88 319 -222h-38c-29 113 -141 188 -281 188c-159 0 -290 -118 -315 -283c-2 -10 -10 -17 -20 -17zM430 -15c-184 0 -335 137 -358 324h38c22 -168 157 -290 320 -290c142 0 242 71 285 202h38
c-43 -151 -160 -236 -323 -236z" />
    <glyph glyph-name="Cacute" unicode="&#x106;" horiz-adv-x="821" 
d="M95 401c-11 0 -20 11 -18 24c30 183 175 310 353 310c160 0 286 -88 319 -222h-38c-29 113 -141 188 -281 188c-159 0 -290 -118 -315 -283c-2 -10 -10 -17 -20 -17zM430 -15c-184 0 -335 137 -358 324h38c22 -168 157 -290 320 -290c142 0 242 71 285 202h38
c-43 -151 -160 -236 -323 -236zM393 800l70 145h41l-72 -145h-39z" />
    <glyph glyph-name="Ccaron" unicode="&#x10c;" horiz-adv-x="821" 
d="M95 401c-11 0 -20 11 -18 24c30 183 175 310 353 310c160 0 286 -88 319 -222h-38c-29 113 -141 188 -281 188c-159 0 -290 -118 -315 -283c-2 -10 -10 -17 -20 -17zM430 -15c-184 0 -335 137 -358 324h38c22 -168 157 -290 320 -290c142 0 242 71 285 202h38
c-43 -151 -160 -236 -323 -236zM392 800l-115 145h40l95 -118l96 118h40l-116 -145h-40z" />
    <glyph glyph-name="Ccedilla" unicode="&#xc7;" horiz-adv-x="821" 
d="M95 401c-11 0 -20 11 -18 24c30 183 175 310 353 310c160 0 286 -88 319 -222h-38c-29 113 -141 188 -281 188c-159 0 -290 -118 -315 -283c-2 -10 -10 -17 -20 -17zM430 -15h-9l-24 -48c4 1 9 2 14 2c41 0 71 -32 71 -72c0 -41 -28 -72 -75 -72s-76 32 -74 66h29
c-1 -20 18 -40 45 -40c29 0 46 19 46 46c0 25 -17 46 -44 46c-14 0 -25 -6 -34 -13l-21 17l35 70c-165 19 -296 149 -317 322h38c22 -168 157 -290 320 -290c142 0 242 71 285 202h38c-43 -151 -160 -236 -323 -236z" />
    <glyph glyph-name="Ccircumflex" unicode="&#x108;" horiz-adv-x="821" 
d="M95 401c-11 0 -20 11 -18 24c30 183 175 310 353 310c160 0 286 -88 319 -222h-38c-29 113 -141 188 -281 188c-159 0 -290 -118 -315 -283c-2 -10 -10 -17 -20 -17zM430 -15c-184 0 -335 137 -358 324h38c22 -168 157 -290 320 -290c142 0 242 71 285 202h38
c-43 -151 -160 -236 -323 -236zM277 800l115 145h40l116 -145h-40l-96 118l-95 -118h-40z" />
    <glyph glyph-name="Cdotaccent" unicode="&#x10a;" horiz-adv-x="821" 
d="M95 401c-11 0 -20 11 -18 24c30 183 175 310 353 310c160 0 286 -88 319 -222h-38c-29 113 -141 188 -281 188c-159 0 -290 -118 -315 -283c-2 -10 -10 -17 -20 -17zM430 -15c-184 0 -335 137 -358 324h38c22 -168 157 -290 320 -290c142 0 242 71 285 202h38
c-43 -151 -160 -236 -323 -236zM413 863c-20 0 -37 17 -37 37s17 37 37 37s37 -17 37 -37s-17 -37 -37 -37z" />
    <glyph glyph-name="D" unicode="D" horiz-adv-x="758" 
d="M257 0c-9 0 -16 8 -16 17s7 16 16 16h95c175 0 297 136 297 330c0 192 -121 324 -297 324h-242v33h242c199 0 334 -145 334 -359c0 -215 -135 -361 -334 -361h-95zM110 577c0 10 8 18 18 18s19 -8 19 -18v-577h-37v577z" />
    <glyph glyph-name="Dcaron" unicode="&#x10e;" horiz-adv-x="758" 
d="M257 0c-9 0 -16 8 -16 17s7 16 16 16h95c175 0 297 136 297 330c0 192 -121 324 -297 324h-242v33h242c199 0 334 -145 334 -359c0 -215 -135 -361 -334 -361h-95zM110 577c0 10 8 18 18 18s19 -8 19 -18v-577h-37v577zM343 800l-115 145h40l95 -118l96 118h40l-116 -145
h-40z" />
    <glyph glyph-name="Dcroat" unicode="&#x110;" horiz-adv-x="758" 
d="M257 0c-9 0 -16 8 -16 17s7 16 16 16h95c175 0 297 136 297 330c0 192 -121 324 -297 324h-242v33h242c199 0 334 -145 334 -359c0 -215 -135 -361 -334 -361h-95zM110 577c0 10 8 18 18 18s19 -8 19 -18v-577h-37v343h-133v33h133v201zM257 343c-9 0 -16 7 -16 17
c0 9 7 16 16 16h143v-33h-143z" />
    <glyph glyph-name="Eth" unicode="&#xd0;" horiz-adv-x="758" 
d="M257 0c-9 0 -16 8 -16 17s7 16 16 16h95c175 0 297 136 297 330c0 192 -121 324 -297 324h-242v33h242c199 0 334 -145 334 -359c0 -215 -135 -361 -334 -361h-95zM110 577c0 10 8 18 18 18s19 -8 19 -18v-577h-37v343h-133v33h133v201zM257 343c-9 0 -16 7 -16 17
c0 9 7 16 16 16h143v-33h-143z" />
    <glyph glyph-name="E" unicode="E" horiz-adv-x="597" 
d="M110 577c0 10 8 18 18 18s19 -8 19 -18v-544h378v-33h-415v577zM257 355c-9 0 -16 7 -16 16s7 17 16 17h209v-33h-209zM110 687v33h415v-33h-415z" />
    <glyph glyph-name="Eacute" unicode="&#xc9;" horiz-adv-x="597" 
d="M110 577c0 10 8 18 18 18s19 -8 19 -18v-544h378v-33h-415v577zM257 355c-9 0 -16 7 -16 16s7 17 16 17h209v-33h-209zM110 687v33h415v-33h-415zM298 800l70 145h41l-72 -145h-39z" />
    <glyph glyph-name="Ebreve" unicode="&#x114;" horiz-adv-x="597" 
d="M110 577c0 10 8 18 18 18s19 -8 19 -18v-544h378v-33h-415v577zM257 355c-9 0 -16 7 -16 16s7 17 16 17h209v-33h-209zM110 687v33h415v-33h-415zM318 795c-64 0 -116 44 -116 115h32c0 -53 38 -83 84 -83s84 30 84 83h32c0 -71 -52 -115 -116 -115z" />
    <glyph glyph-name="Ecaron" unicode="&#x11a;" horiz-adv-x="597" 
d="M110 577c0 10 8 18 18 18s19 -8 19 -18v-544h378v-33h-415v577zM257 355c-9 0 -16 7 -16 16s7 17 16 17h209v-33h-209zM110 687v33h415v-33h-415zM297 800l-115 145h40l95 -118l96 118h40l-116 -145h-40z" />
    <glyph glyph-name="Ecircumflex" unicode="&#xca;" horiz-adv-x="597" 
d="M110 577c0 10 8 18 18 18s19 -8 19 -18v-544h378v-33h-415v577zM257 355c-9 0 -16 7 -16 16s7 17 16 17h209v-33h-209zM110 687v33h415v-33h-415zM182 800l115 145h40l116 -145h-40l-96 118l-95 -118h-40z" />
    <glyph glyph-name="Edieresis" unicode="&#xcb;" horiz-adv-x="597" 
d="M110 577c0 10 8 18 18 18s19 -8 19 -18v-544h378v-33h-415v577zM257 355c-9 0 -16 7 -16 16s7 17 16 17h209v-33h-209zM110 687v33h415v-33h-415zM418 852c-17 0 -31 14 -31 31s14 31 31 31s31 -14 31 -31s-14 -31 -31 -31zM218 852c-17 0 -31 14 -31 31s14 31 31 31
s31 -14 31 -31s-14 -31 -31 -31z" />
    <glyph glyph-name="Edotaccent" unicode="&#x116;" horiz-adv-x="597" 
d="M110 577c0 10 8 18 18 18s19 -8 19 -18v-544h378v-33h-415v577zM257 355c-9 0 -16 7 -16 16s7 17 16 17h209v-33h-209zM110 687v33h415v-33h-415zM318 863c-20 0 -37 17 -37 37s17 37 37 37s37 -17 37 -37s-17 -37 -37 -37z" />
    <glyph glyph-name="Egrave" unicode="&#xc8;" horiz-adv-x="597" 
d="M110 577c0 10 8 18 18 18s19 -8 19 -18v-544h378v-33h-415v577zM257 355c-9 0 -16 7 -16 16s7 17 16 17h209v-33h-209zM110 687v33h415v-33h-415zM338 800h-39l-72 145h41z" />
    <glyph glyph-name="Emacron" unicode="&#x112;" horiz-adv-x="597" 
d="M110 577c0 10 8 18 18 18s19 -8 19 -18v-544h378v-33h-415v577zM257 355c-9 0 -16 7 -16 16s7 17 16 17h209v-33h-209zM110 687v33h415v-33h-415zM187 807v33h262v-33h-262z" />
    <glyph glyph-name="Eogonek" unicode="&#x118;" horiz-adv-x="597" 
d="M110 577c0 10 8 18 18 18s19 -8 19 -18v-544h378v-33c-52 -31 -93 -68 -93 -121c0 -41 33 -54 64 -54c6 0 19 1 29 5v-30c-11 -4 -24 -5 -36 -5c-45 0 -92 26 -92 84c0 52 35 88 96 121h-383v577zM257 355c-9 0 -16 7 -16 16s7 17 16 17h209v-33h-209zM110 687v33h415
v-33h-415z" />
    <glyph glyph-name="F" unicode="F" horiz-adv-x="590" 
d="M110 577c0 10 8 18 18 18s19 -8 19 -18v-577h-37v577zM257 345c-9 0 -16 7 -16 16s7 17 16 17h202v-33h-202zM110 687v33h425v-33h-425z" />
    <glyph glyph-name="G" unicode="G" horiz-adv-x="848" 
d="M430 -15c-203 0 -358 162 -358 375c0 218 150 375 358 375c156 0 286 -84 319 -207h-38c-30 102 -146 173 -281 173c-187 0 -322 -143 -322 -341c0 -193 140 -341 322 -341c169 0 281 124 281 310v24h37v-353h-33v178c-45 -122 -150 -193 -285 -193zM441 320v33h160
c9 0 16 -8 16 -17s-7 -16 -16 -16h-160z" />
    <glyph glyph-name="Gbreve" unicode="&#x11e;" horiz-adv-x="848" 
d="M430 -15c-203 0 -358 162 -358 375c0 218 150 375 358 375c156 0 286 -84 319 -207h-38c-30 102 -146 173 -281 173c-187 0 -322 -143 -322 -341c0 -193 140 -341 322 -341c169 0 281 124 281 310v24h37v-353h-33v178c-45 -122 -150 -193 -285 -193zM441 320v33h160
c9 0 16 -8 16 -17s-7 -16 -16 -16h-160zM430 795c-64 0 -116 44 -116 115h32c0 -53 38 -83 84 -83s84 30 84 83h32c0 -71 -52 -115 -116 -115z" />
    <glyph glyph-name="Gcircumflex" unicode="&#x11c;" horiz-adv-x="848" 
d="M430 -15c-203 0 -358 162 -358 375c0 218 150 375 358 375c156 0 286 -84 319 -207h-38c-30 102 -146 173 -281 173c-187 0 -322 -143 -322 -341c0 -193 140 -341 322 -341c169 0 281 124 281 310v24h37v-353h-33v178c-45 -122 -150 -193 -285 -193zM441 320v33h160
c9 0 16 -8 16 -17s-7 -16 -16 -16h-160zM294 800l115 145h40l116 -145h-40l-96 118l-95 -118h-40z" />
    <glyph glyph-name="uni0122" unicode="&#x122;" horiz-adv-x="848" 
d="M430 -15c-203 0 -358 162 -358 375c0 218 150 375 358 375c156 0 286 -84 319 -207h-38c-30 102 -146 173 -281 173c-187 0 -322 -143 -322 -341c0 -193 140 -341 322 -341c169 0 281 124 281 310v24h37v-353h-33v178c-45 -122 -150 -193 -285 -193zM441 320v33h160
c9 0 16 -8 16 -17s-7 -16 -16 -16h-160zM384 -231l42 99c-19 3 -30 15 -30 34c0 18 13 32 35 32c20 0 33 -14 33 -32c0 -9 -1 -16 -8 -32l-43 -101h-29z" />
    <glyph glyph-name="Gdotaccent" unicode="&#x120;" horiz-adv-x="848" 
d="M430 -15c-203 0 -358 162 -358 375c0 218 150 375 358 375c156 0 286 -84 319 -207h-38c-30 102 -146 173 -281 173c-187 0 -322 -143 -322 -341c0 -193 140 -341 322 -341c169 0 281 124 281 310v24h37v-353h-33v178c-45 -122 -150 -193 -285 -193zM441 320v33h160
c9 0 16 -8 16 -17s-7 -16 -16 -16h-160zM430 863c-20 0 -37 17 -37 37s17 37 37 37s37 -17 37 -37s-17 -37 -37 -37z" />
    <glyph glyph-name="H" unicode="H" horiz-adv-x="726" 
d="M579 0v355h-322c-9 0 -16 7 -16 16s7 17 16 17h322v332h37v-720h-37zM110 0v720h37v-720h-37z" />
    <glyph glyph-name="Hbar" unicode="&#x126;" horiz-adv-x="726" 
d="M579 0v355h-322c-9 0 -16 7 -16 16s7 17 16 17h322v332h37v-145h99v-33h-99v-542h-37zM110 0v542h-100v33h100v145h37v-145h322c9 0 16 -7 16 -16s-7 -17 -16 -17h-322v-542h-37z" />
    <glyph glyph-name="Hcircumflex" unicode="&#x124;" horiz-adv-x="726" 
d="M579 0v355h-322c-9 0 -16 7 -16 16s7 17 16 17h322v332h37v-720h-37zM110 0v720h37v-720h-37zM227 800l115 145h40l116 -145h-40l-96 118l-95 -118h-40z" />
    <glyph glyph-name="I" unicode="I" horiz-adv-x="257" 
d="M128 405c-10 0 -18 8 -18 18v297h37v-297c0 -10 -9 -18 -19 -18zM110 297c0 10 8 18 18 18s19 -8 19 -18v-297h-37v297z" />
    <glyph glyph-name="Iacute" unicode="&#xcd;" horiz-adv-x="257" 
d="M128 405c-10 0 -18 8 -18 18v297h37v-297c0 -10 -9 -18 -19 -18zM110 297c0 10 8 18 18 18s19 -8 19 -18v-297h-37v297zM109 800l70 145h41l-72 -145h-39z" />
    <glyph glyph-name="Ibreve" unicode="&#x12c;" horiz-adv-x="257" 
d="M128 405c-10 0 -18 8 -18 18v297h37v-297c0 -10 -9 -18 -19 -18zM110 297c0 10 8 18 18 18s19 -8 19 -18v-297h-37v297zM129 795c-64 0 -116 44 -116 115h32c0 -53 38 -83 84 -83s84 30 84 83h32c0 -71 -52 -115 -116 -115z" />
    <glyph glyph-name="Icircumflex" unicode="&#xce;" horiz-adv-x="257" 
d="M128 405c-10 0 -18 8 -18 18v297h37v-297c0 -10 -9 -18 -19 -18zM110 297c0 10 8 18 18 18s19 -8 19 -18v-297h-37v297zM-7 800l115 145h40l116 -145h-40l-96 118l-95 -118h-40z" />
    <glyph glyph-name="Idieresis" unicode="&#xcf;" horiz-adv-x="257" 
d="M128 405c-10 0 -18 8 -18 18v297h37v-297c0 -10 -9 -18 -19 -18zM110 297c0 10 8 18 18 18s19 -8 19 -18v-297h-37v297zM229 852c-17 0 -31 14 -31 31s14 31 31 31s31 -14 31 -31s-14 -31 -31 -31zM29 852c-17 0 -31 14 -31 31s14 31 31 31s31 -14 31 -31
s-14 -31 -31 -31z" />
    <glyph glyph-name="Idotaccent" unicode="&#x130;" horiz-adv-x="257" 
d="M128 405c-10 0 -18 8 -18 18v297h37v-297c0 -10 -9 -18 -19 -18zM110 297c0 10 8 18 18 18s19 -8 19 -18v-297h-37v297zM129 863c-20 0 -37 17 -37 37s17 37 37 37s37 -17 37 -37s-17 -37 -37 -37z" />
    <glyph glyph-name="Igrave" unicode="&#xcc;" horiz-adv-x="257" 
d="M128 405c-10 0 -18 8 -18 18v297h37v-297c0 -10 -9 -18 -19 -18zM110 297c0 10 8 18 18 18s19 -8 19 -18v-297h-37v297zM149 800h-39l-72 145h41z" />
    <glyph glyph-name="Imacron" unicode="&#x12a;" horiz-adv-x="257" 
d="M128 405c-10 0 -18 8 -18 18v297h37v-297c0 -10 -9 -18 -19 -18zM110 297c0 10 8 18 18 18s19 -8 19 -18v-297h-37v297zM24 807v33h210v-33h-210z" />
    <glyph glyph-name="Iogonek" unicode="&#x12e;" horiz-adv-x="257" 
d="M128 405c-10 0 -18 8 -18 18v297h37v-297c0 -10 -9 -18 -19 -18zM110 297c0 10 8 18 18 18s19 -8 19 -18v-297c-52 -31 -93 -68 -93 -121c0 -41 33 -54 64 -54c6 0 19 1 29 5v-30c-11 -4 -24 -5 -36 -5c-45 0 -92 26 -92 84c0 52 35 88 96 121h-5v297z" />
    <glyph glyph-name="Itilde" unicode="&#x128;" horiz-adv-x="257" 
d="M128 405c-10 0 -18 8 -18 18v297h37v-297c0 -10 -9 -18 -19 -18zM110 297c0 10 8 18 18 18s19 -8 19 -18v-297h-37v297zM187 795c-35 0 -55 22 -75 44c-17 20 -31 32 -51 32c-29 0 -44 -20 -43 -61h-35c-1 59 31 94 78 94c34 0 55 -21 75 -43c18 -21 31 -33 51 -33
c30 0 45 21 45 62h33c1 -59 -30 -95 -78 -95z" />
    <glyph glyph-name="J" unicode="J" horiz-adv-x="424" 
d="M55 35c22 -3 39 -5 54 -5c111 0 168 66 168 195v72c0 10 8 18 18 18s19 -8 19 -18v-72c0 -149 -71 -230 -203 -230c-19 0 -38 2 -56 5v35zM295 405c-10 0 -18 8 -18 18v297h37v-297c0 -10 -9 -18 -19 -18z" />
    <glyph glyph-name="Jcircumflex" unicode="&#x134;" horiz-adv-x="424" 
d="M55 35c22 -3 39 -5 54 -5c111 0 168 66 168 195v72c0 10 8 18 18 18s19 -8 19 -18v-72c0 -149 -71 -230 -203 -230c-19 0 -38 2 -56 5v35zM295 405c-10 0 -18 8 -18 18v297h37v-297c0 -10 -9 -18 -19 -18zM160 800l115 145h40l116 -145h-40l-96 118l-95 -118h-40z" />
    <glyph glyph-name="K" unicode="K" horiz-adv-x="673" 
d="M110 0v276l456 444h52l-471 -458v-262h-37zM348 314c-6 8 -6 19 1 26c9 8 22 5 29 -4l259 -336h-47zM128 417c-10 0 -18 8 -18 18v285h37v-285c0 -10 -9 -18 -19 -18z" />
    <glyph glyph-name="uni0136" unicode="&#x136;" horiz-adv-x="673" 
d="M110 0v276l456 444h52l-471 -458v-262h-37zM348 314c-6 8 -6 19 1 26c9 8 22 5 29 -4l259 -336h-47zM128 417c-10 0 -18 8 -18 18v285h37v-285c0 -10 -9 -18 -19 -18zM312 -231l42 99c-19 3 -30 15 -30 34c0 18 13 32 35 32c20 0 33 -14 33 -32c0 -9 -1 -16 -8 -32
l-43 -101h-29z" />
    <glyph glyph-name="L" unicode="L" horiz-adv-x="579" 
d="M110 0v720h37v-720h-37zM257 0c-9 0 -16 8 -16 17s7 16 16 16h267v-33h-267z" />
    <glyph glyph-name="Lacute" unicode="&#x139;" horiz-adv-x="579" 
d="M110 0v720h37v-720h-37zM257 0c-9 0 -16 8 -16 17s7 16 16 16h267v-33h-267zM109 800l70 145h41l-72 -145h-39z" />
    <glyph glyph-name="Lcaron" unicode="&#x13d;" horiz-adv-x="579" 
d="M110 0v720h37v-720h-37zM257 0c-9 0 -16 8 -16 17s7 16 16 16h267v-33h-267zM304 534l47 126c-18 2 -29 14 -29 33c0 18 13 32 35 32c20 0 33 -14 33 -32c0 -9 -2 -16 -8 -32l-48 -127h-30z" />
    <glyph glyph-name="uni013B" unicode="&#x13b;" horiz-adv-x="579" 
d="M110 0v720h37v-720h-37zM257 0c-9 0 -16 8 -16 17s7 16 16 16h267v-33h-267zM266 -231l42 99c-19 3 -30 15 -30 34c0 18 13 32 35 32c20 0 33 -14 33 -32c0 -9 -1 -16 -8 -32l-43 -101h-29z" />
    <glyph glyph-name="Ldot" unicode="&#x13f;" horiz-adv-x="579" 
d="M110 0v720h37v-720h-37zM257 0c-9 0 -16 8 -16 17s7 16 16 16h267v-33h-267zM354 347c-20 0 -37 17 -37 37s17 37 37 37s37 -17 37 -37s-17 -37 -37 -37z" />
    <glyph glyph-name="Lslash" unicode="&#x141;" horiz-adv-x="579" 
d="M110 0v306l-133 -50v35l133 50v379h37v-720h-37zM257 0c-9 0 -16 8 -16 17s7 16 16 16h267v-33h-267zM266 366c-10 -4 -21 -1 -24 7c-3 10 1 19 11 23l167 63v-35z" />
    <glyph glyph-name="M" unicode="M" horiz-adv-x="908" 
d="M439 0l-329 720h40l329 -720h-40zM761 0v657l-215 -505c-5 -11 -16 -16 -26 -12c-9 4 -12 15 -7 27l234 553h51v-720h-37zM110 442c0 10 8 18 18 18s19 -8 19 -18v-442h-37v442z" />
    <glyph glyph-name="N" unicode="N" horiz-adv-x="794" 
d="M640 0l-530 720h44l493 -671v671h37v-720h-44zM110 501c0 10 8 18 18 18s19 -8 19 -18v-501h-37v501z" />
    <glyph glyph-name="Nacute" unicode="&#x143;" horiz-adv-x="794" 
d="M640 0l-530 720h44l493 -671v671h37v-720h-44zM110 501c0 10 8 18 18 18s19 -8 19 -18v-501h-37v501zM377 800l70 145h41l-72 -145h-39z" />
    <glyph glyph-name="Ncaron" unicode="&#x147;" horiz-adv-x="794" 
d="M640 0l-530 720h44l493 -671v671h37v-720h-44zM110 501c0 10 8 18 18 18s19 -8 19 -18v-501h-37v501zM376 800l-115 145h40l95 -118l96 118h40l-116 -145h-40z" />
    <glyph glyph-name="uni0145" unicode="&#x145;" horiz-adv-x="794" 
d="M640 0l-530 720h44l493 -671v671h37v-720h-44zM110 501c0 10 8 18 18 18s19 -8 19 -18v-501h-37v501zM351 -231l42 99c-19 3 -30 15 -30 34c0 18 13 32 35 32c20 0 33 -14 33 -32c0 -9 -1 -16 -8 -32l-43 -101h-29z" />
    <glyph glyph-name="Ntilde" unicode="&#xd1;" horiz-adv-x="794" 
d="M640 0l-530 720h44l493 -671v671h37v-720h-44zM110 501c0 10 8 18 18 18s19 -8 19 -18v-501h-37v501zM455 795c-35 0 -55 22 -75 44c-17 20 -31 32 -51 32c-29 0 -44 -20 -43 -61h-35c-1 59 31 94 78 94c34 0 55 -21 75 -43c18 -21 31 -33 51 -33c30 0 45 21 45 62h33
c1 -59 -30 -95 -78 -95z" />
    <glyph glyph-name="Eng" unicode="&#x14a;" horiz-adv-x="794" 
d="M110 501c0 10 8 18 18 18s19 -8 19 -18v-501h-37v501zM110 720h44l493 -671v671h37v-774c0 -96 -45 -151 -123 -151c-16 0 -30 2 -43 5v34c25 -4 32 -4 41 -4c56 0 88 41 88 115v47z" />
    <glyph glyph-name="O" unicode="O" horiz-adv-x="882" 
d="M440 -15c-192 0 -346 136 -368 324h37c22 -169 160 -290 331 -290c186 0 333 150 333 341c0 196 -142 341 -333 341c-167 0 -301 -117 -326 -283c-1 -10 -9 -17 -19 -17c-11 0 -20 11 -18 24c29 184 177 310 363 310c212 0 370 -160 370 -375c0 -210 -163 -375 -370 -375
z" />
    <glyph glyph-name="Oacute" unicode="&#xd3;" horiz-adv-x="882" 
d="M440 -15c-192 0 -346 136 -368 324h37c22 -169 160 -290 331 -290c186 0 333 150 333 341c0 196 -142 341 -333 341c-167 0 -301 -117 -326 -283c-1 -10 -9 -17 -19 -17c-11 0 -20 11 -18 24c29 184 177 310 363 310c212 0 370 -160 370 -375c0 -210 -163 -375 -370 -375
zM420 800l70 145h41l-72 -145h-39z" />
    <glyph glyph-name="Obreve" unicode="&#x14e;" horiz-adv-x="882" 
d="M440 -15c-192 0 -346 136 -368 324h37c22 -169 160 -290 331 -290c186 0 333 150 333 341c0 196 -142 341 -333 341c-167 0 -301 -117 -326 -283c-1 -10 -9 -17 -19 -17c-11 0 -20 11 -18 24c29 184 177 310 363 310c212 0 370 -160 370 -375c0 -210 -163 -375 -370 -375
zM440 795c-64 0 -116 44 -116 115h32c0 -53 38 -83 84 -83s84 30 84 83h32c0 -71 -52 -115 -116 -115z" />
    <glyph glyph-name="Ocircumflex" unicode="&#xd4;" horiz-adv-x="882" 
d="M440 -15c-192 0 -346 136 -368 324h37c22 -169 160 -290 331 -290c186 0 333 150 333 341c0 196 -142 341 -333 341c-167 0 -301 -117 -326 -283c-1 -10 -9 -17 -19 -17c-11 0 -20 11 -18 24c29 184 177 310 363 310c212 0 370 -160 370 -375c0 -210 -163 -375 -370 -375
zM304 800l115 145h40l116 -145h-40l-96 118l-95 -118h-40z" />
    <glyph glyph-name="Odieresis" unicode="&#xd6;" horiz-adv-x="882" 
d="M440 -15c-192 0 -346 136 -368 324h37c22 -169 160 -290 331 -290c186 0 333 150 333 341c0 196 -142 341 -333 341c-167 0 -301 -117 -326 -283c-1 -10 -9 -17 -19 -17c-11 0 -20 11 -18 24c29 184 177 310 363 310c212 0 370 -160 370 -375c0 -210 -163 -375 -370 -375
zM540 852c-17 0 -31 14 -31 31s14 31 31 31s31 -14 31 -31s-14 -31 -31 -31zM340 852c-17 0 -31 14 -31 31s14 31 31 31s31 -14 31 -31s-14 -31 -31 -31z" />
    <glyph glyph-name="Ograve" unicode="&#xd2;" horiz-adv-x="882" 
d="M440 -15c-192 0 -346 136 -368 324h37c22 -169 160 -290 331 -290c186 0 333 150 333 341c0 196 -142 341 -333 341c-167 0 -301 -117 -326 -283c-1 -10 -9 -17 -19 -17c-11 0 -20 11 -18 24c29 184 177 310 363 310c212 0 370 -160 370 -375c0 -210 -163 -375 -370 -375
zM460 800h-39l-72 145h41z" />
    <glyph glyph-name="Ohungarumlaut" unicode="&#x150;" horiz-adv-x="882" 
d="M440 -15c-192 0 -346 136 -368 324h37c22 -169 160 -290 331 -290c186 0 333 150 333 341c0 196 -142 341 -333 341c-167 0 -301 -117 -326 -283c-1 -10 -9 -17 -19 -17c-11 0 -20 11 -18 24c29 184 177 310 363 310c212 0 370 -160 370 -375c0 -210 -163 -375 -370 -375
zM500 800l60 145h42l-65 -145h-37zM342 800l60 145h42l-65 -145h-37z" />
    <glyph glyph-name="Omacron" unicode="&#x14c;" horiz-adv-x="882" 
d="M440 -15c-192 0 -346 136 -368 324h37c22 -169 160 -290 331 -290c186 0 333 150 333 341c0 196 -142 341 -333 341c-167 0 -301 -117 -326 -283c-1 -10 -9 -17 -19 -17c-11 0 -20 11 -18 24c29 184 177 310 363 310c212 0 370 -160 370 -375c0 -210 -163 -375 -370 -375
zM309 807v33h262v-33h-262z" />
    <glyph glyph-name="Oslash" unicode="&#xd8;" horiz-adv-x="882" 
d="M440 -15c-75 0 -144 21 -202 57l-65 -93l-28 20l65 93c-75 58 -126 145 -138 247h37c12 -90 56 -166 121 -218l315 451c7 9 18 12 27 6c8 -6 8 -17 2 -26l-316 -451c52 -33 115 -52 182 -52c186 0 333 150 333 341c0 196 -142 341 -333 341c-167 0 -301 -117 -326 -283
c-1 -10 -9 -17 -19 -17c-11 0 -20 11 -18 24c29 184 177 310 363 310c75 0 144 -20 201 -56l66 93l28 -20l-65 -93c86 -67 140 -174 140 -299c0 -210 -163 -375 -370 -375z" />
    <glyph glyph-name="Otilde" unicode="&#xd5;" horiz-adv-x="882" 
d="M440 -15c-192 0 -346 136 -368 324h37c22 -169 160 -290 331 -290c186 0 333 150 333 341c0 196 -142 341 -333 341c-167 0 -301 -117 -326 -283c-1 -10 -9 -17 -19 -17c-11 0 -20 11 -18 24c29 184 177 310 363 310c212 0 370 -160 370 -375c0 -210 -163 -375 -370 -375
zM498 795c-35 0 -55 22 -75 44c-17 20 -31 32 -51 32c-29 0 -44 -20 -43 -61h-35c-1 59 31 94 78 94c34 0 55 -21 75 -43c18 -21 31 -33 51 -33c30 0 45 21 45 62h33c1 -59 -30 -95 -78 -95z" />
    <glyph glyph-name="OE" unicode="&#x152;" horiz-adv-x="1048" 
d="M456 687c-214 0 -347 -132 -347 -324c0 -194 134 -330 347 -330h105v544c0 10 8 18 18 18s19 -8 19 -18v-544h378v-33h-520c-237 0 -384 146 -384 361c0 214 147 359 384 359h520v-33h-520zM692 372c0 9 7 16 16 16h209v-33h-209c-9 0 -16 8 -16 17z" />
    <glyph glyph-name="P" unicode="P" horiz-adv-x="645" 
d="M257 334c-9 0 -16 8 -16 17s7 16 16 16h130c102 0 171 64 171 160c0 98 -67 160 -171 160h-277v33h277c126 0 208 -76 208 -193s-82 -193 -208 -193h-130zM110 577c0 10 8 18 18 18s19 -8 19 -18v-577h-37v577z" />
    <glyph glyph-name="Thorn" unicode="&#xde;" horiz-adv-x="645" 
d="M257 167c-9 0 -16 8 -16 17s7 16 16 16h130c92 0 171 55 171 160c0 109 -79 160 -171 160h-277v200h37v-167h240c117 0 208 -68 208 -193s-91 -193 -208 -193h-130zM110 410c0 10 8 18 18 18s19 -8 19 -18v-410h-37v410z" />
    <glyph glyph-name="Q" unicode="Q" horiz-adv-x="882" 
d="M440 -15c-192 0 -346 136 -368 324h37c22 -169 160 -290 331 -290c186 0 333 150 333 341c0 196 -142 341 -333 341c-167 0 -301 -117 -326 -283c-1 -10 -9 -17 -19 -17c-11 0 -20 11 -18 24c29 184 177 310 363 310c212 0 370 -160 370 -375c0 -121 -55 -228 -141 -296
l73 -103l-31 -21l-72 102c-57 -36 -125 -57 -199 -57zM587 149c-9 -6 -20 -4 -25 4l-106 151l30 21l106 -150c6 -8 4 -20 -5 -26z" />
    <glyph glyph-name="R" unicode="R" horiz-adv-x="652" 
d="M257 344c-9 0 -16 8 -16 17s7 16 16 16h96c102 0 171 62 171 155c0 95 -67 155 -171 155h-243v33h243c126 0 208 -74 208 -188s-82 -188 -208 -188h-96zM110 577c0 10 8 18 18 18s19 -8 19 -18v-577h-37v577zM366 243c-7 9 -6 22 2 27c9 6 19 4 26 -5l186 -265h-45z" />
    <glyph glyph-name="Racute" unicode="&#x154;" horiz-adv-x="652" 
d="M257 344c-9 0 -16 8 -16 17s7 16 16 16h96c102 0 171 62 171 155c0 95 -67 155 -171 155h-243v33h243c126 0 208 -74 208 -188s-82 -188 -208 -188h-96zM110 577c0 10 8 18 18 18s19 -8 19 -18v-577h-37v577zM366 243c-7 9 -6 22 2 27c9 6 19 4 26 -5l186 -265h-45z
M305 800l70 145h41l-72 -145h-39z" />
    <glyph glyph-name="Rcaron" unicode="&#x158;" horiz-adv-x="652" 
d="M257 344c-9 0 -16 8 -16 17s7 16 16 16h96c102 0 171 62 171 155c0 95 -67 155 -171 155h-243v33h243c126 0 208 -74 208 -188s-82 -188 -208 -188h-96zM110 577c0 10 8 18 18 18s19 -8 19 -18v-577h-37v577zM366 243c-7 9 -6 22 2 27c9 6 19 4 26 -5l186 -265h-45z
M304 800l-115 145h40l95 -118l96 118h40l-116 -145h-40z" />
    <glyph glyph-name="uni0156" unicode="&#x156;" horiz-adv-x="652" 
d="M257 344c-9 0 -16 8 -16 17s7 16 16 16h96c102 0 171 62 171 155c0 95 -67 155 -171 155h-243v33h243c126 0 208 -74 208 -188s-82 -188 -208 -188h-96zM110 577c0 10 8 18 18 18s19 -8 19 -18v-577h-37v577zM366 243c-7 9 -6 22 2 27c9 6 19 4 26 -5l186 -265h-45z
M293 -231l42 99c-19 3 -30 15 -30 34c0 18 13 32 35 32c20 0 33 -14 33 -32c0 -9 -1 -16 -8 -32l-43 -101h-29z" />
    <glyph glyph-name="S" unicode="S" horiz-adv-x="574" 
d="M292 -15c-140 0 -233 89 -242 233h37c5 -120 88 -200 207 -200c114 0 185 61 185 159c0 75 -38 124 -128 159c-8 3 -14 11 -11 20c4 11 14 13 25 10c95 -26 151 -104 151 -186c0 -120 -86 -195 -224 -195zM226 372c-103 30 -148 90 -148 167c0 118 85 196 210 196
s212 -80 223 -203h-37c-9 103 -82 170 -185 170s-174 -64 -174 -160c0 -67 36 -114 121 -139c13 -4 20 -12 16 -23c-4 -10 -14 -12 -26 -8z" />
    <glyph glyph-name="Sacute" unicode="&#x15a;" horiz-adv-x="574" 
d="M292 -15c-140 0 -233 89 -242 233h37c5 -120 88 -200 207 -200c114 0 185 61 185 159c0 75 -38 124 -128 159c-8 3 -14 11 -11 20c4 11 14 13 25 10c95 -26 151 -104 151 -186c0 -120 -86 -195 -224 -195zM226 372c-103 30 -148 90 -148 167c0 118 85 196 210 196
s212 -80 223 -203h-37c-9 103 -82 170 -185 170s-174 -64 -174 -160c0 -67 36 -114 121 -139c13 -4 20 -12 16 -23c-4 -10 -14 -12 -26 -8zM270 800l70 145h41l-72 -145h-39z" />
    <glyph glyph-name="Scaron" unicode="&#x160;" horiz-adv-x="574" 
d="M292 -15c-140 0 -233 89 -242 233h37c5 -120 88 -200 207 -200c114 0 185 61 185 159c0 75 -38 124 -128 159c-8 3 -14 11 -11 20c4 11 14 13 25 10c95 -26 151 -104 151 -186c0 -120 -86 -195 -224 -195zM226 372c-103 30 -148 90 -148 167c0 118 85 196 210 196
s212 -80 223 -203h-37c-9 103 -82 170 -185 170s-174 -64 -174 -160c0 -67 36 -114 121 -139c13 -4 20 -12 16 -23c-4 -10 -14 -12 -26 -8zM269 800l-115 145h40l95 -118l96 118h40l-116 -145h-40z" />
    <glyph glyph-name="Scedilla" unicode="&#x15e;" horiz-adv-x="574" 
d="M226 372c-103 30 -148 90 -148 167c0 118 85 196 210 196s212 -80 223 -203h-37c-9 103 -82 170 -185 170s-174 -64 -174 -160c0 -67 36 -114 121 -139c13 -4 20 -12 16 -23c-4 -10 -14 -12 -26 -8zM284 -205c-47 0 -76 32 -74 66h29c-1 -20 18 -40 45 -40
c29 0 46 19 46 46c0 25 -17 46 -44 46c-14 0 -25 -6 -34 -13l-21 17l35 69c-126 11 -208 97 -216 232h37c5 -120 88 -200 207 -200c114 0 185 61 185 159c0 75 -38 124 -128 159c-8 3 -14 11 -11 20c4 11 14 13 25 10c95 -26 151 -104 151 -186c0 -118 -84 -193 -218 -195
l-24 -48c4 1 9 2 14 2c41 0 71 -32 71 -72c0 -41 -28 -72 -75 -72z" />
    <glyph glyph-name="Scircumflex" unicode="&#x15c;" horiz-adv-x="574" 
d="M292 -15c-140 0 -233 89 -242 233h37c5 -120 88 -200 207 -200c114 0 185 61 185 159c0 75 -38 124 -128 159c-8 3 -14 11 -11 20c4 11 14 13 25 10c95 -26 151 -104 151 -186c0 -120 -86 -195 -224 -195zM226 372c-103 30 -148 90 -148 167c0 118 85 196 210 196
s212 -80 223 -203h-37c-9 103 -82 170 -185 170s-174 -64 -174 -160c0 -67 36 -114 121 -139c13 -4 20 -12 16 -23c-4 -10 -14 -12 -26 -8zM154 800l115 145h40l116 -145h-40l-96 118l-95 -118h-40z" />
    <glyph glyph-name="T" unicode="T" horiz-adv-x="675" 
d="M319 577c0 10 8 18 18 18s19 -8 19 -18v-577h-37v577zM55 687v33h565v-33h-565z" />
    <glyph glyph-name="Tbar" unicode="&#x166;" horiz-adv-x="675" 
d="M319 577c0 10 8 18 18 18s19 -8 19 -18v-577h-37v343h-193v33h193v201zM55 687v33h565v-33h-565zM466 343c-9 0 -16 7 -16 17c0 9 7 16 16 16h83v-33h-83z" />
    <glyph glyph-name="Tcaron" unicode="&#x164;" horiz-adv-x="675" 
d="M319 577c0 10 8 18 18 18s19 -8 19 -18v-577h-37v577zM55 687v33h565v-33h-565zM317 800l-115 145h40l95 -118l96 118h40l-116 -145h-40z" />
    <glyph glyph-name="uni0162" unicode="&#x162;" horiz-adv-x="675" 
d="M319 577c0 10 8 18 18 18s19 -8 19 -18v-577h-3l-31 -63c4 1 9 2 14 2c41 0 71 -32 71 -72c0 -41 -28 -72 -75 -72s-76 32 -74 66h29c-1 -20 18 -40 45 -40c29 0 46 19 46 46c0 25 -17 46 -44 46c-14 0 -25 -6 -34 -13l-21 17l42 83h-2v577zM55 687v33h565v-33h-565z" />
    <glyph glyph-name="U" unicode="U" horiz-adv-x="708" 
d="M354 -15c-149 0 -244 100 -244 256v56c0 10 9 18 19 18s18 -8 18 -18v-61c0 -133 81 -218 207 -218s207 85 207 218v484h37v-479c0 -156 -95 -256 -244 -256zM129 405c-10 0 -19 8 -19 18v297h37v-297c0 -10 -8 -18 -18 -18z" />
    <glyph glyph-name="Uacute" unicode="&#xda;" horiz-adv-x="708" 
d="M354 -15c-149 0 -244 100 -244 256v56c0 10 9 18 19 18s18 -8 18 -18v-61c0 -133 81 -218 207 -218s207 85 207 218v484h37v-479c0 -156 -95 -256 -244 -256zM129 405c-10 0 -19 8 -19 18v297h37v-297c0 -10 -8 -18 -18 -18zM334 800l70 145h41l-72 -145h-39z" />
    <glyph glyph-name="Ubreve" unicode="&#x16c;" horiz-adv-x="708" 
d="M354 -15c-149 0 -244 100 -244 256v56c0 10 9 18 19 18s18 -8 18 -18v-61c0 -133 81 -218 207 -218s207 85 207 218v484h37v-479c0 -156 -95 -256 -244 -256zM129 405c-10 0 -19 8 -19 18v297h37v-297c0 -10 -8 -18 -18 -18zM354 795c-64 0 -116 44 -116 115h32
c0 -53 38 -83 84 -83s84 30 84 83h32c0 -71 -52 -115 -116 -115z" />
    <glyph glyph-name="Ucircumflex" unicode="&#xdb;" horiz-adv-x="708" 
d="M354 -15c-149 0 -244 100 -244 256v56c0 10 9 18 19 18s18 -8 18 -18v-61c0 -133 81 -218 207 -218s207 85 207 218v484h37v-479c0 -156 -95 -256 -244 -256zM129 405c-10 0 -19 8 -19 18v297h37v-297c0 -10 -8 -18 -18 -18zM218 800l115 145h40l116 -145h-40l-96 118
l-95 -118h-40z" />
    <glyph glyph-name="Udieresis" unicode="&#xdc;" horiz-adv-x="708" 
d="M354 -15c-149 0 -244 100 -244 256v56c0 10 9 18 19 18s18 -8 18 -18v-61c0 -133 81 -218 207 -218s207 85 207 218v484h37v-479c0 -156 -95 -256 -244 -256zM129 405c-10 0 -19 8 -19 18v297h37v-297c0 -10 -8 -18 -18 -18zM454 852c-17 0 -31 14 -31 31s14 31 31 31
s31 -14 31 -31s-14 -31 -31 -31zM254 852c-17 0 -31 14 -31 31s14 31 31 31s31 -14 31 -31s-14 -31 -31 -31z" />
    <glyph glyph-name="Ugrave" unicode="&#xd9;" horiz-adv-x="708" 
d="M354 -15c-149 0 -244 100 -244 256v56c0 10 9 18 19 18s18 -8 18 -18v-61c0 -133 81 -218 207 -218s207 85 207 218v484h37v-479c0 -156 -95 -256 -244 -256zM129 405c-10 0 -19 8 -19 18v297h37v-297c0 -10 -8 -18 -18 -18zM374 800h-39l-72 145h41z" />
    <glyph glyph-name="Uhungarumlaut" unicode="&#x170;" horiz-adv-x="708" 
d="M354 -15c-149 0 -244 100 -244 256v56c0 10 9 18 19 18s18 -8 18 -18v-61c0 -133 81 -218 207 -218s207 85 207 218v484h37v-479c0 -156 -95 -256 -244 -256zM129 405c-10 0 -19 8 -19 18v297h37v-297c0 -10 -8 -18 -18 -18zM414 800l60 145h42l-65 -145h-37zM256 800
l60 145h42l-65 -145h-37z" />
    <glyph glyph-name="Umacron" unicode="&#x16a;" horiz-adv-x="708" 
d="M354 -15c-149 0 -244 100 -244 256v56c0 10 9 18 19 18s18 -8 18 -18v-61c0 -133 81 -218 207 -218s207 85 207 218v484h37v-479c0 -156 -95 -256 -244 -256zM129 405c-10 0 -19 8 -19 18v297h37v-297c0 -10 -8 -18 -18 -18zM223 807v33h262v-33h-262z" />
    <glyph glyph-name="Uogonek" unicode="&#x172;" horiz-adv-x="708" 
d="M354 -15c-149 0 -244 100 -244 256v56c0 10 9 18 19 18s18 -8 18 -18v-61c0 -133 81 -218 207 -218s207 85 207 218v484h37v-479c0 -119 -55 -206 -148 -240l1 -1c-52 -31 -93 -68 -93 -121c0 -41 33 -54 64 -54c6 0 19 1 29 5v-30c-11 -4 -24 -5 -36 -5
c-45 0 -92 26 -92 84c0 46 27 79 75 109c-14 -2 -29 -3 -44 -3zM129 405c-10 0 -19 8 -19 18v297h37v-297c0 -10 -8 -18 -18 -18z" />
    <glyph glyph-name="Uring" unicode="&#x16e;" horiz-adv-x="708" 
d="M354 -15c-149 0 -244 100 -244 256v56c0 10 9 18 19 18s18 -8 18 -18v-61c0 -133 81 -218 207 -218s207 85 207 218v484h37v-479c0 -156 -95 -256 -244 -256zM129 405c-10 0 -19 8 -19 18v297h37v-297c0 -10 -8 -18 -18 -18zM294 813c10 -24 32 -41 60 -41
c37 0 65 30 65 67s-28 67 -65 67c-24 0 -44 -13 -54 -29c-5 -9 -12 -12 -18 -12c-13 0 -20 14 -12 28c16 29 48 45 84 45c56 0 99 -43 99 -99s-43 -99 -99 -99c-47 0 -85 30 -96 73h36z" />
    <glyph glyph-name="Utilde" unicode="&#x168;" horiz-adv-x="708" 
d="M354 -15c-149 0 -244 100 -244 256v56c0 10 9 18 19 18s18 -8 18 -18v-61c0 -133 81 -218 207 -218s207 85 207 218v484h37v-479c0 -156 -95 -256 -244 -256zM129 405c-10 0 -19 8 -19 18v297h37v-297c0 -10 -8 -18 -18 -18zM412 795c-35 0 -55 22 -75 44
c-17 20 -31 32 -51 32c-29 0 -44 -20 -43 -61h-35c-1 59 31 94 78 94c34 0 55 -21 75 -43c18 -21 31 -33 51 -33c30 0 45 21 45 62h33c1 -59 -30 -95 -78 -95z" />
    <glyph glyph-name="V" unicode="V" horiz-adv-x="709" 
d="M336 0l-300 720h40l300 -720h-40zM420 151c-10 5 -13 15 -9 26l222 543h40l-228 -556c-5 -12 -16 -17 -25 -13z" />
    <glyph glyph-name="W" unicode="W" horiz-adv-x="1020" 
d="M249 0l-213 720h37l213 -720h-37zM734 0l-224 682l-159 -501c-3 -10 -13 -16 -22 -13s-14 13 -11 24l168 528h48l237 -720h-37zM803 168c-9 3 -13 12 -10 23l154 529h37l-159 -538c-3 -11 -13 -17 -22 -14z" />
    <glyph glyph-name="Wcircumflex" unicode="&#x174;" horiz-adv-x="1020" 
d="M249 0l-213 720h37l213 -720h-37zM734 0l-224 682l-159 -501c-3 -10 -13 -16 -22 -13s-14 13 -11 24l168 528h48l237 -720h-37zM803 168c-9 3 -13 12 -10 23l154 529h37l-159 -538c-3 -11 -13 -17 -22 -14zM374 800l115 145h40l116 -145h-40l-96 118l-95 -118h-40z" />
    <glyph glyph-name="X" unicode="X" horiz-adv-x="655" 
d="M574 0l-538 720h45l538 -720h-45zM234 264c7 10 19 12 27 6c8 -7 8 -17 2 -26l-182 -244h-45zM394 450c-8 7 -8 17 -2 26l182 244h45l-198 -264c-7 -10 -19 -12 -27 -6z" />
    <glyph glyph-name="Y" unicode="Y" horiz-adv-x="661" 
d="M312 0v360l-276 360h45l268 -348v-372h-37zM404 462c-8 7 -6 18 0 26l176 232h45l-193 -253c-7 -9 -20 -12 -28 -5z" />
    <glyph glyph-name="Yacute" unicode="&#xdd;" horiz-adv-x="661" 
d="M312 0v360l-276 360h45l268 -348v-372h-37zM404 462c-8 7 -6 18 0 26l176 232h45l-193 -253c-7 -9 -20 -12 -28 -5zM311 800l70 145h41l-72 -145h-39z" />
    <glyph glyph-name="Ycircumflex" unicode="&#x176;" horiz-adv-x="661" 
d="M312 0v360l-276 360h45l268 -348v-372h-37zM404 462c-8 7 -6 18 0 26l176 232h45l-193 -253c-7 -9 -20 -12 -28 -5zM195 800l115 145h40l116 -145h-40l-96 118l-95 -118h-40z" />
    <glyph glyph-name="Ydieresis" unicode="&#x178;" horiz-adv-x="661" 
d="M312 0v360l-276 360h45l268 -348v-372h-37zM404 462c-8 7 -6 18 0 26l176 232h45l-193 -253c-7 -9 -20 -12 -28 -5zM431 852c-17 0 -31 14 -31 31s14 31 31 31s31 -14 31 -31s-14 -31 -31 -31zM231 852c-17 0 -31 14 -31 31s14 31 31 31s31 -14 31 -31s-14 -31 -31 -31z
" />
    <glyph glyph-name="Z" unicode="Z" horiz-adv-x="647" 
d="M72 0v28l390 560c6 8 17 11 25 5s9 -16 3 -25l-373 -535h458v-33h-503zM82 687v33h483v-33h-483z" />
    <glyph glyph-name="Zacute" unicode="&#x179;" horiz-adv-x="647" 
d="M72 0v28l390 560c6 8 17 11 25 5s9 -16 3 -25l-373 -535h458v-33h-503zM82 687v33h483v-33h-483zM313 800l70 145h41l-72 -145h-39z" />
    <glyph glyph-name="Zcaron" unicode="&#x17d;" horiz-adv-x="647" 
d="M72 0v28l390 560c6 8 17 11 25 5s9 -16 3 -25l-373 -535h458v-33h-503zM82 687v33h483v-33h-483zM312 800l-115 145h40l95 -118l96 118h40l-116 -145h-40z" />
    <glyph glyph-name="Zdotaccent" unicode="&#x17b;" horiz-adv-x="647" 
d="M72 0v28l390 560c6 8 17 11 25 5s9 -16 3 -25l-373 -535h458v-33h-503zM82 687v33h483v-33h-483zM333 863c-20 0 -37 17 -37 37s17 37 37 37s37 -17 37 -37s-17 -37 -37 -37z" />
    <glyph glyph-name="a" unicode="a" horiz-adv-x="542" 
d="M223 -15c-79 0 -158 42 -158 140c0 100 81 157 186 173l47 7c12 2 20 -3 22 -12c2 -10 -5 -18 -18 -20l-44 -7c-93 -15 -156 -64 -156 -141c0 -63 49 -107 121 -107c95 0 183 77 183 218v108c0 112 -73 148 -142 148c-82 0 -148 -51 -155 -128h-37c5 99 91 161 192 161
c91 0 179 -53 179 -172v-198v-155h-37v102c-37 -74 -103 -117 -183 -117z" />
    <glyph glyph-name="aacute" unicode="&#xe1;" horiz-adv-x="542" 
d="M223 -15c-79 0 -158 42 -158 140c0 100 81 157 186 173l47 7c12 2 20 -3 22 -12c2 -10 -5 -18 -18 -20l-44 -7c-93 -15 -156 -64 -156 -141c0 -63 49 -107 121 -107c95 0 183 77 183 218v108c0 112 -73 148 -142 148c-82 0 -148 -51 -155 -128h-37c5 99 91 161 192 161
c91 0 179 -53 179 -172v-198v-155h-37v102c-37 -74 -103 -117 -183 -117zM238 590l70 145h41l-72 -145h-39z" />
    <glyph glyph-name="abreve" unicode="&#x103;" horiz-adv-x="542" 
d="M223 -15c-79 0 -158 42 -158 140c0 100 81 157 186 173l47 7c12 2 20 -3 22 -12c2 -10 -5 -18 -18 -20l-44 -7c-93 -15 -156 -64 -156 -141c0 -63 49 -107 121 -107c95 0 183 77 183 218v108c0 112 -73 148 -142 148c-82 0 -148 -51 -155 -128h-37c5 99 91 161 192 161
c91 0 179 -53 179 -172v-198v-155h-37v102c-37 -74 -103 -117 -183 -117zM258 585c-64 0 -116 44 -116 115h32c0 -53 38 -83 84 -83s84 30 84 83h32c0 -71 -52 -115 -116 -115z" />
    <glyph glyph-name="acircumflex" unicode="&#xe2;" horiz-adv-x="542" 
d="M223 -15c-79 0 -158 42 -158 140c0 100 81 157 186 173l47 7c12 2 20 -3 22 -12c2 -10 -5 -18 -18 -20l-44 -7c-93 -15 -156 -64 -156 -141c0 -63 49 -107 121 -107c95 0 183 77 183 218v108c0 112 -73 148 -142 148c-82 0 -148 -51 -155 -128h-37c5 99 91 161 192 161
c91 0 179 -53 179 -172v-198v-155h-37v102c-37 -74 -103 -117 -183 -117zM122 590l115 145h40l116 -145h-40l-96 118l-95 -118h-40z" />
    <glyph glyph-name="adieresis" unicode="&#xe4;" horiz-adv-x="542" 
d="M223 -15c-79 0 -158 42 -158 140c0 100 81 157 186 173l47 7c12 2 20 -3 22 -12c2 -10 -5 -18 -18 -20l-44 -7c-93 -15 -156 -64 -156 -141c0 -63 49 -107 121 -107c95 0 183 77 183 218v108c0 112 -73 148 -142 148c-82 0 -148 -51 -155 -128h-37c5 99 91 161 192 161
c91 0 179 -53 179 -172v-198v-155h-37v102c-37 -74 -103 -117 -183 -117zM358 642c-17 0 -31 14 -31 31s14 31 31 31s31 -14 31 -31s-14 -31 -31 -31zM158 642c-17 0 -31 14 -31 31s14 31 31 31s31 -14 31 -31s-14 -31 -31 -31z" />
    <glyph glyph-name="agrave" unicode="&#xe0;" horiz-adv-x="542" 
d="M223 -15c-79 0 -158 42 -158 140c0 100 81 157 186 173l47 7c12 2 20 -3 22 -12c2 -10 -5 -18 -18 -20l-44 -7c-93 -15 -156 -64 -156 -141c0 -63 49 -107 121 -107c95 0 183 77 183 218v108c0 112 -73 148 -142 148c-82 0 -148 -51 -155 -128h-37c5 99 91 161 192 161
c91 0 179 -53 179 -172v-198v-155h-37v102c-37 -74 -103 -117 -183 -117zM278 590h-39l-72 145h41z" />
    <glyph glyph-name="amacron" unicode="&#x101;" horiz-adv-x="542" 
d="M223 -15c-79 0 -158 42 -158 140c0 100 81 157 186 173l47 7c12 2 20 -3 22 -12c2 -10 -5 -18 -18 -20l-44 -7c-93 -15 -156 -64 -156 -141c0 -63 49 -107 121 -107c95 0 183 77 183 218v108c0 112 -73 148 -142 148c-82 0 -148 -51 -155 -128h-37c5 99 91 161 192 161
c91 0 179 -53 179 -172v-198v-155h-37v102c-37 -74 -103 -117 -183 -117zM127 657v33h262v-33h-262z" />
    <glyph glyph-name="aogonek" unicode="&#x105;" horiz-adv-x="542" 
d="M223 -15c-79 0 -158 42 -158 140c0 100 81 157 186 173l47 7c12 2 20 -3 22 -12c2 -10 -5 -18 -18 -20l-44 -7c-93 -15 -156 -64 -156 -141c0 -63 49 -107 121 -107c95 0 183 77 183 218v108c0 112 -73 148 -142 148c-82 0 -148 -51 -155 -128h-37c5 99 91 161 192 161
c91 0 179 -53 179 -172v-198v-155c-52 -31 -93 -68 -93 -121c0 -41 33 -54 64 -54c6 0 19 1 29 5v-30c-11 -4 -24 -5 -36 -5c-45 0 -92 26 -92 84c0 52 35 88 96 121h-5v102c-37 -74 -103 -117 -183 -117z" />
    <glyph glyph-name="aring" unicode="&#xe5;" horiz-adv-x="542" 
d="M223 -15c-79 0 -158 42 -158 140c0 100 81 157 186 173l47 7c12 2 20 -3 22 -12c2 -10 -5 -18 -18 -20l-44 -7c-93 -15 -156 -64 -156 -141c0 -63 49 -107 121 -107c95 0 183 77 183 218v108c0 112 -73 148 -142 148c-82 0 -148 -51 -155 -128h-37c5 99 91 161 192 161
c91 0 179 -53 179 -172v-198v-155h-37v102c-37 -74 -103 -117 -183 -117zM201 654c10 -22 30 -39 57 -39c35 0 62 29 62 64s-27 64 -62 64c-23 0 -42 -13 -51 -28c-5 -8 -12 -11 -17 -11c-13 0 -19 13 -12 26c16 28 46 43 80 43c53 0 94 -41 94 -94s-41 -94 -94 -94
c-45 0 -81 28 -91 69h34z" />
    <glyph glyph-name="atilde" unicode="&#xe3;" horiz-adv-x="542" 
d="M223 -15c-79 0 -158 42 -158 140c0 100 81 157 186 173l47 7c12 2 20 -3 22 -12c2 -10 -5 -18 -18 -20l-44 -7c-93 -15 -156 -64 -156 -141c0 -63 49 -107 121 -107c95 0 183 77 183 218v108c0 112 -73 148 -142 148c-82 0 -148 -51 -155 -128h-37c5 99 91 161 192 161
c91 0 179 -53 179 -172v-198v-155h-37v102c-37 -74 -103 -117 -183 -117zM316 585c-35 0 -55 22 -75 44c-17 20 -31 32 -51 32c-29 0 -44 -20 -43 -61h-35c-1 59 31 94 78 94c34 0 55 -21 75 -43c18 -21 31 -33 51 -33c30 0 45 21 45 62h33c1 -59 -30 -95 -78 -95z" />
    <glyph glyph-name="ae" unicode="&#xe6;" horiz-adv-x="931" 
d="M230 -15c-86 0 -165 42 -165 140c0 100 81 162 186 173l67 7c12 1 20 -3 22 -12c2 -10 -5 -19 -18 -20l-64 -7c-93 -10 -156 -64 -156 -141c0 -63 49 -107 128 -107c108 0 196 77 196 218v98c0 112 -70 158 -159 158c-82 0 -151 -51 -158 -128h-37c5 99 94 161 195 161
c96 0 168 -48 187 -137c39 86 114 137 203 137c142 0 223 -127 207 -268h-285c-10 0 -18 8 -18 17s8 16 18 16h251c0 127 -80 202 -173 202c-108 0 -194 -88 -194 -238c0 -155 88 -236 187 -236c83 0 149 50 171 128h37c-23 -103 -111 -161 -206 -161s-174 59 -207 158
c-31 -101 -116 -158 -215 -158z" />
    <glyph glyph-name="b" unicode="b" horiz-adv-x="613" 
d="M324 -15c-85 0 -156 48 -188 126v-111h-37v745h37v-346c32 78 103 126 188 126c122 0 212 -90 224 -222h-37c-11 113 -86 189 -187 189c-113 0 -187 -94 -187 -237s74 -237 187 -237c94 0 169 68 186 171c3 19 9 27 20 27c14 0 18 -14 16 -28
c-18 -127 -106 -203 -222 -203z" />
    <glyph glyph-name="c" unicode="c" horiz-adv-x="588" 
d="M86 294c-12 0 -18 10 -16 29c13 118 114 202 243 202c113 0 199 -63 216 -158h-37c-17 76 -87 125 -179 125c-108 0 -193 -74 -209 -181c-1 -10 -8 -17 -18 -17zM313 -15c-133 0 -234 91 -248 222h37c15 -110 103 -189 211 -189c91 0 164 55 179 136h37
c-17 -100 -104 -169 -216 -169z" />
    <glyph glyph-name="cacute" unicode="&#x107;" horiz-adv-x="588" 
d="M86 294c-12 0 -18 10 -16 29c13 118 114 202 243 202c113 0 199 -63 216 -158h-37c-17 76 -87 125 -179 125c-108 0 -193 -74 -209 -181c-1 -10 -8 -17 -18 -17zM313 -15c-133 0 -234 91 -248 222h37c15 -110 103 -189 211 -189c91 0 164 55 179 136h37
c-17 -100 -104 -169 -216 -169zM293 590l70 145h41l-72 -145h-39z" />
    <glyph glyph-name="ccaron" unicode="&#x10d;" horiz-adv-x="588" 
d="M86 294c-12 0 -18 10 -16 29c13 118 114 202 243 202c113 0 199 -63 216 -158h-37c-17 76 -87 125 -179 125c-108 0 -193 -74 -209 -181c-1 -10 -8 -17 -18 -17zM313 -15c-133 0 -234 91 -248 222h37c15 -110 103 -189 211 -189c91 0 164 55 179 136h37
c-17 -100 -104 -169 -216 -169zM292 590l-115 145h40l95 -118l96 118h40l-116 -145h-40z" />
    <glyph glyph-name="ccedilla" unicode="&#xe7;" horiz-adv-x="588" 
d="M86 294c-12 0 -18 10 -16 29c13 118 114 202 243 202c113 0 199 -63 216 -158h-37c-17 76 -87 125 -179 125c-108 0 -193 -74 -209 -181c-1 -10 -8 -17 -18 -17zM307 -205c-47 0 -76 32 -74 66h29c-1 -20 18 -40 45 -40c29 0 46 19 46 46c0 25 -17 46 -44 46
c-14 0 -25 -6 -34 -13l-21 17l35 69c-121 10 -211 98 -224 221h37c15 -110 103 -189 211 -189c91 0 164 55 179 136h37c-17 -98 -100 -166 -208 -169l-24 -48c4 1 9 2 14 2c41 0 71 -32 71 -72c0 -41 -28 -72 -75 -72z" />
    <glyph glyph-name="ccircumflex" unicode="&#x109;" horiz-adv-x="588" 
d="M86 294c-12 0 -18 10 -16 29c13 118 114 202 243 202c113 0 199 -63 216 -158h-37c-17 76 -87 125 -179 125c-108 0 -193 -74 -209 -181c-1 -10 -8 -17 -18 -17zM313 -15c-133 0 -234 91 -248 222h37c15 -110 103 -189 211 -189c91 0 164 55 179 136h37
c-17 -100 -104 -169 -216 -169zM177 590l115 145h40l116 -145h-40l-96 118l-95 -118h-40z" />
    <glyph glyph-name="cdotaccent" unicode="&#x10b;" horiz-adv-x="588" 
d="M86 294c-12 0 -18 10 -16 29c13 118 114 202 243 202c113 0 199 -63 216 -158h-37c-17 76 -87 125 -179 125c-108 0 -193 -74 -209 -181c-1 -10 -8 -17 -18 -17zM313 -15c-133 0 -234 91 -248 222h37c15 -110 103 -189 211 -189c91 0 164 55 179 136h37
c-17 -100 -104 -169 -216 -169zM313 653c-20 0 -37 17 -37 37s17 37 37 37s37 -17 37 -37s-17 -37 -37 -37z" />
    <glyph glyph-name="d" unicode="d" horiz-adv-x="612" 
d="M289 -15c-122 0 -212 90 -224 222h37c11 -113 86 -189 187 -189c113 0 187 94 187 237s-74 237 -187 237c-97 0 -169 -69 -187 -181c-2 -11 -8 -17 -17 -17c-13 0 -19 11 -16 30c18 118 108 201 220 201c85 0 154 -46 187 -125v345h37v-745h-37v110
c-33 -79 -102 -125 -187 -125z" />
    <glyph glyph-name="dcaron" unicode="&#x10f;" horiz-adv-x="612" 
d="M289 -15c-122 0 -212 90 -224 222h37c11 -113 86 -189 187 -189c113 0 187 94 187 237s-74 237 -187 237c-97 0 -169 -69 -187 -181c-2 -11 -8 -17 -17 -17c-13 0 -19 11 -16 30c18 118 108 201 220 201c85 0 154 -46 187 -125v345h37v-745h-37v110
c-33 -79 -102 -125 -187 -125zM640 559l47 126c-18 2 -29 14 -29 33c0 18 13 32 35 32c20 0 33 -14 33 -32c0 -9 -2 -16 -8 -32l-48 -127h-30z" />
    <glyph glyph-name="dcroat" unicode="&#x111;" horiz-adv-x="613" 
d="M289 -15c-117 0 -212 85 -224 222h37c11 -116 88 -189 187 -189c108 0 187 88 187 237s-79 237 -187 237c-97 0 -172 -69 -186 -181c-2 -10 -9 -17 -19 -17s-17 8 -17 19c0 64 67 212 222 212c105 0 163 -65 188 -126v92c0 10 8 18 19 18c10 0 18 -8 18 -18v-491h-37v111
c-25 -61 -83 -126 -188 -126zM339 600v33h138v112h37v-112h100v-33h-275z" />
    <glyph glyph-name="eth" unicode="&#xf0;" horiz-adv-x="597" 
d="M103 192c7 -109 100 -174 192 -174c102 0 195 76 195 217s-93 217 -195 217c-89 0 -171 -58 -190 -156c-2 -12 -9 -17 -19 -17c-11 0 -20 8 -17 24c22 113 120 182 229 182c77 0 157 -34 197 -129c-13 82 -39 190 -131 267l-129 -75l-17 29l117 68
c-49 32 -114 57 -200 67v33c101 -11 177 -40 234 -81l87 50l17 -28l-76 -44c112 -100 135 -250 135 -371c0 -196 -109 -286 -234 -286c-117 0 -224 78 -233 207h38z" />
    <glyph glyph-name="e" unicode="e" horiz-adv-x="590" 
d="M301 -15c-137 0 -236 113 -236 269s102 271 241 271c138 0 234 -119 217 -268h-305c-10 0 -18 8 -18 17s8 16 18 16h270c-1 116 -76 202 -182 202c-120 0 -204 -98 -204 -238c0 -139 81 -236 197 -236c87 0 159 51 181 128h37c-21 -95 -109 -161 -216 -161z" />
    <glyph glyph-name="eacute" unicode="&#xe9;" horiz-adv-x="590" 
d="M301 -15c-137 0 -236 113 -236 269s102 271 241 271c138 0 234 -119 217 -268h-305c-10 0 -18 8 -18 17s8 16 18 16h270c-1 116 -76 202 -182 202c-120 0 -204 -98 -204 -238c0 -139 81 -236 197 -236c87 0 159 51 181 128h37c-21 -95 -109 -161 -216 -161zM274 590
l70 145h41l-72 -145h-39z" />
    <glyph glyph-name="ebreve" unicode="&#x115;" horiz-adv-x="590" 
d="M301 -15c-137 0 -236 113 -236 269s102 271 241 271c138 0 234 -119 217 -268h-305c-10 0 -18 8 -18 17s8 16 18 16h270c-1 116 -76 202 -182 202c-120 0 -204 -98 -204 -238c0 -139 81 -236 197 -236c87 0 159 51 181 128h37c-21 -95 -109 -161 -216 -161zM294 585
c-64 0 -116 44 -116 115h32c0 -53 38 -83 84 -83s84 30 84 83h32c0 -71 -52 -115 -116 -115z" />
    <glyph glyph-name="ecaron" unicode="&#x11b;" horiz-adv-x="590" 
d="M301 -15c-137 0 -236 113 -236 269s102 271 241 271c138 0 234 -119 217 -268h-305c-10 0 -18 8 -18 17s8 16 18 16h270c-1 116 -76 202 -182 202c-120 0 -204 -98 -204 -238c0 -139 81 -236 197 -236c87 0 159 51 181 128h37c-21 -95 -109 -161 -216 -161zM273 590
l-115 145h40l95 -118l96 118h40l-116 -145h-40z" />
    <glyph glyph-name="ecircumflex" unicode="&#xea;" horiz-adv-x="590" 
d="M301 -15c-137 0 -236 113 -236 269s102 271 241 271c138 0 234 -119 217 -268h-305c-10 0 -18 8 -18 17s8 16 18 16h270c-1 116 -76 202 -182 202c-120 0 -204 -98 -204 -238c0 -139 81 -236 197 -236c87 0 159 51 181 128h37c-21 -95 -109 -161 -216 -161zM158 590
l115 145h40l116 -145h-40l-96 118l-95 -118h-40z" />
    <glyph glyph-name="edieresis" unicode="&#xeb;" horiz-adv-x="590" 
d="M301 -15c-137 0 -236 113 -236 269s102 271 241 271c138 0 234 -119 217 -268h-305c-10 0 -18 8 -18 17s8 16 18 16h270c-1 116 -76 202 -182 202c-120 0 -204 -98 -204 -238c0 -139 81 -236 197 -236c87 0 159 51 181 128h37c-21 -95 -109 -161 -216 -161zM394 642
c-17 0 -31 14 -31 31s14 31 31 31s31 -14 31 -31s-14 -31 -31 -31zM194 642c-17 0 -31 14 -31 31s14 31 31 31s31 -14 31 -31s-14 -31 -31 -31z" />
    <glyph glyph-name="edotaccent" unicode="&#x117;" horiz-adv-x="590" 
d="M301 -15c-137 0 -236 113 -236 269s102 271 241 271c138 0 234 -119 217 -268h-305c-10 0 -18 8 -18 17s8 16 18 16h270c-1 116 -76 202 -182 202c-120 0 -204 -98 -204 -238c0 -139 81 -236 197 -236c87 0 159 51 181 128h37c-21 -95 -109 -161 -216 -161zM294 653
c-20 0 -37 17 -37 37s17 37 37 37s37 -17 37 -37s-17 -37 -37 -37z" />
    <glyph glyph-name="egrave" unicode="&#xe8;" horiz-adv-x="590" 
d="M301 -15c-137 0 -236 113 -236 269s102 271 241 271c138 0 234 -119 217 -268h-305c-10 0 -18 8 -18 17s8 16 18 16h270c-1 116 -76 202 -182 202c-120 0 -204 -98 -204 -238c0 -139 81 -236 197 -236c87 0 159 51 181 128h37c-21 -95 -109 -161 -216 -161zM314 590h-39
l-72 145h41z" />
    <glyph glyph-name="emacron" unicode="&#x113;" horiz-adv-x="590" 
d="M301 -15c-137 0 -236 113 -236 269s102 271 241 271c138 0 234 -119 217 -268h-305c-10 0 -18 8 -18 17s8 16 18 16h270c-1 116 -76 202 -182 202c-120 0 -204 -98 -204 -238c0 -139 81 -236 197 -236c87 0 159 51 181 128h37c-21 -95 -109 -161 -216 -161zM163 657v33
h262v-33h-262z" />
    <glyph glyph-name="eogonek" unicode="&#x119;" horiz-adv-x="590" 
d="M301 -15c-137 0 -236 113 -236 269s102 271 241 271c138 0 234 -119 217 -268h-305c-10 0 -18 8 -18 17s8 16 18 16h270c-1 116 -76 202 -182 202c-120 0 -204 -98 -204 -238c0 -139 81 -236 197 -236c87 0 159 51 181 128h37c-15 -70 -67 -124 -136 -148
c-51 -31 -90 -67 -90 -119c0 -41 33 -54 64 -54c6 0 19 1 29 5v-30c-11 -4 -24 -5 -36 -5c-45 0 -92 26 -92 84c0 45 26 78 72 107c-9 -1 -18 -1 -27 -1z" />
    <glyph glyph-name="f" unicode="f" horiz-adv-x="354" 
d="M133 602c0 97 55 158 144 158c15 0 32 -3 52 -8v-34c-18 5 -35 7 -52 7c-68 0 -107 -45 -107 -123v-92h138v-33h-275v33h100v92zM133 372c0 10 8 18 19 18c10 0 18 -8 18 -18v-372h-37v372z" />
    <glyph glyph-name="g" unicode="g" horiz-adv-x="529" 
d="M275 -205c-148 0 -216 62 -216 140c0 22 5 65 27 65c8 0 15 -6 15 -16c0 -11 -7 -28 -7 -49c0 -66 70 -107 182 -107c119 0 190 46 190 123c0 56 -42 91 -114 95l-140 8c-90 5 -139 41 -139 100c0 40 29 81 69 104c-22 27 -35 62 -35 101c0 32 18 86 41 86
c9 0 15 -7 15 -15c0 -14 -19 -37 -19 -70c0 -83 64 -132 147 -132c78 0 143 49 143 132s-65 132 -143 132c-30 0 -42 -12 -58 -12c-12 0 -17 7 -17 14c0 23 44 31 74 31c47 0 88 -14 119 -38l99 122l29 -25l-107 -116c26 -28 41 -66 41 -109c0 -96 -77 -164 -181 -164
c-51 0 -95 15 -127 42c-33 -18 -55 -48 -55 -80c0 -41 37 -66 101 -70l153 -8c86 -4 141 -56 141 -132c0 -94 -87 -152 -228 -152z" />
    <glyph glyph-name="gbreve" unicode="&#x11f;" horiz-adv-x="529" 
d="M275 -205c-148 0 -216 62 -216 140c0 22 5 65 27 65c8 0 15 -6 15 -16c0 -11 -7 -28 -7 -49c0 -66 70 -107 182 -107c119 0 190 46 190 123c0 56 -42 91 -114 95l-140 8c-90 5 -139 41 -139 100c0 40 29 81 69 104c-22 27 -35 62 -35 101c0 32 18 86 41 86
c9 0 15 -7 15 -15c0 -14 -19 -37 -19 -70c0 -83 64 -132 147 -132c78 0 143 49 143 132s-65 132 -143 132c-30 0 -42 -12 -58 -12c-12 0 -17 7 -17 14c0 23 44 31 74 31c47 0 88 -14 119 -38l99 122l29 -25l-107 -116c26 -28 41 -66 41 -109c0 -96 -77 -164 -181 -164
c-51 0 -95 15 -127 42c-33 -18 -55 -48 -55 -80c0 -41 37 -66 101 -70l153 -8c86 -4 141 -56 141 -132c0 -94 -87 -152 -228 -152zM290 585c-64 0 -116 44 -116 115h32c0 -53 38 -83 84 -83s84 30 84 83h32c0 -71 -52 -115 -116 -115z" />
    <glyph glyph-name="gcircumflex" unicode="&#x11d;" horiz-adv-x="529" 
d="M275 -205c-148 0 -216 62 -216 140c0 22 5 65 27 65c8 0 15 -6 15 -16c0 -11 -7 -28 -7 -49c0 -66 70 -107 182 -107c119 0 190 46 190 123c0 56 -42 91 -114 95l-140 8c-90 5 -139 41 -139 100c0 40 29 81 69 104c-22 27 -35 62 -35 101c0 32 18 86 41 86
c9 0 15 -7 15 -15c0 -14 -19 -37 -19 -70c0 -83 64 -132 147 -132c78 0 143 49 143 132s-65 132 -143 132c-30 0 -42 -12 -58 -12c-12 0 -17 7 -17 14c0 23 44 31 74 31c47 0 88 -14 119 -38l99 122l29 -25l-107 -116c26 -28 41 -66 41 -109c0 -96 -77 -164 -181 -164
c-51 0 -95 15 -127 42c-33 -18 -55 -48 -55 -80c0 -41 37 -66 101 -70l153 -8c86 -4 141 -56 141 -132c0 -94 -87 -152 -228 -152zM154 590l115 145h40l116 -145h-40l-96 118l-95 -118h-40z" />
    <glyph glyph-name="uni0123" unicode="&#x123;" horiz-adv-x="529" 
d="M275 -205c-148 0 -216 62 -216 140c0 22 5 65 27 65c8 0 15 -6 15 -16c0 -11 -7 -28 -7 -49c0 -66 70 -107 182 -107c119 0 190 46 190 123c0 56 -42 91 -114 95l-140 8c-90 5 -139 41 -139 100c0 40 29 81 69 104c-22 27 -35 62 -35 101c0 32 18 86 41 86
c9 0 15 -7 15 -15c0 -14 -19 -37 -19 -70c0 -83 64 -132 147 -132c78 0 143 49 143 132s-65 132 -143 132c-30 0 -42 -12 -58 -12c-12 0 -17 7 -17 14c0 23 44 31 74 31c47 0 88 -14 119 -38l99 122l29 -25l-107 -116c26 -28 41 -66 41 -109c0 -96 -77 -164 -181 -164
c-51 0 -95 15 -127 42c-33 -18 -55 -48 -55 -80c0 -41 37 -66 101 -70l153 -8c86 -4 141 -56 141 -132c0 -94 -87 -152 -228 -152zM289 600c-20 0 -33 14 -33 32c0 9 1 16 8 32l43 97h30l-41 -96c18 -3 28 -15 28 -33s-13 -32 -35 -32z" />
    <glyph glyph-name="gdotaccent" unicode="&#x121;" horiz-adv-x="529" 
d="M275 -205c-148 0 -216 62 -216 140c0 22 5 65 27 65c8 0 15 -6 15 -16c0 -11 -7 -28 -7 -49c0 -66 70 -107 182 -107c119 0 190 46 190 123c0 56 -42 91 -114 95l-140 8c-90 5 -139 41 -139 100c0 40 29 81 69 104c-22 27 -35 62 -35 101c0 32 18 86 41 86
c9 0 15 -7 15 -15c0 -14 -19 -37 -19 -70c0 -83 64 -132 147 -132c78 0 143 49 143 132s-65 132 -143 132c-30 0 -42 -12 -58 -12c-12 0 -17 7 -17 14c0 23 44 31 74 31c47 0 88 -14 119 -38l99 122l29 -25l-107 -116c26 -28 41 -66 41 -109c0 -96 -77 -164 -181 -164
c-51 0 -95 15 -127 42c-33 -18 -55 -48 -55 -80c0 -41 37 -66 101 -70l153 -8c86 -4 141 -56 141 -132c0 -94 -87 -152 -228 -152zM290 653c-20 0 -37 17 -37 37s17 37 37 37s37 -17 37 -37s-17 -37 -37 -37z" />
    <glyph glyph-name="h" unicode="h" horiz-adv-x="593" 
d="M457 335c0 94 -57 157 -142 157c-99 0 -179 -79 -179 -175v-59c0 -10 -8 -18 -19 -18c-10 0 -18 8 -18 18v487h37v-322c30 60 105 102 180 102c108 0 178 -73 178 -186v-339h-37v335zM99 132c0 10 8 18 19 18c10 0 18 -8 18 -18v-132h-37v132z" />
    <glyph glyph-name="hbar" unicode="&#x127;" horiz-adv-x="593" 
d="M457 335c0 89 -52 157 -142 157c-96 0 -179 -76 -179 -175v-59c0 -10 -8 -18 -19 -18c-10 0 -18 8 -18 18v233c0 10 8 18 19 18c10 0 18 -8 18 -18v-68c22 43 82 102 180 102c117 0 178 -83 178 -186v-339h-37v335zM99 132c0 10 8 18 19 18c10 0 18 -8 18 -18v-132h-37
v132zM-19 600v33h118v112h37v-112h120v-33h-275z" />
    <glyph glyph-name="hcircumflex" unicode="&#x125;" horiz-adv-x="593" 
d="M457 335c0 94 -57 157 -142 157c-99 0 -179 -79 -179 -175v-59c0 -10 -8 -18 -19 -18c-10 0 -18 8 -18 18v487h37v-322c30 60 105 102 180 102c108 0 178 -73 178 -186v-339h-37v335zM99 132c0 10 8 18 19 18c10 0 18 -8 18 -18v-132h-37v132zM-18 825l115 145h40
l116 -145h-40l-96 118l-95 -118h-40z" />
    <glyph glyph-name="i" unicode="i" 
d="M99 0v510h37v-510h-37zM118 653c-20 0 -37 17 -37 37s17 37 37 37s37 -17 37 -37s-17 -37 -37 -37z" />
    <glyph glyph-name="dotlessi" unicode="&#x131;" 
d="M99 0v510h37v-510h-37z" />
    <glyph glyph-name="iacute" unicode="&#xed;" 
d="M99 0v510h37v-510h-37zM98 590l70 145h41l-72 -145h-39z" />
    <glyph glyph-name="ibreve" unicode="&#x12d;" 
d="M99 0v510h37v-510h-37zM118 585c-64 0 -116 44 -116 115h32c0 -53 38 -83 84 -83s84 30 84 83h32c0 -71 -52 -115 -116 -115z" />
    <glyph glyph-name="icircumflex" unicode="&#xee;" 
d="M99 0v510h37v-510h-37zM-18 590l115 145h40l116 -145h-40l-96 118l-95 -118h-40z" />
    <glyph glyph-name="idieresis" unicode="&#xef;" 
d="M99 0v510h37v-510h-37zM218 642c-17 0 -31 14 -31 31s14 31 31 31s31 -14 31 -31s-14 -31 -31 -31zM18 642c-17 0 -31 14 -31 31s14 31 31 31s31 -14 31 -31s-14 -31 -31 -31z" />
    <glyph glyph-name="igrave" unicode="&#xec;" 
d="M99 0v510h37v-510h-37zM138 590h-39l-72 145h41z" />
    <glyph glyph-name="imacron" unicode="&#x12b;" 
d="M99 0v510h37v-510h-37zM13 657v33h209v-33h-209z" />
    <glyph glyph-name="iogonek" unicode="&#x12f;" 
d="M99 0v510h37v-510c-52 -31 -93 -68 -93 -121c0 -41 33 -54 64 -54c6 0 19 1 29 5v-30c-11 -4 -24 -5 -36 -5c-45 0 -92 26 -92 84c0 52 35 88 96 121h-5zM118 653c-20 0 -37 17 -37 37s17 37 37 37s37 -17 37 -37s-17 -37 -37 -37z" />
    <glyph glyph-name="itilde" unicode="&#x129;" 
d="M99 0v510h37v-510h-37zM176 585c-35 0 -55 22 -75 44c-17 20 -31 32 -51 32c-29 0 -44 -20 -43 -61h-35c-1 59 31 94 78 94c34 0 55 -21 75 -43c18 -21 31 -33 51 -33c30 0 45 21 45 62h33c1 -59 -30 -95 -78 -95z" />
    <glyph glyph-name="j" unicode="j" 
d="M13 -205c-16 0 -30 2 -43 5v34c14 -3 27 -4 41 -4c56 0 88 41 88 115v247c0 10 8 18 19 18c10 0 18 -8 18 -18v-246c0 -96 -45 -151 -123 -151zM117 300c-10 0 -18 8 -18 18v192h37v-192c0 -10 -8 -18 -19 -18zM118 653c-20 0 -37 17 -37 37s17 37 37 37s37 -17 37 -37
s-17 -37 -37 -37z" />
    <glyph glyph-name="jcircumflex" unicode="&#x135;" 
d="M13 -205c-16 0 -30 2 -43 5v34c14 -3 27 -4 41 -4c56 0 88 41 88 115v247c0 10 8 18 19 18c10 0 18 -8 18 -18v-246c0 -96 -45 -151 -123 -151zM117 300c-10 0 -18 8 -18 18v192h37v-192c0 -10 -8 -18 -19 -18zM-18 590l115 145h40l116 -145h-40l-96 118l-95 -118h-40z
" />
    <glyph glyph-name="k" unicode="k" horiz-adv-x="548" 
d="M99 0v168l346 342h52l-361 -355v-155h-37zM117 303c-10 0 -18 8 -18 18v424h37v-424c0 -10 -8 -18 -19 -18zM316 203c-6 9 -5 19 2 26c8 6 19 4 27 -6l167 -223h-45z" />
    <glyph glyph-name="uni0137" unicode="&#x137;" horiz-adv-x="548" 
d="M99 0v168l346 342h52l-361 -355v-155h-37zM117 303c-10 0 -18 8 -18 18v424h37v-424c0 -10 -8 -18 -19 -18zM316 203c-6 9 -5 19 2 26c8 6 19 4 27 -6l167 -223h-45zM250 -231l42 99c-19 3 -30 15 -30 34c0 18 13 32 35 32c20 0 33 -14 33 -32c0 -9 -1 -16 -8 -32
l-43 -101h-29z" />
    <glyph glyph-name="kgreenlandic" unicode="&#x138;" horiz-adv-x="548" 
d="M99 0v168l346 342h52l-361 -355v-155h-37zM316 203c-6 9 -5 19 2 26c9 7 20 3 27 -6l167 -223h-45zM117 303c-10 0 -18 8 -18 18v189h37v-189c0 -10 -8 -18 -19 -18z" />
    <glyph glyph-name="l" unicode="l" 
d="M117 405c-10 0 -18 8 -18 18v322h37v-322c0 -10 -8 -18 -19 -18zM99 297c0 10 8 18 19 18c10 0 18 -8 18 -18v-297h-37v297z" />
    <glyph glyph-name="lacute" unicode="&#x13a;" 
d="M117 405c-10 0 -18 8 -18 18v322h37v-322c0 -10 -8 -18 -19 -18zM99 297c0 10 8 18 19 18c10 0 18 -8 18 -18v-297h-37v297zM98 825l70 145h41l-72 -145h-39z" />
    <glyph glyph-name="lcaron" unicode="&#x13e;" 
d="M117 405c-10 0 -18 8 -18 18v322h37v-322c0 -10 -8 -18 -19 -18zM99 297c0 10 8 18 19 18c10 0 18 -8 18 -18v-297h-37v297zM263 559l47 126c-18 2 -29 14 -29 33c0 18 13 32 35 32c20 0 33 -14 33 -32c0 -9 -2 -16 -8 -32l-48 -127h-30z" />
    <glyph glyph-name="uni013C" unicode="&#x13c;" 
d="M117 405c-10 0 -18 8 -18 18v322h37v-322c0 -10 -8 -18 -19 -18zM99 297c0 10 8 18 19 18c10 0 18 -8 18 -18v-297h-37v297zM72 -231l42 99c-19 3 -30 15 -30 34c0 18 13 32 35 32c20 0 33 -14 33 -32c0 -9 -1 -16 -8 -32l-43 -101h-29z" />
    <glyph glyph-name="ldot" unicode="&#x140;" horiz-adv-x="316" 
d="M117 405c-10 0 -18 8 -18 18v322h37v-322c0 -10 -8 -18 -19 -18zM99 297c0 10 8 18 19 18c10 0 18 -8 18 -18v-297h-37v297zM273 337c-20 0 -37 17 -37 37s17 37 37 37s37 -17 37 -37s-17 -37 -37 -37z" />
    <glyph glyph-name="lslash" unicode="&#x142;" 
d="M99 242c0 10 8 18 19 18c10 0 18 -8 18 -18v-242h-37v242zM16 318v35l83 31v361h37v-346l83 31v-35z" />
    <glyph glyph-name="m" unicode="m" horiz-adv-x="891" 
d="M427 335c0 94 -51 157 -127 157c-91 0 -164 -78 -164 -175v-59c0 -10 -8 -18 -19 -18c-10 0 -18 8 -18 18v252h37v-86c28 59 96 101 164 101c76 0 133 -43 154 -114c22 63 99 114 174 114c99 0 164 -73 164 -186v-339h-37v335c0 94 -51 157 -127 157
c-91 0 -164 -78 -164 -175v-317h-37v335zM99 132c0 10 8 18 19 18c10 0 18 -8 18 -18v-132h-37v132z" />
    <glyph glyph-name="n" unicode="n" horiz-adv-x="593" 
d="M457 335c0 94 -57 157 -142 157c-99 0 -179 -79 -179 -175v-59c0 -10 -8 -18 -19 -18c-10 0 -18 8 -18 18v252h37v-87c30 60 105 102 180 102c108 0 178 -73 178 -186v-339h-37v335zM99 132c0 10 8 18 19 18c10 0 18 -8 18 -18v-132h-37v132z" />
    <glyph glyph-name="nacute" unicode="&#x144;" horiz-adv-x="593" 
d="M457 335c0 94 -57 157 -142 157c-99 0 -179 -79 -179 -175v-59c0 -10 -8 -18 -19 -18c-10 0 -18 8 -18 18v252h37v-87c30 60 105 102 180 102c108 0 178 -73 178 -186v-339h-37v335zM99 132c0 10 8 18 19 18c10 0 18 -8 18 -18v-132h-37v132zM277 590l70 145h41l-72 -145
h-39z" />
    <glyph glyph-name="napostrophe" unicode="&#x149;" horiz-adv-x="749" 
d="M53 533l46 120c-20 3 -34 17 -34 37s17 37 37 37s37 -17 37 -37c0 -7 -2 -14 -8 -30l-48 -127h-30zM613 335c0 94 -57 157 -142 157c-99 0 -179 -79 -179 -175v-59c0 -10 -8 -18 -19 -18c-10 0 -18 8 -18 18v252h37v-87c30 60 105 102 180 102c108 0 178 -73 178 -186
v-339h-37v335zM255 132c0 10 8 18 19 18c10 0 18 -8 18 -18v-132h-37v132z" />
    <glyph glyph-name="ncaron" unicode="&#x148;" horiz-adv-x="593" 
d="M457 335c0 94 -57 157 -142 157c-99 0 -179 -79 -179 -175v-59c0 -10 -8 -18 -19 -18c-10 0 -18 8 -18 18v252h37v-87c30 60 105 102 180 102c108 0 178 -73 178 -186v-339h-37v335zM99 132c0 10 8 18 19 18c10 0 18 -8 18 -18v-132h-37v132zM276 590l-115 145h40
l95 -118l96 118h40l-116 -145h-40z" />
    <glyph glyph-name="uni0146" unicode="&#x146;" horiz-adv-x="593" 
d="M457 335c0 94 -57 157 -142 157c-99 0 -179 -79 -179 -175v-59c0 -10 -8 -18 -19 -18c-10 0 -18 8 -18 18v252h37v-87c30 60 105 102 180 102c108 0 178 -73 178 -186v-339h-37v335zM99 132c0 10 8 18 19 18c10 0 18 -8 18 -18v-132h-37v132zM251 -231l42 99
c-19 3 -30 15 -30 34c0 18 13 32 35 32c20 0 33 -14 33 -32c0 -9 -1 -16 -8 -32l-43 -101h-29z" />
    <glyph glyph-name="ntilde" unicode="&#xf1;" horiz-adv-x="593" 
d="M457 335c0 94 -57 157 -142 157c-99 0 -179 -79 -179 -175v-59c0 -10 -8 -18 -19 -18c-10 0 -18 8 -18 18v252h37v-87c30 60 105 102 180 102c108 0 178 -73 178 -186v-339h-37v335zM99 132c0 10 8 18 19 18c10 0 18 -8 18 -18v-132h-37v132zM355 585
c-35 0 -55 22 -75 44c-17 20 -31 32 -51 32c-29 0 -44 -20 -43 -61h-35c-1 59 31 94 78 94c34 0 55 -21 75 -43c18 -21 31 -33 51 -33c30 0 45 21 45 62h33c1 -59 -30 -95 -78 -95z" />
    <glyph glyph-name="eng" unicode="&#x14b;" horiz-adv-x="593" 
d="M371 -205c-13 0 -28 1 -43 5v34c15 -3 28 -4 41 -4c46 0 88 23 88 110v395c0 94 -57 157 -142 157c-99 0 -179 -79 -179 -175v-59c0 -10 -8 -18 -19 -18c-10 0 -18 8 -18 18v252h37v-87c29 60 105 102 180 102c108 0 178 -73 178 -186v-398c0 -116 -61 -146 -123 -146z
M99 132c0 10 8 18 19 18c10 0 18 -8 18 -18v-132h-37v132z" />
    <glyph glyph-name="o" unicode="o" horiz-adv-x="618" 
d="M309 -15c-129 0 -231 92 -244 222h37c13 -110 99 -189 207 -189c121 0 207 99 207 237c0 139 -86 237 -207 237c-105 0 -189 -75 -205 -181c-2 -11 -9 -17 -18 -17c-14 0 -20 11 -16 31c21 117 119 200 239 200c144 0 244 -111 244 -270c0 -158 -101 -270 -244 -270z" />
    <glyph glyph-name="oacute" unicode="&#xf3;" horiz-adv-x="618" 
d="M309 -15c-129 0 -231 92 -244 222h37c13 -110 99 -189 207 -189c121 0 207 99 207 237c0 139 -86 237 -207 237c-105 0 -189 -75 -205 -181c-2 -11 -9 -17 -18 -17c-14 0 -20 11 -16 31c21 117 119 200 239 200c144 0 244 -111 244 -270c0 -158 -101 -270 -244 -270z
M289 590l70 145h41l-72 -145h-39z" />
    <glyph glyph-name="obreve" unicode="&#x14f;" horiz-adv-x="618" 
d="M309 -15c-129 0 -231 92 -244 222h37c13 -110 99 -189 207 -189c121 0 207 99 207 237c0 139 -86 237 -207 237c-105 0 -189 -75 -205 -181c-2 -11 -9 -17 -18 -17c-14 0 -20 11 -16 31c21 117 119 200 239 200c144 0 244 -111 244 -270c0 -158 -101 -270 -244 -270z
M309 585c-64 0 -116 44 -116 115h32c0 -53 38 -83 84 -83s84 30 84 83h32c0 -71 -52 -115 -116 -115z" />
    <glyph glyph-name="ocircumflex" unicode="&#xf4;" horiz-adv-x="618" 
d="M309 -15c-129 0 -231 92 -244 222h37c13 -110 99 -189 207 -189c121 0 207 99 207 237c0 139 -86 237 -207 237c-105 0 -189 -75 -205 -181c-2 -11 -9 -17 -18 -17c-14 0 -20 11 -16 31c21 117 119 200 239 200c144 0 244 -111 244 -270c0 -158 -101 -270 -244 -270z
M173 590l115 145h40l116 -145h-40l-96 118l-95 -118h-40z" />
    <glyph glyph-name="odieresis" unicode="&#xf6;" horiz-adv-x="618" 
d="M309 -15c-129 0 -231 92 -244 222h37c13 -110 99 -189 207 -189c121 0 207 99 207 237c0 139 -86 237 -207 237c-105 0 -189 -75 -205 -181c-2 -11 -9 -17 -18 -17c-14 0 -20 11 -16 31c21 117 119 200 239 200c144 0 244 -111 244 -270c0 -158 -101 -270 -244 -270z
M409 642c-17 0 -31 14 -31 31s14 31 31 31s31 -14 31 -31s-14 -31 -31 -31zM209 642c-17 0 -31 14 -31 31s14 31 31 31s31 -14 31 -31s-14 -31 -31 -31z" />
    <glyph glyph-name="ograve" unicode="&#xf2;" horiz-adv-x="618" 
d="M309 -15c-129 0 -231 92 -244 222h37c13 -110 99 -189 207 -189c121 0 207 99 207 237c0 139 -86 237 -207 237c-105 0 -189 -75 -205 -181c-2 -11 -9 -17 -18 -17c-14 0 -20 11 -16 31c21 117 119 200 239 200c144 0 244 -111 244 -270c0 -158 -101 -270 -244 -270z
M329 590h-39l-72 145h41z" />
    <glyph glyph-name="ohungarumlaut" unicode="&#x151;" horiz-adv-x="618" 
d="M309 -15c-129 0 -231 92 -244 222h37c13 -110 99 -189 207 -189c121 0 207 99 207 237c0 139 -86 237 -207 237c-105 0 -189 -75 -205 -181c-2 -11 -9 -17 -18 -17c-14 0 -20 11 -16 31c21 117 119 200 239 200c144 0 244 -111 244 -270c0 -158 -101 -270 -244 -270z
M369 590l60 145h42l-65 -145h-37zM211 590l60 145h42l-65 -145h-37z" />
    <glyph glyph-name="omacron" unicode="&#x14d;" horiz-adv-x="618" 
d="M309 -15c-129 0 -231 92 -244 222h37c13 -110 99 -189 207 -189c121 0 207 99 207 237c0 139 -86 237 -207 237c-105 0 -189 -75 -205 -181c-2 -11 -9 -17 -18 -17c-14 0 -20 11 -16 31c21 117 119 200 239 200c144 0 244 -111 244 -270c0 -158 -101 -270 -244 -270z
M178 657v33h262v-33h-262z" />
    <glyph glyph-name="oslash" unicode="&#xf8;" horiz-adv-x="618" 
d="M309 -15c-52 0 -100 15 -139 42l-65 -93l-28 21l65 93c-42 39 -71 95 -77 159h37c6 -52 28 -96 61 -129l194 276c6 9 18 12 26 6c8 -5 9 -17 2 -26l-195 -279c33 -23 74 -37 119 -37c121 0 207 99 207 237c0 139 -86 237 -207 237c-105 0 -189 -75 -205 -181
c-2 -11 -9 -17 -18 -17c-14 0 -20 11 -16 31c21 117 119 200 239 200c53 0 100 -15 138 -42l66 94l28 -20l-67 -96c50 -48 79 -120 79 -206c0 -158 -101 -270 -244 -270z" />
    <glyph glyph-name="otilde" unicode="&#xf5;" horiz-adv-x="618" 
d="M309 -15c-129 0 -231 92 -244 222h37c13 -110 99 -189 207 -189c121 0 207 99 207 237c0 139 -86 237 -207 237c-105 0 -189 -75 -205 -181c-2 -11 -9 -17 -18 -17c-14 0 -20 11 -16 31c21 117 119 200 239 200c144 0 244 -111 244 -270c0 -158 -101 -270 -244 -270z
M367 585c-35 0 -55 22 -75 44c-17 20 -31 32 -51 32c-29 0 -44 -20 -43 -61h-35c-1 59 31 94 78 94c34 0 55 -21 75 -43c18 -21 31 -33 51 -33c30 0 45 21 45 62h33c1 -59 -30 -95 -78 -95z" />
    <glyph glyph-name="oe" unicode="&#x153;" horiz-adv-x="1001" 
d="M299 -15c-115 0 -221 83 -234 222h37c13 -119 103 -189 197 -189c102 0 197 83 197 237s-94 237 -197 237c-92 0 -178 -67 -195 -181c-2 -10 -8 -17 -18 -17s-18 8 -18 19c0 82 87 212 231 212c96 0 181 -59 214 -166c33 103 116 166 214 166c142 0 223 -127 207 -268
h-285c-10 0 -18 8 -18 17s8 16 18 16h251c0 127 -80 202 -173 202c-108 0 -194 -88 -194 -238c0 -155 88 -236 187 -236c83 0 149 50 171 128h37c-23 -103 -111 -161 -206 -161c-97 0 -177 62 -209 165c-34 -107 -119 -165 -214 -165z" />
    <glyph glyph-name="p" unicode="p" horiz-adv-x="613" 
d="M323 525c122 0 213 -90 225 -222h-37c-11 113 -87 189 -188 189c-113 0 -187 -94 -187 -237s74 -237 187 -237c97 0 170 69 188 181c2 11 8 17 17 17c13 0 19 -11 16 -30c-18 -118 -109 -201 -221 -201c-85 0 -154 46 -187 125v-315h-37v715h37v-110
c33 79 102 125 187 125z" />
    <glyph glyph-name="thorn" unicode="&#xfe;" horiz-adv-x="613" 
d="M323 525c122 0 213 -90 225 -222h-37c-11 113 -87 189 -188 189c-113 0 -187 -94 -187 -237s74 -237 187 -237c97 0 170 69 188 181c2 11 8 17 17 17c13 0 19 -11 16 -30c-18 -118 -109 -201 -221 -201c-85 0 -154 46 -187 125v-315h-37v950h37v-345
c33 79 102 125 187 125z" />
    <glyph glyph-name="q" unicode="q" horiz-adv-x="613" 
d="M289 525c85 0 156 -48 188 -126v111h37v-715h-37v316c-32 -78 -103 -126 -188 -126c-122 0 -212 90 -224 222h37c11 -113 86 -189 187 -189c113 0 187 94 187 237s-74 237 -187 237c-94 0 -169 -68 -186 -171c-3 -19 -9 -27 -20 -27c-14 0 -18 14 -16 28
c18 127 106 203 222 203z" />
    <glyph glyph-name="r" unicode="r" horiz-adv-x="388" 
d="M117 240c-10 0 -18 8 -18 18v252h37v-103c26 68 79 108 145 108c25 0 46 -2 61 -7v-37c-15 4 -36 6 -55 6c-91 0 -151 -85 -151 -215c0 -13 -7 -22 -19 -22zM99 132c0 10 8 18 19 18c10 0 18 -8 18 -18v-132h-37v132z" />
    <glyph glyph-name="racute" unicode="&#x155;" horiz-adv-x="388" 
d="M117 240c-10 0 -18 8 -18 18v252h37v-103c26 68 79 108 145 108c25 0 46 -2 61 -7v-37c-15 4 -36 6 -55 6c-91 0 -151 -85 -151 -215c0 -13 -7 -22 -19 -22zM99 132c0 10 8 18 19 18c10 0 18 -8 18 -18v-132h-37v132zM201 590l70 145h41l-72 -145h-39z" />
    <glyph glyph-name="rcaron" unicode="&#x159;" horiz-adv-x="388" 
d="M117 240c-10 0 -18 8 -18 18v252h37v-103c26 68 79 108 145 108c25 0 46 -2 61 -7v-37c-15 4 -36 6 -55 6c-91 0 -151 -85 -151 -215c0 -13 -7 -22 -19 -22zM99 132c0 10 8 18 19 18c10 0 18 -8 18 -18v-132h-37v132zM200 590l-115 145h40l95 -118l96 118h40l-116 -145
h-40z" />
    <glyph glyph-name="uni0157" unicode="&#x157;" horiz-adv-x="388" 
d="M117 240c-10 0 -18 8 -18 18v252h37v-103c26 68 79 108 145 108c25 0 46 -2 61 -7v-37c-15 4 -36 6 -55 6c-91 0 -151 -85 -151 -215c0 -13 -7 -22 -19 -22zM99 132c0 10 8 18 19 18c10 0 18 -8 18 -18v-132h-37v132zM72 -231l42 99c-19 3 -30 15 -30 34
c0 18 13 32 35 32c20 0 33 -14 33 -32c0 -9 -1 -16 -8 -32l-43 -101h-29z" />
    <glyph glyph-name="s" unicode="s" horiz-adv-x="514" 
d="M265 -15c-111 0 -191 68 -200 170h37c11 -84 74 -137 163 -137s147 43 147 108c0 54 -28 84 -99 107c-12 4 -17 10 -15 20s11 15 23 12c81 -21 128 -72 128 -139c0 -85 -74 -141 -184 -141zM192 263c-65 17 -105 62 -105 120c0 79 77 142 174 142s173 -68 180 -161h-37
c-6 73 -67 128 -143 128s-137 -48 -137 -109c0 -43 28 -74 83 -90c10 -3 14 -11 12 -20c-2 -10 -13 -14 -27 -10z" />
    <glyph glyph-name="sacute" unicode="&#x15b;" horiz-adv-x="514" 
d="M265 -15c-111 0 -191 68 -200 170h37c11 -84 74 -137 163 -137s147 43 147 108c0 54 -28 84 -99 107c-12 4 -17 10 -15 20s11 15 23 12c81 -21 128 -72 128 -139c0 -85 -74 -141 -184 -141zM192 263c-65 17 -105 62 -105 120c0 79 77 142 174 142s173 -68 180 -161h-37
c-6 73 -67 128 -143 128s-137 -48 -137 -109c0 -43 28 -74 83 -90c10 -3 14 -11 12 -20c-2 -10 -13 -14 -27 -10zM244 590l70 145h41l-72 -145h-39z" />
    <glyph glyph-name="scaron" unicode="&#x161;" horiz-adv-x="514" 
d="M265 -15c-111 0 -191 68 -200 170h37c11 -84 74 -137 163 -137s147 43 147 108c0 54 -28 84 -99 107c-12 4 -17 10 -15 20s11 15 23 12c81 -21 128 -72 128 -139c0 -85 -74 -141 -184 -141zM192 263c-65 17 -105 62 -105 120c0 79 77 142 174 142s173 -68 180 -161h-37
c-6 73 -67 128 -143 128s-137 -48 -137 -109c0 -43 28 -74 83 -90c10 -3 14 -11 12 -20c-2 -10 -13 -14 -27 -10zM243 590l-115 145h40l95 -118l96 118h40l-116 -145h-40z" />
    <glyph glyph-name="scedilla" unicode="&#x15f;" horiz-adv-x="514" 
d="M192 263c-65 17 -105 62 -105 120c0 79 77 142 174 142s173 -68 180 -161h-37c-6 73 -67 128 -143 128s-137 -48 -137 -109c0 -43 28 -74 83 -90c10 -3 14 -11 12 -20c-2 -10 -13 -14 -27 -10zM258 -205c-47 0 -76 32 -74 66h29c-1 -20 18 -40 45 -40c29 0 46 19 46 46
c0 25 -17 46 -44 46c-14 0 -25 -6 -34 -13l-21 17l35 69c-98 10 -167 75 -175 169h37c11 -84 74 -137 163 -137s147 43 147 108c0 54 -28 84 -99 107c-12 4 -17 10 -15 20s11 15 23 12c81 -21 128 -72 128 -139c0 -83 -71 -139 -177 -141l-24 -48c4 1 9 2 14 2
c41 0 71 -32 71 -72c0 -41 -28 -72 -75 -72z" />
    <glyph glyph-name="scircumflex" unicode="&#x15d;" horiz-adv-x="514" 
d="M265 -15c-111 0 -191 68 -200 170h37c11 -84 74 -137 163 -137s147 43 147 108c0 54 -28 84 -99 107c-12 4 -17 10 -15 20s11 15 23 12c81 -21 128 -72 128 -139c0 -85 -74 -141 -184 -141zM192 263c-65 17 -105 62 -105 120c0 79 77 142 174 142s173 -68 180 -161h-37
c-6 73 -67 128 -143 128s-137 -48 -137 -109c0 -43 28 -74 83 -90c10 -3 14 -11 12 -20c-2 -10 -13 -14 -27 -10zM128 590l115 145h40l116 -145h-40l-96 118l-95 -118h-40z" />
    <glyph glyph-name="germandbls" unicode="&#xdf;" horiz-adv-x="599" 
d="M272 365v33h31c85 0 158 53 158 155c0 107 -75 159 -157 159c-99 0 -168 -65 -168 -170v-119c0 -10 -8 -18 -19 -18c-10 0 -18 8 -18 18v119c0 121 82 203 206 203c102 0 193 -68 193 -192c0 -123 -89 -188 -198 -188h-28zM99 297c0 10 8 18 19 18c10 0 18 -8 18 -18
v-297h-37v297zM325 -10c-30 0 -56 3 -78 10v32c20 -5 49 -9 78 -9c87 0 172 62 172 171c0 47 -11 80 -37 112c-14 17 -4 31 10 31c26 0 64 -68 64 -143c0 -128 -97 -204 -209 -204z" />
    <glyph glyph-name="t" unicode="t" horiz-adv-x="354" 
d="M265 -10c-84 0 -132 50 -132 136v246c0 10 8 18 19 18c10 0 18 -8 18 -18v-242c0 -70 31 -105 93 -105c21 0 46 4 66 10v-35c-18 -7 -41 -10 -64 -10zM33 477v33h100v155l37 19v-174h138v-33h-275z" />
    <glyph glyph-name="tbar" unicode="&#x167;" horiz-adv-x="354" 
d="M265 -10c-84 0 -132 50 -132 136v115h-99v33h99v98c0 10 8 18 19 18c10 0 18 -8 18 -18v-98h139v-33h-139v-111c0 -70 31 -105 93 -105c21 0 46 4 66 10v-35c-18 -7 -41 -10 -64 -10zM33 477v33h100v155l37 19v-174h138v-33h-275z" />
    <glyph glyph-name="tcaron" unicode="&#x165;" horiz-adv-x="354" 
d="M265 -10c-72 0 -132 38 -132 136v246c0 10 8 18 19 18c10 0 18 -8 18 -18v-242c0 -77 38 -105 93 -105c22 0 47 4 66 10v-35c-17 -6 -39 -10 -64 -10zM33 477v33h100v155l37 19v-207h-137zM297 559l47 126c-18 2 -29 14 -29 33c0 18 13 32 35 32c20 0 33 -14 33 -32
c0 -9 -2 -16 -8 -32l-48 -127h-30z" />
    <glyph glyph-name="uni0163" unicode="&#x163;" horiz-adv-x="354" 
d="M265 -10c-8 0 -16 0 -23 1l-27 -54c4 1 9 2 14 2c41 0 71 -32 71 -72c0 -41 -28 -72 -75 -72s-76 32 -74 66h29c-1 -20 18 -40 45 -40c29 0 46 19 46 46c0 25 -17 46 -44 46c-14 0 -25 -6 -34 -13l-21 17l40 81c-51 17 -79 62 -79 128v246c0 10 8 18 19 18
c10 0 18 -8 18 -18v-242c0 -70 31 -105 93 -105c21 0 46 4 66 10v-35c-18 -7 -41 -10 -64 -10zM33 477v33h100v155l37 19v-174h138v-33h-275z" />
    <glyph glyph-name="u" unicode="u" horiz-adv-x="583" 
d="M272 -15c-105 0 -173 73 -173 186v81c0 10 8 18 19 18c10 0 18 -8 18 -18v-77c0 -95 55 -157 138 -157c95 0 173 78 173 175v317h37v-510h-37v88c-30 -61 -101 -103 -175 -103zM117 360c-10 0 -18 8 -18 18v132h37v-132c0 -10 -8 -18 -19 -18z" />
    <glyph glyph-name="uacute" unicode="&#xfa;" horiz-adv-x="583" 
d="M272 -15c-105 0 -173 73 -173 186v81c0 10 8 18 19 18c10 0 18 -8 18 -18v-77c0 -95 55 -157 138 -157c95 0 173 78 173 175v317h37v-510h-37v88c-30 -61 -101 -103 -175 -103zM117 360c-10 0 -18 8 -18 18v132h37v-132c0 -10 -8 -18 -19 -18zM272 590l70 145h41
l-72 -145h-39z" />
    <glyph glyph-name="ubreve" unicode="&#x16d;" horiz-adv-x="583" 
d="M272 -15c-105 0 -173 73 -173 186v81c0 10 8 18 19 18c10 0 18 -8 18 -18v-77c0 -95 55 -157 138 -157c95 0 173 78 173 175v317h37v-510h-37v88c-30 -61 -101 -103 -175 -103zM117 360c-10 0 -18 8 -18 18v132h37v-132c0 -10 -8 -18 -19 -18zM292 585
c-64 0 -116 44 -116 115h32c0 -53 38 -83 84 -83s84 30 84 83h32c0 -71 -52 -115 -116 -115z" />
    <glyph glyph-name="ucircumflex" unicode="&#xfb;" horiz-adv-x="583" 
d="M272 -15c-105 0 -173 73 -173 186v81c0 10 8 18 19 18c10 0 18 -8 18 -18v-77c0 -95 55 -157 138 -157c95 0 173 78 173 175v317h37v-510h-37v88c-30 -61 -101 -103 -175 -103zM117 360c-10 0 -18 8 -18 18v132h37v-132c0 -10 -8 -18 -19 -18zM156 590l115 145h40
l116 -145h-40l-96 118l-95 -118h-40z" />
    <glyph glyph-name="udieresis" unicode="&#xfc;" horiz-adv-x="583" 
d="M272 -15c-105 0 -173 73 -173 186v81c0 10 8 18 19 18c10 0 18 -8 18 -18v-77c0 -95 55 -157 138 -157c95 0 173 78 173 175v317h37v-510h-37v88c-30 -61 -101 -103 -175 -103zM117 360c-10 0 -18 8 -18 18v132h37v-132c0 -10 -8 -18 -19 -18zM392 642
c-17 0 -31 14 -31 31s14 31 31 31s31 -14 31 -31s-14 -31 -31 -31zM192 642c-17 0 -31 14 -31 31s14 31 31 31s31 -14 31 -31s-14 -31 -31 -31z" />
    <glyph glyph-name="ugrave" unicode="&#xf9;" horiz-adv-x="583" 
d="M272 -15c-105 0 -173 73 -173 186v81c0 10 8 18 19 18c10 0 18 -8 18 -18v-77c0 -95 55 -157 138 -157c95 0 173 78 173 175v317h37v-510h-37v88c-30 -61 -101 -103 -175 -103zM117 360c-10 0 -18 8 -18 18v132h37v-132c0 -10 -8 -18 -19 -18zM312 590h-39l-72 145h41z
" />
    <glyph glyph-name="uhungarumlaut" unicode="&#x171;" horiz-adv-x="583" 
d="M272 -15c-105 0 -173 73 -173 186v81c0 10 8 18 19 18c10 0 18 -8 18 -18v-77c0 -95 55 -157 138 -157c95 0 173 78 173 175v317h37v-510h-37v88c-30 -61 -101 -103 -175 -103zM117 360c-10 0 -18 8 -18 18v132h37v-132c0 -10 -8 -18 -19 -18zM352 590l60 145h42
l-65 -145h-37zM194 590l60 145h42l-65 -145h-37z" />
    <glyph glyph-name="umacron" unicode="&#x16b;" horiz-adv-x="583" 
d="M272 -15c-105 0 -173 73 -173 186v81c0 10 8 18 19 18c10 0 18 -8 18 -18v-77c0 -95 55 -157 138 -157c95 0 173 78 173 175v317h37v-510h-37v88c-30 -61 -101 -103 -175 -103zM117 360c-10 0 -18 8 -18 18v132h37v-132c0 -10 -8 -18 -19 -18zM161 657v33h262v-33h-262z
" />
    <glyph glyph-name="uogonek" unicode="&#x173;" horiz-adv-x="583" 
d="M272 -15c-105 0 -173 73 -173 186v81c0 10 8 18 19 18c10 0 18 -8 18 -18v-77c0 -95 55 -157 138 -157c95 0 173 78 173 175v317h37v-510c-52 -31 -93 -68 -93 -121c0 -41 33 -54 64 -54c6 0 19 1 29 5v-30c-11 -4 -24 -5 -36 -5c-45 0 -92 26 -92 84c0 52 35 88 96 121
h-5v88c-30 -61 -101 -103 -175 -103zM117 360c-10 0 -18 8 -18 18v132h37v-132c0 -10 -8 -18 -19 -18z" />
    <glyph glyph-name="uring" unicode="&#x16f;" horiz-adv-x="583" 
d="M272 -15c-105 0 -173 73 -173 186v81c0 10 8 18 19 18c10 0 18 -8 18 -18v-77c0 -95 55 -157 138 -157c95 0 173 78 173 175v317h37v-510h-37v88c-30 -61 -101 -103 -175 -103zM117 360c-10 0 -18 8 -18 18v132h37v-132c0 -10 -8 -18 -19 -18zM235 654
c10 -22 30 -39 57 -39c35 0 62 29 62 64s-27 64 -62 64c-23 0 -42 -13 -51 -28c-5 -8 -12 -11 -17 -11c-13 0 -19 13 -12 26c16 28 46 43 80 43c53 0 94 -41 94 -94s-41 -94 -94 -94c-45 0 -81 28 -91 69h34z" />
    <glyph glyph-name="utilde" unicode="&#x169;" horiz-adv-x="583" 
d="M272 -15c-105 0 -173 73 -173 186v81c0 10 8 18 19 18c10 0 18 -8 18 -18v-77c0 -95 55 -157 138 -157c95 0 173 78 173 175v317h37v-510h-37v88c-30 -61 -101 -103 -175 -103zM117 360c-10 0 -18 8 -18 18v132h37v-132c0 -10 -8 -18 -19 -18zM350 585
c-35 0 -55 22 -75 44c-17 20 -31 32 -51 32c-29 0 -44 -20 -43 -61h-35c-1 59 31 94 78 94c34 0 55 -21 75 -43c18 -21 31 -33 51 -33c30 0 45 21 45 62h33c1 -59 -30 -95 -78 -95z" />
    <glyph glyph-name="v" unicode="v" horiz-adv-x="532" 
d="M245 0l-216 510h40l216 -510h-40zM324 133c-10 4 -13 14 -9 24l148 353h40l-155 -366c-4 -10 -15 -15 -24 -11z" />
    <glyph glyph-name="w" unicode="w" horiz-adv-x="784" 
d="M197 0l-168 510h38l168 -510h-38zM546 0l-153 468l-96 -294c-4 -11 -13 -16 -23 -13c-8 3 -12 14 -9 24l107 325h42l170 -510h-38zM624 168c-9 3 -14 14 -10 24l103 318h38l-108 -328c-4 -11 -13 -17 -23 -14z" />
    <glyph glyph-name="wcircumflex" unicode="&#x175;" horiz-adv-x="784" 
d="M197 0l-168 510h38l168 -510h-38zM546 0l-153 468l-96 -294c-4 -11 -13 -16 -23 -13c-8 3 -12 14 -9 24l107 325h42l170 -510h-38zM624 168c-9 3 -14 14 -10 24l103 318h38l-108 -328c-4 -11 -13 -17 -23 -14zM257 590l115 145h40l116 -145h-40l-96 118l-95 -118h-40z
" />
    <glyph glyph-name="x" unicode="x" horiz-adv-x="479" 
d="M406 0l-377 510h44l377 -510h-44zM147 160c6 9 18 11 26 5s8 -16 2 -26l-102 -139h-44zM332 350c-6 -9 -18 -11 -26 -5s-8 16 -2 26l102 139h44z" />
    <glyph glyph-name="y" unicode="y" horiz-adv-x="525" 
d="M152 -205l100 236l-223 479h40l223 -479l-100 -236h-40zM328 169c-8 4 -11 15 -6 27l134 314h40l-139 -327c-5 -14 -18 -20 -29 -14z" />
    <glyph glyph-name="yacute" unicode="&#xfd;" horiz-adv-x="525" 
d="M152 -205l100 236l-223 479h40l223 -479l-100 -236h-40zM328 169c-8 4 -11 15 -6 27l134 314h40l-139 -327c-5 -14 -18 -20 -29 -14zM243 590l70 145h41l-72 -145h-39z" />
    <glyph glyph-name="ycircumflex" unicode="&#x177;" horiz-adv-x="525" 
d="M152 -205l100 236l-223 479h40l223 -479l-100 -236h-40zM328 169c-8 4 -11 15 -6 27l134 314h40l-139 -327c-5 -14 -18 -20 -29 -14zM127 590l115 145h40l116 -145h-40l-96 118l-95 -118h-40z" />
    <glyph glyph-name="ydieresis" unicode="&#xff;" horiz-adv-x="525" 
d="M152 -205l100 236l-223 479h40l223 -479l-100 -236h-40zM328 169c-8 4 -11 15 -6 27l134 314h40l-139 -327c-5 -14 -18 -20 -29 -14zM363 642c-17 0 -31 14 -31 31s14 31 31 31s31 -14 31 -31s-14 -31 -31 -31zM163 642c-17 0 -31 14 -31 31s14 31 31 31s31 -14 31 -31
s-14 -31 -31 -31z" />
    <glyph glyph-name="z" unicode="z" horiz-adv-x="505" 
d="M65 0v28l255 348c6 8 17 10 25 5s9 -17 2 -26l-236 -322h329v-33h-375zM80 477v33h345v-33h-345z" />
    <glyph glyph-name="zacute" unicode="&#x17a;" horiz-adv-x="505" 
d="M65 0v28l255 348c6 8 17 10 25 5s9 -17 2 -26l-236 -322h329v-33h-375zM80 477v33h345v-33h-345zM232 590l70 145h41l-72 -145h-39z" />
    <glyph glyph-name="zcaron" unicode="&#x17e;" horiz-adv-x="505" 
d="M65 0v28l255 348c6 8 17 10 25 5s9 -17 2 -26l-236 -322h329v-33h-375zM80 477v33h345v-33h-345zM231 590l-115 145h40l95 -118l96 118h40l-116 -145h-40z" />
    <glyph glyph-name="zdotaccent" unicode="&#x17c;" horiz-adv-x="505" 
d="M65 0v28l255 348c6 8 17 10 25 5s9 -17 2 -26l-236 -322h329v-33h-375zM80 477v33h345v-33h-345zM252 653c-20 0 -37 17 -37 37s17 37 37 37s37 -17 37 -37s-17 -37 -37 -37z" />
    <glyph glyph-name="uni0410" unicode="&#x410;" horiz-adv-x="709" 
d="M36 0l300 720h40l-191 -458h229c9 0 16 -7 16 -16s-7 -17 -16 -17h-243l-95 -229h-40zM411 543c-4 11 -1 21 9 26c9 4 20 -1 25 -13l228 -556h-40z" />
    <glyph glyph-name="uni0411" unicode="&#x411;" horiz-adv-x="620" 
d="M110 244c0 10 8 18 18 18c11 0 19 -8 19 -18v-211h192c111 0 186 57 186 162c0 113 -74 163 -186 163h-229v362h415v-33h-378v-296h192c141 0 223 -75 223 -195c0 -119 -82 -196 -223 -196h-229v244z" />
    <glyph glyph-name="uni0412" unicode="&#x412;" horiz-adv-x="622" 
d="M110 244c0 10 8 18 18 18c11 0 19 -8 19 -18v-211h194c115 0 186 61 186 160c0 104 -66 161 -186 161h-231v366h37v-333h194c95 0 163 64 163 153c0 94 -59 147 -163 147h-84c-9 0 -16 8 -16 17s7 16 16 16h84c126 0 200 -66 200 -179c0 -76 -47 -142 -117 -166
c83 -19 140 -93 140 -183c0 -119 -85 -192 -223 -192h-231v244z" />
    <glyph glyph-name="uni0413" unicode="&#x413;" horiz-adv-x="566" 
d="M110 577c0 10 8 18 18 18s19 -8 19 -18v-577h-37v577zM110 687v33h401v-33h-401z" />
    <glyph glyph-name="uni0414" unicode="&#x414;" horiz-adv-x="831" 
d="M642 125c-11 0 -19 8 -19 18v544h-401v33h438v-577c0 -10 -8 -18 -18 -18zM55 33c90 0 135 54 141 167l19 377c1 10 8 18 19 18c10 0 19 -8 18 -18l-20 -388c-4 -81 -29 -130 -66 -156h592v-176h-36v143h-631v-143h-36v176z" />
    <glyph glyph-name="uni0415" unicode="&#x415;" horiz-adv-x="597" 
d="M110 577c0 10 8 18 18 18s19 -8 19 -18v-544h378v-33h-415v577zM257 355c-9 0 -16 7 -16 16s7 17 16 17h209v-33h-209zM110 687v33h415v-33h-415z" />
    <glyph glyph-name="uni0401" unicode="&#x401;" horiz-adv-x="597" 
d="M110 577c0 10 8 18 18 18s19 -8 19 -18v-544h378v-33h-415v577zM257 355c-9 0 -16 7 -16 16s7 17 16 17h209v-33h-209zM110 687v33h415v-33h-415zM418 852c-17 0 -31 14 -31 31s14 31 31 31s31 -14 31 -31s-14 -31 -31 -31zM218 852c-17 0 -31 14 -31 31s14 31 31 31
s31 -14 31 -31s-14 -31 -31 -31z" />
    <glyph glyph-name="uni0416" unicode="&#x416;" horiz-adv-x="939" 
d="M451 231c0 11 9 20 19 20s18 -9 18 -20v-231h-37v231zM470 468c-10 0 -19 9 -19 20v232h37v-232c0 -11 -8 -20 -18 -20zM858 0l-247 350h-283l-248 -350h-44l260 368l-260 352h44l247 -337h285l247 337h44l-259 -352l259 -368h-45z" />
    <glyph glyph-name="uni0417" unicode="&#x417;" horiz-adv-x="622" 
d="M262 350v33h66c98 0 166 64 166 152c0 100 -73 167 -182 167c-115 0 -199 -76 -202 -182h-36c1 123 104 215 241 215c127 0 215 -80 215 -195c0 -113 -82 -190 -205 -190h-63zM310 -15c-151 0 -246 90 -242 228h37c-4 -119 77 -195 208 -195c123 0 200 71 200 172
c0 30 -6 58 -19 81c-5 10 -3 20 5 25c34 20 51 -58 51 -103c0 -128 -98 -208 -240 -208z" />
    <glyph glyph-name="uni0418" unicode="&#x418;" horiz-adv-x="743" 
d="M589 720h44v-720h-37v672l-444 -672h-42zM110 720h37v-501c0 -10 -9 -18 -19 -18s-18 8 -18 18v501z" />
    <glyph glyph-name="uni0419" unicode="&#x419;" horiz-adv-x="743" 
d="M589 720h44v-720h-37v672l-444 -672h-42zM110 720h37v-501c0 -10 -9 -18 -19 -18s-18 8 -18 18v501zM397 790c-72 0 -121 47 -121 115h32c0 -51 36 -86 89 -86s89 35 89 86h32c0 -68 -49 -115 -121 -115z" />
    <glyph glyph-name="uni041A" unicode="&#x41a;" horiz-adv-x="643" 
d="M129 475c-10 0 -19 9 -19 20v225h37v-225c0 -11 -8 -20 -18 -20zM110 0v383h186l266 337h45l-278 -352l278 -368h-46l-265 350h-149v-350h-37z" />
    <glyph glyph-name="uni041B" unicode="&#x41b;" horiz-adv-x="770" 
d="M98 -5c-15 0 -30 2 -43 5v35c15 -3 28 -4 41 -4c73 0 104 38 108 127l21 419c1 10 8 18 19 18c10 0 18 -8 18 -18l-21 -427c-5 -105 -54 -155 -143 -155zM623 0v687h-392v33h429v-720h-37z" />
    <glyph glyph-name="uni041C" unicode="&#x41c;" horiz-adv-x="908" 
d="M439 0l-329 720h40l329 -720h-40zM761 0v657l-215 -505c-5 -11 -16 -16 -26 -12c-9 4 -12 15 -7 27l234 553h51v-720h-37zM110 442c0 10 8 18 18 18s19 -8 19 -18v-442h-37v442z" />
    <glyph glyph-name="uni041D" unicode="&#x41d;" horiz-adv-x="726" 
d="M579 0v355h-322c-9 0 -16 7 -16 16s7 17 16 17h322v332h37v-720h-37zM110 0v720h37v-720h-37z" />
    <glyph glyph-name="uni041E" unicode="&#x41e;" horiz-adv-x="882" 
d="M440 -15c-192 0 -346 136 -368 324h37c22 -169 160 -290 331 -290c186 0 333 150 333 341c0 196 -142 341 -333 341c-167 0 -301 -117 -326 -283c-1 -10 -9 -17 -19 -17c-11 0 -20 11 -18 24c29 184 177 310 363 310c212 0 370 -160 370 -375c0 -210 -163 -375 -370 -375
z" />
    <glyph glyph-name="uni041F" unicode="&#x41f;" horiz-adv-x="716" 
d="M569 0v687h-459v33h496v-720h-37zM110 577c0 10 8 18 18 18s19 -8 19 -18v-577h-37v577z" />
    <glyph glyph-name="uni0420" unicode="&#x420;" horiz-adv-x="645" 
d="M257 334c-9 0 -16 8 -16 17s7 16 16 16h130c102 0 171 64 171 160c0 98 -67 160 -171 160h-277v33h277c126 0 208 -76 208 -193s-82 -193 -208 -193h-130zM110 577c0 10 8 18 18 18s19 -8 19 -18v-577h-37v577z" />
    <glyph glyph-name="uni0421" unicode="&#x421;" horiz-adv-x="821" 
d="M95 401c-11 0 -20 11 -18 24c30 183 175 310 353 310c160 0 286 -88 319 -222h-38c-29 113 -141 188 -281 188c-159 0 -290 -118 -315 -283c-2 -10 -10 -17 -20 -17zM430 -15c-184 0 -335 137 -358 324h38c22 -168 157 -290 320 -290c142 0 242 71 285 202h38
c-43 -151 -160 -236 -323 -236z" />
    <glyph glyph-name="uni0422" unicode="&#x422;" horiz-adv-x="675" 
d="M319 577c0 10 8 18 18 18s19 -8 19 -18v-577h-37v577zM55 687v33h565v-33h-565z" />
    <glyph glyph-name="uni0423" unicode="&#x423;" horiz-adv-x="638" 
d="M267 301c-9 -4 -21 0 -25 9l-206 410h40l197 -394c5 -10 3 -20 -6 -25zM111 -5c-20 0 -44 3 -60 8v35c17 -5 39 -8 62 -8c102 0 144 53 199 167l251 523h39l-253 -526c-62 -129 -112 -199 -238 -199z" />
    <glyph glyph-name="uni0424" unicode="&#x424;" horiz-adv-x="892" 
d="M428 541c0 10 8 18 18 18s19 -8 19 -18v-591h-37v84c-213 7 -356 140 -356 327s143 320 356 327v82h37v-82c213 -8 355 -141 355 -327c0 -150 -92 -265 -239 -308c-10 -3 -19 1 -22 11s3 18 13 21c130 41 211 143 211 276c0 174 -135 294 -337 294s-337 -120 -337 -294
c0 -167 128 -287 319 -294v474z" />
    <glyph glyph-name="uni0425" unicode="&#x425;" horiz-adv-x="655" 
d="M574 0l-538 720h45l538 -720h-45zM234 264c7 10 19 12 27 6c8 -7 8 -17 2 -26l-182 -244h-45zM394 450c-8 7 -8 17 -2 26l182 244h45l-198 -264c-7 -10 -19 -12 -27 -6z" />
    <glyph glyph-name="uni0427" unicode="&#x427;" horiz-adv-x="716" 
d="M606 416c-47 -68 -141 -131 -258 -131c-145 0 -238 97 -238 246v189h37v-188c0 -130 78 -214 201 -214c87 0 168 41 221 112v290h37v-304zM606 0h-37v223c0 11 8 20 18 20c11 0 19 -9 19 -20v-223z" />
    <glyph glyph-name="uni0426" unicode="&#x426;" horiz-adv-x="777" 
d="M569 720h37v-687h98v-176h-36v143h-558v33h459v687zM110 720h37v-577c0 -10 -9 -18 -19 -18s-18 8 -18 18v577z" />
    <glyph glyph-name="uni0428" unicode="&#x428;" horiz-adv-x="999" 
d="M852 720h37v-720h-779v33h742v687zM110 720h37v-577c0 -10 -9 -18 -19 -18s-18 8 -18 18v577zM481 720h37v-577c0 -10 -9 -18 -19 -18s-18 8 -18 18v577z" />
    <glyph glyph-name="uni0429" unicode="&#x429;" horiz-adv-x="1060" 
d="M852 720h37v-687h98v-176h-36v143h-841v33h742v687zM110 720h37v-577c0 -10 -9 -18 -19 -18s-18 8 -18 18v577zM481 720h37v-577c0 -10 -9 -18 -19 -18s-18 8 -18 18v577z" />
    <glyph glyph-name="uni042C" unicode="&#x42c;" horiz-adv-x="625" 
d="M110 272c0 10 8 18 18 18c11 0 19 -8 19 -18v-239h185c117 0 198 63 198 173c0 114 -80 176 -198 176h-222v338h37v-305h190c142 0 230 -82 230 -209c0 -124 -90 -206 -227 -206h-230v272z" />
    <glyph glyph-name="uni042B" unicode="&#x42b;" horiz-adv-x="882" 
d="M110 272c0 10 8 18 18 18c11 0 19 -8 19 -18v-239h185c117 0 198 63 198 173c0 114 -80 176 -198 176h-222v338h37v-305h190c142 0 230 -82 230 -209c0 -124 -90 -206 -227 -206h-230v272zM753 405c-10 0 -18 8 -18 18v297h37v-297c0 -10 -9 -18 -19 -18zM735 297
c0 10 8 18 18 18s19 -8 19 -18v-297h-37v297z" />
    <glyph glyph-name="uni042A" unicode="&#x42a;" horiz-adv-x="778" 
d="M263 272c0 10 8 18 18 18c11 0 19 -8 19 -18v-239h185c117 0 198 63 198 173c0 114 -80 176 -198 176h-222v305h-190v33h227v-305h190c142 0 230 -82 230 -209c0 -124 -90 -206 -227 -206h-230v272z" />
    <glyph glyph-name="uni042D" unicode="&#x42d;" horiz-adv-x="821" 
d="M391 -15c-157 0 -278 80 -323 236h38c45 -137 150 -202 285 -202c182 0 322 148 322 341c0 203 -140 341 -322 341c-131 0 -250 -68 -281 -188h-38c34 140 166 222 319 222c205 0 358 -154 358 -375c0 -211 -153 -375 -358 -375zM362 344v33h239c10 0 18 -7 18 -16
s-8 -17 -18 -17h-239z" />
    <glyph glyph-name="uni0430" unicode="&#x430;" horiz-adv-x="542" 
d="M223 -15c-79 0 -158 42 -158 140c0 100 81 157 186 173l47 7c12 2 20 -3 22 -12c2 -10 -5 -18 -18 -20l-44 -7c-93 -15 -156 -64 -156 -141c0 -63 49 -107 121 -107c95 0 183 77 183 218v108c0 112 -73 148 -142 148c-82 0 -148 -51 -155 -128h-37c5 99 91 161 192 161
c91 0 179 -53 179 -172v-198v-155h-37v102c-37 -74 -103 -117 -183 -117z" />
    <glyph glyph-name="uni0431" unicode="&#x431;" horiz-adv-x="597" 
d="M89 283c-13 0 -24 8 -24 30c0 202 74 357 266 387l78 12c35 5 48 15 49 33h36c-2 -40 -21 -57 -79 -66l-78 -12c-150 -23 -221 -127 -237 -315c41 98 129 133 207 133c125 0 225 -90 225 -250s-109 -250 -234 -250c-106 0 -209 63 -230 211h36c16 -116 105 -178 197 -178
c100 0 194 76 194 217s-89 217 -190 217c-84 0 -162 -50 -190 -146c-4 -16 -13 -23 -26 -23z" />
    <glyph glyph-name="uni0432" unicode="&#x432;" horiz-adv-x="551" 
d="M99 142c0 10 9 18 18 18c10 0 19 -8 19 -18v-109h188c76 0 125 40 125 107c0 65 -47 107 -123 107h-227v263h37v-230h191c63 0 105 42 105 101c0 63 -42 96 -105 96h-87c-9 0 -17 8 -17 17c0 8 8 16 17 16h87c92 0 142 -53 142 -129c0 -58 -37 -101 -81 -116
c61 -15 98 -61 98 -125c0 -84 -64 -140 -162 -140h-225v142z" />
    <glyph glyph-name="uni0433" unicode="&#x433;" horiz-adv-x="438" 
d="M392 477h-293v33h293v-33zM99 372c0 10 8 18 19 18c10 0 18 -8 18 -18v-372h-37v372z" />
    <glyph glyph-name="uni0434" unicode="&#x434;" horiz-adv-x="646" 
d="M486 120c-10 0 -18 8 -18 17v340h-313v33h350v-373c0 -10 -8 -17 -19 -17zM33 33c56 5 101 31 105 113l12 226c1 10 9 18 19 18c9 0 19 -8 18 -18l-12 -230c-3 -55 -26 -89 -52 -109h461v-158h-36v125h-479v-125h-36v158z" />
    <glyph glyph-name="uni0435" unicode="&#x435;" horiz-adv-x="590" 
d="M301 -15c-137 0 -236 113 -236 269s102 271 241 271c138 0 234 -119 217 -268h-305c-10 0 -18 8 -18 17s8 16 18 16h270c-1 116 -76 202 -182 202c-120 0 -204 -98 -204 -238c0 -139 81 -236 197 -236c87 0 159 51 181 128h37c-21 -95 -109 -161 -216 -161z" />
    <glyph glyph-name="uni0451" unicode="&#x451;" horiz-adv-x="590" 
d="M301 -15c-137 0 -236 113 -236 269s102 271 241 271c138 0 234 -119 217 -268h-305c-10 0 -18 8 -18 17s8 16 18 16h270c-1 116 -76 202 -182 202c-120 0 -204 -98 -204 -238c0 -139 81 -236 197 -236c87 0 159 51 181 128h37c-21 -95 -109 -161 -216 -161zM394 642
c-17 0 -31 14 -31 31s14 31 31 31s31 -14 31 -31s-14 -31 -31 -31zM194 642c-17 0 -31 14 -31 31s14 31 31 31s31 -14 31 -31s-14 -31 -31 -31z" />
    <glyph glyph-name="uni0436" unicode="&#x436;" horiz-adv-x="707" 
d="M29 0l186 260l-182 250h44l169 -234h215l170 234h43l-182 -249l186 -261h-44l-174 243h-213l-175 -243h-43zM335 131c0 11 9 20 19 20s18 -9 18 -20v-131h-37v131zM335 510h37v-131c0 -11 -8 -20 -18 -20s-19 9 -19 20v131z" />
    <glyph glyph-name="uni0437" unicode="&#x437;" horiz-adv-x="527" 
d="M206 243v33h82c77 0 124 40 124 104c0 70 -56 113 -144 113c-124 0 -167 -79 -168 -135h-37c4 94 84 167 205 167c106 0 181 -56 181 -142c0 -82 -62 -140 -162 -140h-81zM263 -15c-126 0 -208 70 -204 177h36c-4 -88 63 -144 169 -144c97 0 161 47 161 120
c0 11 -2 22 -6 31c-5 14 -5 26 5 31c22 11 38 -18 38 -64c0 -91 -82 -151 -199 -151z" />
    <glyph glyph-name="uni0438" unicode="&#x438;" horiz-adv-x="596" 
d="M458 510h39v-510h-34v459l-322 -459h-42zM99 510h33v-309c0 -9 -8 -17 -17 -17c-8 0 -16 8 -16 17v309z" />
    <glyph glyph-name="uni0439" unicode="&#x439;" horiz-adv-x="596" 
d="M458 510h39v-510h-34v459l-322 -459h-42zM99 510h33v-309c0 -9 -8 -17 -17 -17c-8 0 -16 8 -16 17v309zM298 580c-72 0 -121 47 -121 115h32c0 -51 36 -86 89 -86s89 35 89 86h32c0 -68 -49 -115 -121 -115z" />
    <glyph glyph-name="uni043A" unicode="&#x43a;" horiz-adv-x="533" 
d="M99 0v276h166l185 234h44l-197 -249l200 -261h-44l-189 243h-128v-243h-37zM118 364c-10 0 -19 9 -19 20v126h37v-126c0 -11 -8 -20 -18 -20z" />
    <glyph glyph-name="uni043B" unicode="&#x43b;" horiz-adv-x="607" 
d="M71 -5c-9 0 -26 1 -38 5v34c16 -3 36 -4 38 -4c53 0 79 34 82 101l12 240c1 11 9 19 20 19s17 -9 17 -19l-12 -240c-5 -90 -45 -136 -119 -136zM471 0v477h-301v33h338v-510h-37z" />
    <glyph glyph-name="uni043C" unicode="&#x43c;" horiz-adv-x="724" 
d="M344 0l-245 510h36l245 -510h-36zM99 248c0 9 8 17 17 17s16 -8 16 -17v-248h-33v248zM592 0v461l-141 -305c-5 -11 -15 -15 -24 -11c-7 3 -11 13 -6 23l159 342h45v-510h-33z" />
    <glyph glyph-name="uni043D" unicode="&#x43d;" horiz-adv-x="584" 
d="M248 244c-10 0 -18 8 -18 17s8 16 18 16h200v233h37v-510h-37v244h-200zM99 0v510h37v-510h-37z" />
    <glyph glyph-name="uni043E" unicode="&#x43e;" horiz-adv-x="618" 
d="M309 -15c-129 0 -231 92 -244 222h37c13 -110 99 -189 207 -189c121 0 207 99 207 237c0 139 -86 237 -207 237c-105 0 -189 -75 -205 -181c-2 -11 -9 -17 -18 -17c-14 0 -20 11 -16 31c21 117 119 200 239 200c144 0 244 -111 244 -270c0 -158 -101 -270 -244 -270z" />
    <glyph glyph-name="uni043F" unicode="&#x43f;" horiz-adv-x="573" 
d="M99 372c0 10 8 18 19 18c10 0 18 -8 18 -18v-372h-37v372zM437 0v477h-338v33h375v-510h-37z" />
    <glyph glyph-name="uni0440" unicode="&#x440;" horiz-adv-x="613" 
d="M323 525c122 0 213 -90 225 -222h-37c-11 113 -87 189 -188 189c-113 0 -187 -94 -187 -237s74 -237 187 -237c97 0 170 69 188 181c2 11 8 17 17 17c13 0 19 -11 16 -30c-18 -118 -109 -201 -221 -201c-85 0 -154 46 -187 125v-315h-37v715h37v-110
c33 79 102 125 187 125z" />
    <glyph glyph-name="uni0441" unicode="&#x441;" horiz-adv-x="588" 
d="M86 294c-12 0 -18 10 -16 29c13 118 114 202 243 202c113 0 199 -63 216 -158h-37c-17 76 -87 125 -179 125c-108 0 -193 -74 -209 -181c-1 -10 -8 -17 -18 -17zM313 -15c-133 0 -234 91 -248 222h37c15 -110 103 -189 211 -189c91 0 164 55 179 136h37
c-17 -100 -104 -169 -216 -169z" />
    <glyph glyph-name="uni0442" unicode="&#x442;" horiz-adv-x="495" 
d="M449 477h-403v33h403v-33zM229 372c0 10 8 18 19 18c10 0 18 -8 18 -18v-372h-37v372z" />
    <glyph glyph-name="uni0443" unicode="&#x443;" horiz-adv-x="525" 
d="M152 -205l100 236l-223 479h40l223 -479l-100 -236h-40zM328 169c-8 4 -11 15 -6 27l134 314h40l-139 -327c-5 -14 -18 -20 -29 -14z" />
    <glyph glyph-name="uni0444" unicode="&#x444;" horiz-adv-x="758" 
d="M361 387c0 10 8 18 18 18c11 0 19 -8 19 -18v-592h-37v190c-185 7 -296 117 -296 270s110 263 296 270v220h37v-220c186 -7 295 -117 295 -270c0 -108 -66 -204 -170 -249c-9 -4 -19 1 -23 10c-4 8 1 18 11 23c88 40 145 125 145 216c0 139 -102 237 -277 237
s-277 -98 -277 -237c0 -134 96 -230 259 -237v369z" />
    <glyph glyph-name="uni0445" unicode="&#x445;" horiz-adv-x="479" 
d="M406 0l-377 510h44l377 -510h-44zM147 160c6 9 18 11 26 5s8 -16 2 -26l-102 -139h-44zM332 350c-6 -9 -18 -11 -26 -5s-8 16 -2 26l102 139h44z" />
    <glyph glyph-name="uni0447" unicode="&#x447;" horiz-adv-x="541" 
d="M241 197c-111 0 -182 71 -182 189v124h37v-123c0 -98 55 -157 148 -157c79 0 134 41 161 80v200h37v-206c-11 -14 -70 -107 -201 -107zM405 142c0 11 8 20 19 20c10 0 18 -9 18 -20v-142h-37v142z" />
    <glyph glyph-name="uni0446" unicode="&#x446;" horiz-adv-x="616" 
d="M437 510h38v-477h79v-158h-36v125h-419v33h338v477zM99 510h37v-372c0 -10 -8 -18 -18 -18c-11 0 -19 8 -19 18v372z" />
    <glyph glyph-name="uni0448" unicode="&#x448;" horiz-adv-x="814" 
d="M99 0v33h578v477h38v-510h-616zM118 120c-11 0 -19 8 -19 18v372h37v-372c0 -10 -8 -18 -18 -18zM408 120c-11 0 -19 8 -19 18v372h37v-372c0 -10 -8 -18 -18 -18z" />
    <glyph glyph-name="uni0449" unicode="&#x449;" horiz-adv-x="856" 
d="M99 0v33h578v477h38v-477h79v-158h-36v125h-659zM118 120c-11 0 -19 8 -19 18v372h37v-372c0 -10 -8 -18 -18 -18zM408 120c-11 0 -19 8 -19 18v372h37v-372c0 -10 -8 -18 -18 -18z" />
    <glyph glyph-name="uni044C" unicode="&#x44c;" horiz-adv-x="535" 
d="M99 170c0 10 9 18 18 18c10 0 19 -8 19 -18v-137h159c86 0 138 46 138 121c0 76 -52 121 -138 121h-196v235h37v-202h159c108 0 175 -59 175 -154s-67 -154 -175 -154h-196v170z" />
    <glyph glyph-name="uni044B" unicode="&#x44b;" horiz-adv-x="770" 
d="M99 170c0 10 9 18 18 18c10 0 19 -8 19 -18v-137h159c86 0 138 46 138 121c0 76 -52 121 -138 121h-196v235h37v-202h159c108 0 175 -59 175 -154s-67 -154 -175 -154h-196v170zM634 0v510h37v-510h-37z" />
    <glyph glyph-name="uni044A" unicode="&#x44a;" horiz-adv-x="658" 
d="M222 170c0 10 9 18 18 18c10 0 19 -8 19 -18v-137h159c86 0 138 46 138 121c0 76 -52 121 -138 121h-196v202h-160v33h197v-202h159c108 0 175 -59 175 -154s-67 -154 -175 -154h-196v170z" />
    <glyph glyph-name="uni044D" unicode="&#x44d;" horiz-adv-x="588" 
d="M275 -15c-102 0 -198 60 -216 169h37c16 -84 91 -136 179 -136c121 0 211 98 211 237s-90 237 -211 237c-76 0 -159 -36 -179 -125h-37c19 108 119 158 216 158c146 0 248 -109 248 -270s-102 -270 -248 -270zM217 244v33h157c10 0 18 -7 18 -16s-8 -17 -18 -17h-157z
" />
    <glyph glyph-name="Alpha" unicode="&#x391;" horiz-adv-x="709" 
d="M36 0l300 720h40l-191 -458h229c9 0 16 -7 16 -16s-7 -17 -16 -17h-243l-95 -229h-40zM411 543c-4 11 -1 21 9 26c9 4 20 -1 25 -13l228 -556h-40z" />
    <glyph glyph-name="Beta" unicode="&#x392;" horiz-adv-x="622" 
d="M110 244c0 10 8 18 18 18c11 0 19 -8 19 -18v-211h194c115 0 186 61 186 160c0 104 -66 161 -186 161h-231v366h37v-333h194c95 0 163 64 163 153c0 94 -59 147 -163 147h-84c-9 0 -16 8 -16 17s7 16 16 16h84c126 0 200 -66 200 -179c0 -76 -47 -142 -117 -166
c83 -19 140 -93 140 -183c0 -119 -85 -192 -223 -192h-231v244z" />
    <glyph glyph-name="Gamma" unicode="&#x393;" horiz-adv-x="566" 
d="M110 577c0 10 8 18 18 18s19 -8 19 -18v-577h-37v577zM110 687v33h401v-33h-401z" />
    <glyph glyph-name="uni0394" unicode="&#x394;" horiz-adv-x="687" 
d="M36 0l289 720h40l-277 -687h393c9 0 16 -7 16 -16s-7 -17 -16 -17h-445zM397 543c-4 11 -1 21 9 26c9 4 20 -1 25 -13l220 -556h-39z" />
    <glyph glyph-name="Epsilon" unicode="&#x395;" horiz-adv-x="597" 
d="M110 577c0 10 8 18 18 18s19 -8 19 -18v-544h378v-33h-415v577zM257 355c-9 0 -16 7 -16 16s7 17 16 17h209v-33h-209zM110 687v33h415v-33h-415z" />
    <glyph glyph-name="Zeta" unicode="&#x396;" horiz-adv-x="647" 
d="M72 0v28l390 560c6 8 17 11 25 5s9 -16 3 -25l-373 -535h458v-33h-503zM82 687v33h483v-33h-483z" />
    <glyph glyph-name="Eta" unicode="&#x397;" horiz-adv-x="726" 
d="M579 0v355h-322c-9 0 -16 7 -16 16s7 17 16 17h322v332h37v-720h-37zM110 0v720h37v-720h-37z" />
    <glyph glyph-name="Theta" unicode="&#x398;" horiz-adv-x="882" 
d="M440 -15c-192 0 -346 136 -368 324h37c22 -169 160 -290 331 -290c186 0 333 150 333 341c0 196 -142 341 -333 341c-167 0 -301 -117 -326 -283c-1 -10 -9 -17 -19 -17c-11 0 -20 11 -18 24c29 184 177 310 363 310c212 0 370 -160 370 -375c0 -210 -163 -375 -370 -375
zM266 343v33h347v-33h-347z" />
    <glyph glyph-name="Iota" unicode="&#x399;" horiz-adv-x="257" 
d="M128 405c-10 0 -18 8 -18 18v297h37v-297c0 -10 -9 -18 -19 -18zM110 297c0 10 8 18 18 18s19 -8 19 -18v-297h-37v297z" />
    <glyph glyph-name="Kappa" unicode="&#x39a;" horiz-adv-x="673" 
d="M110 0v276l456 444h52l-471 -458v-262h-37zM348 314c-6 8 -6 19 1 26c9 8 22 5 29 -4l259 -336h-47zM128 417c-10 0 -18 8 -18 18v285h37v-285c0 -10 -9 -18 -19 -18z" />
    <glyph glyph-name="Lambda" unicode="&#x39b;" horiz-adv-x="709" 
d="M36 0l300 720h40l-300 -720h-40zM411 543c-4 11 -1 21 9 26c9 4 20 -1 25 -13l228 -556h-40z" />
    <glyph glyph-name="Mu" unicode="&#x39c;" horiz-adv-x="908" 
d="M439 0l-329 720h40l329 -720h-40zM761 0v657l-215 -505c-5 -11 -16 -16 -26 -12c-9 4 -12 15 -7 27l234 553h51v-720h-37zM110 442c0 10 8 18 18 18s19 -8 19 -18v-442h-37v442z" />
    <glyph glyph-name="Nu" unicode="&#x39d;" horiz-adv-x="794" 
d="M640 0l-530 720h44l493 -671v671h37v-720h-44zM110 501c0 10 8 18 18 18s19 -8 19 -18v-501h-37v501z" />
    <glyph glyph-name="Xi" unicode="&#x39e;" horiz-adv-x="589" 
d="M72 687v33h445v-33h-445zM72 0v33h445v-33h-445zM131 355v33h327v-33h-327z" />
    <glyph glyph-name="Omicron" unicode="&#x39f;" horiz-adv-x="882" 
d="M440 -15c-192 0 -346 136 -368 324h37c22 -169 160 -290 331 -290c186 0 333 150 333 341c0 196 -142 341 -333 341c-167 0 -301 -117 -326 -283c-1 -10 -9 -17 -19 -17c-11 0 -20 11 -18 24c29 184 177 310 363 310c212 0 370 -160 370 -375c0 -210 -163 -375 -370 -375
z" />
    <glyph glyph-name="Pi" unicode="&#x3a0;" horiz-adv-x="716" 
d="M569 0v687h-459v33h496v-720h-37zM110 577c0 10 8 18 18 18s19 -8 19 -18v-577h-37v577z" />
    <glyph glyph-name="Rho" unicode="&#x3a1;" horiz-adv-x="645" 
d="M257 334c-9 0 -16 8 -16 17s7 16 16 16h130c102 0 171 64 171 160c0 98 -67 160 -171 160h-277v33h277c126 0 208 -76 208 -193s-82 -193 -208 -193h-130zM110 577c0 10 8 18 18 18s19 -8 19 -18v-577h-37v577z" />
    <glyph glyph-name="Sigma" unicode="&#x3a3;" horiz-adv-x="613" 
d="M168 602c7 6 18 4 24 -4l183 -232l-255 -333h435v-33h-483v28l260 339l-166 211c-6 7 -6 18 2 24zM76 687v33h463v-33h-463z" />
    <glyph glyph-name="Tau" unicode="&#x3a4;" horiz-adv-x="675" 
d="M319 577c0 10 8 18 18 18s19 -8 19 -18v-577h-37v577zM55 687v33h565v-33h-565z" />
    <glyph glyph-name="Upsilon" unicode="&#x3a5;" horiz-adv-x="661" 
d="M312 0v360l-276 360h45l268 -348v-372h-37zM404 462c-8 7 -6 18 0 26l176 232h45l-193 -253c-7 -9 -20 -12 -28 -5z" />
    <glyph glyph-name="Phi" unicode="&#x3a6;" horiz-adv-x="892" 
d="M428 541c0 10 8 18 18 18s19 -8 19 -18v-591h-37v84c-213 7 -356 140 -356 327s143 320 356 327v82h37v-82c213 -8 355 -141 355 -327c0 -150 -92 -265 -239 -308c-10 -3 -19 1 -22 11s3 18 13 21c130 41 211 143 211 276c0 174 -135 294 -337 294s-337 -120 -337 -294
c0 -167 128 -287 319 -294v474z" />
    <glyph glyph-name="Chi" unicode="&#x3a7;" horiz-adv-x="655" 
d="M574 0l-538 720h45l538 -720h-45zM234 264c7 10 19 12 27 6c8 -7 8 -17 2 -26l-182 -244h-45zM394 450c-8 7 -8 17 -2 26l182 244h45l-198 -264c-7 -10 -19 -12 -27 -6z" />
    <glyph glyph-name="Psi" unicode="&#x3a8;" horiz-adv-x="848" 
d="M406 0v135c-201 8 -296 148 -296 299v286h37v-291c0 -142 99 -261 277 -261s277 119 277 261v291h37v-286c0 -150 -95 -290 -295 -299v-135h-37zM424 260c-10 0 -18 8 -18 18v442h37v-442c0 -10 -9 -18 -19 -18z" />
    <glyph glyph-name="uni03A9" unicode="&#x3a9;" horiz-adv-x="840" 
d="M87 0v33h194c-94 36 -209 160 -209 332c0 190 127 346 301 370v-34c-156 -23 -264 -167 -264 -336c0 -168 109 -292 254 -337v-28h-276zM477 28c145 45 254 169 254 337c0 163 -102 300 -245 330c-13 3 -19 10 -19 19c0 8 7 16 19 16c3 0 6 0 19 -3
c149 -33 263 -181 263 -362c0 -172 -115 -296 -209 -332h194v-33h-276v28z" />
    <glyph glyph-name="Alphatonos" unicode="&#x386;" horiz-adv-x="716" 
d="M43 0l300 720h40l-191 -458h229c9 0 16 -7 16 -16s-7 -17 -16 -17h-243l-95 -229h-40zM418 543c-4 11 -1 21 9 26c9 4 20 -1 25 -13l228 -556h-40zM64 495l50 225h39l-52 -225h-37z" />
    <glyph glyph-name="Epsilontonos" unicode="&#x388;" horiz-adv-x="739" 
d="M252 577c0 10 8 18 18 18s19 -8 19 -18v-544h378v-33h-415v577zM399 355c-9 0 -16 7 -16 16s7 17 16 17h209v-33h-209zM252 687v33h415v-33h-415zM43 495l50 225h39l-52 -225h-37z" />
    <glyph glyph-name="Etatonos" unicode="&#x389;" horiz-adv-x="868" 
d="M721 0v355h-322c-9 0 -16 7 -16 16s7 17 16 17h322v332h37v-720h-37zM252 0v720h37v-720h-37zM43 495l50 225h39l-52 -225h-37z" />
    <glyph glyph-name="Iotatonos" unicode="&#x38a;" horiz-adv-x="399" 
d="M270 405c-10 0 -18 8 -18 18v297h37v-297c0 -10 -9 -18 -19 -18zM252 297c0 10 8 18 18 18s19 -8 19 -18v-297h-37v297zM43 495l50 225h39l-52 -225h-37z" />
    <glyph glyph-name="Omicrontonos" unicode="&#x38c;" horiz-adv-x="1007" 
d="M565 -15c-192 0 -346 136 -368 324h37c22 -169 160 -290 331 -290c186 0 333 150 333 341c0 196 -142 341 -333 341c-167 0 -301 -117 -326 -283c-1 -10 -9 -17 -19 -17c-11 0 -20 11 -18 24c29 184 177 310 363 310c212 0 370 -160 370 -375c0 -210 -163 -375 -370 -375
zM43 495l50 225h39l-52 -225h-37z" />
    <glyph glyph-name="Upsilontonos" unicode="&#x38e;" horiz-adv-x="857" 
d="M508 0v360l-276 360h45l268 -348v-372h-37zM600 462c-8 7 -6 18 0 26l176 232h45l-193 -253c-7 -9 -20 -12 -28 -5zM43 495l50 225h39l-52 -225h-37z" />
    <glyph glyph-name="Omegatonos" unicode="&#x38f;" horiz-adv-x="966" 
d="M213 0v33h194c-94 36 -209 160 -209 332c0 190 127 346 301 370v-34c-156 -23 -264 -167 -264 -336c0 -168 109 -292 254 -337v-28h-276zM603 28c145 45 254 169 254 337c0 163 -102 300 -245 330c-13 3 -19 10 -19 19c0 8 7 16 19 16c3 0 6 0 19 -3
c149 -33 263 -181 263 -362c0 -172 -115 -296 -209 -332h194v-33h-276v28zM43 495l50 225h39l-52 -225h-37z" />
    <glyph glyph-name="Iotadieresis" unicode="&#x3aa;" horiz-adv-x="257" 
d="M128 405c-10 0 -18 8 -18 18v297h37v-297c0 -10 -9 -18 -19 -18zM110 297c0 10 8 18 18 18s19 -8 19 -18v-297h-37v297zM229 852c-17 0 -31 14 -31 31s14 31 31 31s31 -14 31 -31s-14 -31 -31 -31zM29 852c-17 0 -31 14 -31 31s14 31 31 31s31 -14 31 -31
s-14 -31 -31 -31z" />
    <glyph glyph-name="Upsilondieresis" unicode="&#x3ab;" horiz-adv-x="661" 
d="M312 0v360l-276 360h45l268 -348v-372h-37zM404 462c-8 7 -6 18 0 26l176 232h45l-193 -253c-7 -9 -20 -12 -28 -5zM431 852c-17 0 -31 14 -31 31s14 31 31 31s31 -14 31 -31s-14 -31 -31 -31zM231 852c-17 0 -31 14 -31 31s14 31 31 31s31 -14 31 -31s-14 -31 -31 -31z
" />
    <glyph glyph-name="uni03CF" unicode="&#x3cf;" horiz-adv-x="654" 
d="M110 0v276l456 444h52l-471 -458v-262h-37zM110 -205v33h533l-295 492c-5 9 -3 20 6 25c8 5 19 2 24 -7l328 -543h-596zM128 417c-10 0 -18 8 -18 18v285h37v-285c0 -10 -9 -18 -19 -18z" />
    <glyph glyph-name="alpha" unicode="&#x3b1;" horiz-adv-x="635" 
d="M289 -15c-117 0 -212 85 -224 222h37c11 -116 88 -189 187 -189c108 0 187 88 187 237s-79 237 -187 237c-97 0 -172 -69 -186 -181c-1 -10 -9 -17 -19 -17s-17 8 -17 19c0 64 67 212 222 212c106 0 161 -65 187 -125v110h37v-418c0 -47 25 -64 59 -64c7 0 16 2 23 4v-32
c-10 -4 -22 -5 -29 -5c-40 0 -90 20 -90 91v24c-26 -60 -81 -125 -187 -125z" />
    <glyph glyph-name="beta" unicode="&#x3b2;" horiz-adv-x="599" 
d="M99 297c0 10 8 18 19 18c10 0 18 -8 18 -18v-105c0 -109 83 -174 189 -174c87 0 172 66 172 181c0 49 -10 84 -37 117c-14 17 -4 31 10 31c26 0 64 -70 64 -148c0 -134 -97 -214 -209 -214c-100 0 -159 48 -189 100v-290h-37v502zM272 375v33h31c85 0 158 52 158 151
c0 103 -75 153 -157 153c-99 0 -168 -65 -168 -170v-119c0 -10 -8 -18 -19 -18c-10 0 -18 8 -18 18v119c0 121 82 203 206 203c102 0 193 -66 193 -186s-89 -184 -198 -184h-28z" />
    <glyph glyph-name="gamma" unicode="&#x3b3;" horiz-adv-x="532" 
d="M248 20l-219 490h40l216 -482v-233h-37v225zM315 177l148 333h40l-155 -346c-5 -10 -15 -15 -24 -11s-14 13 -9 24z" />
    <glyph glyph-name="delta" unicode="&#x3b4;" horiz-adv-x="592" 
d="M298 -15c-117 0 -224 78 -233 207h38c7 -109 100 -174 192 -174c102 0 195 76 195 217s-93 217 -195 217c-89 0 -171 -58 -190 -156c-2 -12 -9 -17 -19 -17c-11 0 -20 8 -17 24c22 113 120 182 229 182c20 0 39 -3 57 -10l-150 121c-10 8 -12 21 -6 27c6 7 18 8 27 0
l104 -84c139 -112 197 -183 197 -304c0 -150 -104 -250 -229 -250zM90 712v33h397v-33h-397z" />
    <glyph glyph-name="epsilon" unicode="&#x3b5;" horiz-adv-x="535" 
d="M250 247c-95 0 -172 43 -172 134c0 99 91 144 190 144c123 0 203 -71 204 -167h-37c-2 79 -64 136 -167 136c-80 0 -155 -36 -155 -114c0 -70 63 -100 135 -100h57v-33h-55zM270 -15c-112 0 -205 51 -205 151c0 30 8 65 30 65c14 0 20 -15 14 -27s-7 -28 -7 -39
c0 -80 78 -119 169 -119c101 0 173 56 169 146h36c4 -110 -83 -177 -206 -177z" />
    <glyph glyph-name="zeta" unicode="&#x3b6;" horiz-adv-x="442" 
d="M65 231c0 104 56 208 179 333l48 49c14 14 26 17 35 8c7 -8 5 -18 -6 -29l-49 -51c-119 -125 -170 -217 -170 -310c0 -86 46 -148 133 -179l58 -21c86 -31 122 -70 122 -133c0 -33 -11 -67 -32 -103h-36c25 45 33 68 33 100c0 48 -31 81 -100 105l-49 17
c-112 39 -166 109 -166 214zM95 712v33h322v-33h-322z" />
    <glyph glyph-name="eta" unicode="&#x3b7;" horiz-adv-x="616" 
d="M122 132c0 10 8 18 19 18c10 0 18 -8 18 -18v-132h-37v132zM40 510c10 4 22 5 29 5c40 0 90 -20 90 -91v-1c22 43 82 102 180 102c117 0 178 -83 178 -186v-544h-37v540c0 89 -52 157 -142 157c-96 0 -179 -76 -179 -175v-59c0 -10 -8 -18 -19 -18c-10 0 -18 8 -18 18
v160c0 47 -25 64 -59 64c-7 0 -16 -2 -23 -4v32z" />
    <glyph glyph-name="theta" unicode="&#x3b8;" horiz-adv-x="596" 
d="M389 376c10 0 18 -8 18 -17s-8 -16 -18 -16h-287c4 -239 96 -325 196 -325c102 0 196 90 196 342s-94 342 -196 342c-78 0 -155 -54 -185 -206c-2 -12 -10 -20 -21 -18c-10 2 -17 12 -15 24c35 168 123 233 221 233c124 0 233 -105 233 -375s-109 -375 -233 -375
s-233 105 -233 375v16h324z" />
    <glyph glyph-name="iota" unicode="&#x3b9;" horiz-adv-x="258" 
d="M99 86v424h37v-418c0 -47 25 -64 59 -64c7 0 16 2 23 4v-32c-10 -4 -22 -5 -29 -5c-40 0 -90 20 -90 91z" />
    <glyph glyph-name="kappa" unicode="&#x3ba;" horiz-adv-x="562" 
d="M99 0v168l271 302c37 41 65 45 96 45c8 0 23 -2 31 -5v-35c-9 2 -23 5 -33 5c-17 0 -41 -4 -69 -35l-259 -290v-155h-37zM117 303c-10 0 -18 8 -18 18v189h37v-189c0 -10 -8 -18 -19 -18zM316 203c-6 9 -5 19 2 26c9 7 20 3 27 -6l167 -223h-45z" />
    <glyph glyph-name="lambda" unicode="&#x3bb;" horiz-adv-x="597" 
d="M335 368c11 5 23 0 28 -11l114 -277c14 -33 34 -50 59 -50c6 0 13 0 28 5v-35c-6 -3 -16 -5 -27 -5c-46 0 -73 21 -95 73l-114 276c-4 9 -1 19 7 24zM29 0l232 513l-57 149c-13 33 -36 48 -74 48c-11 0 -21 -1 -32 -4v33c10 4 24 6 36 6c53 0 85 -22 105 -72l62 -160
l-232 -513h-40z" />
    <glyph glyph-name="uni03BC" unicode="&#x3bc;" horiz-adv-x="606" 
d="M99 252c0 10 8 18 19 18c10 0 18 -8 18 -18v-77c0 -89 50 -157 138 -157c93 0 173 76 173 175v317h37v-418c0 -47 25 -64 59 -64c7 0 16 2 23 4v-32c-10 -4 -22 -5 -29 -5c-40 0 -90 20 -90 91v2c-22 -44 -79 -103 -175 -103c-61 0 -108 23 -138 71c1 -40 2 -79 2 -119
v-142h-37v457zM99 378v132h37v-132c0 -10 -8 -18 -19 -18c-10 0 -18 8 -18 18z" />
    <glyph glyph-name="nu" unicode="&#x3bd;" horiz-adv-x="532" 
d="M245 0l-216 510h40l216 -510h-40zM324 133c-10 4 -13 14 -9 24l148 353h40l-155 -366c-4 -10 -15 -15 -24 -11z" />
    <glyph glyph-name="xi" unicode="&#x3be;" horiz-adv-x="442" 
d="M347 -205c25 45 33 68 33 100c0 48 -31 81 -100 105l-49 17c-115 40 -166 94 -166 175c0 50 26 104 62 129c16 11 28 13 36 5c7 -7 5 -18 -3 -24c-41 -33 -58 -66 -58 -110c0 -62 42 -107 133 -140l58 -21c86 -31 122 -70 122 -133c0 -33 -11 -67 -32 -103h-36zM331 371
c-132 0 -221 76 -221 187c0 65 42 126 101 154h-116v33h322v-33h-83c-110 0 -187 -63 -187 -154s77 -154 187 -154h43v-33h-46z" />
    <glyph glyph-name="omicron" unicode="&#x3bf;" horiz-adv-x="618" 
d="M309 -15c-129 0 -231 92 -244 222h37c13 -110 99 -189 207 -189c121 0 207 99 207 237c0 139 -86 237 -207 237c-105 0 -189 -75 -205 -181c-2 -11 -9 -17 -18 -17c-14 0 -20 11 -16 31c21 117 119 200 239 200c144 0 244 -111 244 -270c0 -158 -101 -270 -244 -270z" />
    <glyph glyph-name="pi" unicode="&#x3c0;" horiz-adv-x="605" 
d="M446 372c0 10 8 18 19 18c10 0 18 -8 18 -18v-280c0 -47 25 -64 59 -64c7 0 16 2 23 4v-32c-10 -4 -22 -5 -29 -5c-40 0 -90 20 -90 91v286zM122 0v477h-82v33h525v-33h-406v-477h-37z" />
    <glyph glyph-name="rho" unicode="&#x3c1;" horiz-adv-x="613" 
d="M99 255c0 184 107 270 224 270c122 0 213 -90 225 -222h-37c-11 113 -87 189 -187 189c-108 0 -188 -88 -188 -237c0 -143 74 -237 187 -237c97 0 170 69 188 181c2 11 8 17 17 17c13 0 19 -11 16 -30c-18 -118 -109 -201 -221 -201c-85 0 -154 46 -187 126v-316h-37v460
z" />
    <glyph glyph-name="uni03C2" unicode="&#x3c2;" horiz-adv-x="586" 
d="M414 -205c25 45 33 68 33 100c0 48 -31 83 -100 105l-57 17c-137 41 -220 113 -225 215h37c5 -81 78 -146 192 -181l66 -20c86 -29 122 -70 122 -133c0 -33 -11 -67 -32 -103h-36zM84 319c-11 0 -19 10 -17 24c20 114 118 182 235 182c107 0 213 -63 225 -188h-37
c-13 106 -102 155 -188 155c-98 0 -181 -59 -198 -156c-2 -10 -10 -17 -20 -17z" />
    <glyph glyph-name="sigma" unicode="&#x3c3;" horiz-adv-x="628" 
d="M309 -15c-120 0 -230 81 -244 215h37c14 -114 108 -182 207 -182c107 0 207 81 207 230s-99 229 -207 229c-97 0 -189 -64 -205 -173c-2 -10 -8 -17 -18 -17s-18 8 -18 19c0 79 91 204 241 204h294v-33h-172c72 -41 122 -119 122 -229c0 -169 -114 -263 -244 -263z" />
    <glyph glyph-name="tau" unicode="&#x3c4;" horiz-adv-x="463" 
d="M40 477v33h383v-33h-383zM222 390c10 0 18 -9 18 -20v-238c0 -79 36 -107 88 -107c20 0 43 4 61 10v-35c-16 -6 -36 -10 -59 -10c-69 0 -127 38 -127 138v242c0 11 8 20 19 20z" />
    <glyph glyph-name="upsilon" unicode="&#x3c5;" horiz-adv-x="583" 
d="M292 -15c-134 0 -193 93 -193 196v71c0 10 8 18 19 18c10 0 18 -8 18 -18v-67c0 -89 50 -167 156 -167c105 0 155 78 155 167v325h37v-329c0 -103 -59 -196 -192 -196zM99 378v132h37v-132c0 -10 -8 -18 -19 -18c-10 0 -18 8 -18 18z" />
    <glyph glyph-name="phi" unicode="&#x3c6;" horiz-adv-x="758" 
d="M361 387c0 10 8 18 18 18c11 0 19 -8 19 -18v-592h-37v190c-185 7 -296 117 -296 270s110 263 296 270v170h37v-170c186 -7 295 -117 295 -270c0 -108 -66 -204 -170 -249c-9 -4 -19 1 -23 10c-4 8 1 18 11 23c88 40 145 125 145 216c0 139 -102 237 -277 237
s-277 -98 -277 -237c0 -134 96 -230 259 -237v369z" />
    <glyph glyph-name="chi" unicode="&#x3c7;" horiz-adv-x="555" 
d="M495 -210c-39 0 -71 11 -100 73l-270 567c-20 43 -45 50 -64 50c-10 0 -19 -2 -28 -4v34c8 3 19 5 27 5c39 0 71 -11 100 -73l270 -567c20 -43 45 -50 64 -50c10 0 19 2 28 4v-34c-8 -3 -19 -5 -27 -5zM185 21c5 10 17 14 27 9c9 -5 12 -17 7 -27l-113 -208h-44zM343 276
c-9 5 -12 17 -7 27l113 207h44l-123 -225c-5 -10 -17 -14 -27 -9z" />
    <glyph glyph-name="psi" unicode="&#x3c8;" horiz-adv-x="743" 
d="M353 -205v190c-177 8 -254 126 -254 246v279h37v-275c0 -110 76 -217 236 -217c159 0 235 107 235 217v275h37v-279c0 -120 -79 -238 -254 -246v-190h-37zM371 105c-10 0 -18 8 -18 18v572h37v-572c0 -10 -8 -18 -19 -18z" />
    <glyph glyph-name="omega" unicode="&#x3c9;" horiz-adv-x="733" 
d="M234 -15c-104 0 -163 91 -169 219h37c5 -103 48 -186 133 -186c72 0 114 72 114 179v133h37v-133c0 -107 42 -179 114 -179c80 0 123 73 132 167c1 11 8 19 18 19c12 0 19 -8 18 -25c-10 -116 -69 -194 -167 -194c-62 0 -116 42 -133 124c-18 -82 -72 -124 -134 -124z
M92 291c-14 0 -21 12 -18 27c22 112 87 179 168 192v-35c-67 -14 -115 -72 -132 -168c-2 -12 -10 -16 -18 -16zM628 291c-9 99 -65 169 -135 184v35c86 -14 161 -97 173 -219h-38z" />
    <glyph glyph-name="iotatonos" unicode="&#x3af;" horiz-adv-x="258" 
d="M99 86v424h37v-418c0 -47 25 -64 59 -64c7 0 16 2 23 4v-32c-10 -4 -22 -5 -29 -5c-40 0 -90 20 -90 91zM98 590l70 145h41l-72 -145h-39z" />
    <glyph glyph-name="iotadieresis" unicode="&#x3ca;" horiz-adv-x="258" 
d="M99 86v424h37v-418c0 -47 25 -64 59 -64c7 0 16 2 23 4v-32c-10 -4 -22 -5 -29 -5c-40 0 -90 20 -90 91zM218 642c-17 0 -31 14 -31 31s14 31 31 31s31 -14 31 -31s-14 -31 -31 -31zM18 642c-17 0 -31 14 -31 31s14 31 31 31s31 -14 31 -31s-14 -31 -31 -31z" />
    <glyph glyph-name="iotadieresistonos" unicode="&#x390;" horiz-adv-x="258" 
d="M99 86v424h37v-418c0 -47 25 -64 59 -64c7 0 16 2 23 4v-32c-10 -4 -22 -5 -29 -5c-40 0 -90 20 -90 91zM80 590l40 145h37l-42 -145h-35zM238 632c-17 0 -31 14 -31 31s14 31 31 31s31 -14 31 -31s-14 -31 -31 -31zM-2 632c-17 0 -31 14 -31 31s14 31 31 31
s31 -14 31 -31s-14 -31 -31 -31z" />
    <glyph glyph-name="upsilontonos" unicode="&#x3cd;" horiz-adv-x="583" 
d="M292 -15c-134 0 -193 93 -193 196v71c0 10 8 18 19 18c10 0 18 -8 18 -18v-67c0 -89 50 -167 156 -167c105 0 155 78 155 167v325h37v-329c0 -103 -59 -196 -192 -196zM99 378v132h37v-132c0 -10 -8 -18 -19 -18c-10 0 -18 8 -18 18zM272 590l70 145h41l-72 -145h-39z
" />
    <glyph glyph-name="upsilondieresis" unicode="&#x3cb;" horiz-adv-x="583" 
d="M292 -15c-134 0 -193 93 -193 196v71c0 10 8 18 19 18c10 0 18 -8 18 -18v-67c0 -89 50 -167 156 -167c105 0 155 78 155 167v325h37v-329c0 -103 -59 -196 -192 -196zM99 378v132h37v-132c0 -10 -8 -18 -19 -18c-10 0 -18 8 -18 18zM392 642c-17 0 -31 14 -31 31
s14 31 31 31s31 -14 31 -31s-14 -31 -31 -31zM192 642c-17 0 -31 14 -31 31s14 31 31 31s31 -14 31 -31s-14 -31 -31 -31z" />
    <glyph glyph-name="upsilondieresistonos" unicode="&#x3b0;" horiz-adv-x="583" 
d="M292 -15c-134 0 -193 93 -193 196v71c0 10 8 18 19 18c10 0 18 -8 18 -18v-67c0 -89 50 -167 156 -167c105 0 155 78 155 167v325h37v-329c0 -103 -59 -196 -192 -196zM99 378v132h37v-132c0 -10 -8 -18 -19 -18c-10 0 -18 8 -18 18zM254 590l40 145h37l-42 -145h-35z
M412 632c-17 0 -31 14 -31 31s14 31 31 31s31 -14 31 -31s-14 -31 -31 -31zM172 632c-17 0 -31 14 -31 31s14 31 31 31s31 -14 31 -31s-14 -31 -31 -31z" />
    <glyph glyph-name="omicrontonos" unicode="&#x3cc;" horiz-adv-x="618" 
d="M309 -15c-129 0 -231 92 -244 222h37c13 -110 99 -189 207 -189c121 0 207 99 207 237c0 139 -86 237 -207 237c-105 0 -189 -75 -205 -181c-2 -11 -9 -17 -18 -17c-14 0 -20 11 -16 31c21 117 119 200 239 200c144 0 244 -111 244 -270c0 -158 -101 -270 -244 -270z
M289 590l70 145h41l-72 -145h-39z" />
    <glyph glyph-name="omegatonos" unicode="&#x3ce;" horiz-adv-x="733" 
d="M234 -15c-104 0 -163 91 -169 219h37c5 -103 48 -186 133 -186c72 0 114 72 114 179v133h37v-133c0 -107 42 -179 114 -179c80 0 123 73 132 167c1 11 8 19 18 19c12 0 19 -8 18 -25c-10 -116 -69 -194 -167 -194c-62 0 -116 42 -133 124c-18 -82 -72 -124 -134 -124z
M92 291c-14 0 -21 12 -18 27c22 112 87 179 168 192v-35c-67 -14 -115 -72 -132 -168c-2 -12 -10 -16 -18 -16zM628 291c-9 99 -65 169 -135 184v35c86 -14 161 -97 173 -219h-38zM347 590l70 145h41l-72 -145h-39z" />
    <glyph glyph-name="alphatonos" unicode="&#x3ac;" horiz-adv-x="635" 
d="M289 -15c-117 0 -212 85 -224 222h37c11 -116 88 -189 187 -189c108 0 187 88 187 237s-79 237 -187 237c-97 0 -172 -69 -186 -181c-1 -10 -9 -17 -19 -17s-17 8 -17 19c0 64 67 212 222 212c106 0 161 -65 187 -125v110h37v-418c0 -47 25 -64 59 -64c7 0 16 2 23 4v-32
c-10 -4 -22 -5 -29 -5c-40 0 -90 20 -90 91v24c-26 -60 -81 -125 -187 -125zM289 590l70 145h41l-72 -145h-39z" />
    <glyph glyph-name="epsilontonos" unicode="&#x3ad;" horiz-adv-x="535" 
d="M250 247c-95 0 -172 43 -172 134c0 99 91 144 190 144c123 0 203 -71 204 -167h-37c-2 79 -64 136 -167 136c-80 0 -155 -36 -155 -114c0 -70 63 -100 135 -100h57v-33h-55zM270 -15c-112 0 -205 51 -205 151c0 30 8 65 30 65c14 0 20 -15 14 -27s-7 -28 -7 -39
c0 -80 78 -119 169 -119c101 0 173 56 169 146h36c4 -110 -83 -177 -206 -177zM253 590l70 145h41l-72 -145h-39z" />
    <glyph glyph-name="etatonos" unicode="&#x3ae;" horiz-adv-x="616" 
d="M122 132c0 10 8 18 19 18c10 0 18 -8 18 -18v-132h-37v132zM40 510c10 4 22 5 29 5c40 0 90 -20 90 -91v-1c22 43 82 102 180 102c117 0 178 -83 178 -186v-544h-37v540c0 89 -52 157 -142 157c-96 0 -179 -76 -179 -175v-59c0 -10 -8 -18 -19 -18c-10 0 -18 8 -18 18
v160c0 47 -25 64 -59 64c-7 0 -16 -2 -23 -4v32zM303 590l70 145h41l-72 -145h-39z" />
    <glyph glyph-name="uni03D7" unicode="&#x3d7;" horiz-adv-x="562" 
d="M99 0v168l271 302c37 41 65 45 96 45c8 0 23 -2 31 -5v-35c-9 2 -23 5 -33 5c-17 0 -41 -4 -69 -35l-259 -290v-155h-37zM117 303c-10 0 -18 8 -18 18v189h37v-189c0 -10 -8 -18 -19 -18zM306 186c8 5 19 2 24 -6l247 -385h-478v33h415l-213 333c-6 10 -4 20 5 25z" />
    <glyph glyph-name="zero" unicode="0" horiz-adv-x="608" 
d="M304 -15c-138 0 -221 117 -232 324h37c11 -183 83 -291 195 -291c121 0 195 128 195 339c0 213 -75 345 -195 345c-107 0 -179 -106 -194 -282c-1 -11 -9 -19 -19 -19c-11 0 -19 11 -18 23c16 198 100 311 231 311c147 0 232 -139 232 -378c0 -237 -84 -372 -232 -372z
" />
    <glyph glyph-name="one" unicode="1" horiz-adv-x="422" 
d="M271 405c-10 0 -18 8 -18 18v251l-181 -89v35l192 100h26v-297c0 -10 -9 -18 -19 -18zM253 297c0 10 8 18 18 18s19 -8 19 -18v-297h-37v297z" />
    <glyph glyph-name="two" unicode="2" horiz-adv-x="552" 
d="M145 135c-8 7 -8 19 1 28l163 163c99 99 128 147 128 212c0 92 -69 164 -158 164c-106 0 -187 -85 -183 -192h-37c-2 128 93 225 219 225c112 0 196 -85 196 -198c0 -66 -36 -130 -120 -214l-183 -185c-8 -8 -18 -9 -26 -3zM62 0v33h431v-33h-431z" />
    <glyph glyph-name="three" unicode="3" horiz-adv-x="585" 
d="M278 -15c-136 0 -229 93 -226 226h37c-1 -111 79 -193 189 -193c111 0 198 78 198 177c0 80 -41 145 -106 168c-13 5 -20 13 -18 22c2 12 16 16 35 10c73 -24 126 -108 126 -200c0 -119 -102 -210 -235 -210zM214 365l-23 23l270 299h-389v33h441v-28z" />
    <glyph glyph-name="four" unicode="4" horiz-adv-x="612" 
d="M55 196v33l345 491h42l-344 -491h181c9 0 16 -8 16 -17s-7 -16 -16 -16h-224zM389 481c0 10 9 18 19 18s18 -8 18 -18v-252h131v-33h-131v-196h-37v481z" />
    <glyph glyph-name="five" unicode="5" horiz-adv-x="570" 
d="M460 251c-14 89 -91 150 -187 150c-69 0 -138 -34 -171 -85l-35 12l75 392h35l-68 -351c32 37 100 65 164 65c120 0 210 -74 225 -183h-38zM267 -15c-123 0 -216 87 -215 201h37c0 -94 78 -168 177 -168c100 0 174 59 192 154c2 10 10 16 19 16c13 0 21 -12 18 -25
c-21 -110 -108 -178 -228 -178zM283 687c-11 0 -19 7 -19 17c0 9 8 16 19 16h193v-33h-193z" />
    <glyph glyph-name="six" unicode="6" horiz-adv-x="576" 
d="M290 -15c-116 0 -210 81 -225 193h37c13 -94 91 -160 188 -160c107 0 184 79 184 189c0 108 -76 184 -184 184c-90 0 -162 -53 -184 -134c-2 -10 -10 -16 -19 -16c-12 0 -19 13 -15 28c27 93 115 155 219 155c126 0 220 -92 220 -217c0 -126 -95 -222 -221 -222zM203 494
c-9 7 -9 19 1 31l149 195h44l-164 -218c-8 -11 -20 -14 -30 -8z" />
    <glyph glyph-name="seven" unicode="7" horiz-adv-x="639" 
d="M221 0c8 231 79 433 204 586c7 9 19 11 27 4c7 -6 8 -17 1 -26c-123 -150 -188 -337 -195 -564h-37zM83 687v33h473v-33h-473z" />
    <glyph glyph-name="eight" unicode="8" horiz-adv-x="594" 
d="M332 18c98 11 160 79 160 175c0 106 -78 176 -195 176s-195 -70 -195 -176c0 -88 54 -156 139 -173c12 -2 19 -10 17 -20c-2 -11 -16 -15 -37 -10c-91 19 -156 104 -156 203c0 92 58 171 141 193c-74 31 -116 91 -116 164c0 98 68 173 168 185v-33
c-78 -13 -129 -72 -129 -150c0 -90 68 -150 168 -150c101 0 168 60 168 150c0 72 -44 130 -112 147c-11 2 -18 10 -16 20c2 13 18 16 41 9c71 -22 126 -100 126 -178c0 -73 -42 -133 -116 -164c83 -22 141 -101 141 -193c0 -115 -77 -196 -197 -208v33z" />
    <glyph glyph-name="nine" unicode="9" horiz-adv-x="576" 
d="M286 735c116 0 210 -81 225 -193h-37c-13 94 -91 160 -188 160c-107 0 -184 -79 -184 -189c0 -108 76 -184 184 -184c90 0 162 53 184 134c2 10 10 16 19 16c12 0 19 -13 15 -28c-27 -93 -115 -155 -219 -155c-126 0 -220 92 -220 217c0 126 95 222 221 222zM373 226
c9 -7 9 -19 -1 -31l-149 -195h-44l164 218c8 11 20 14 30 8z" />
    <glyph glyph-name="period" unicode="." horiz-adv-x="204" 
d="M102 -7c-20 0 -37 17 -37 37s17 37 37 37s37 -17 37 -37s-17 -37 -37 -37z" />
    <glyph glyph-name="comma" unicode="," horiz-adv-x="204" 
d="M53 -127l46 120c-20 3 -34 17 -34 37s17 37 37 37s37 -17 37 -37c0 -7 -2 -14 -8 -30l-48 -127h-30z" />
    <glyph glyph-name="colon" unicode=":" horiz-adv-x="204" 
d="M102 -7c-20 0 -37 17 -37 37s17 37 37 37s37 -17 37 -37s-17 -37 -37 -37zM102 443c-20 0 -37 17 -37 37s17 37 37 37s37 -17 37 -37s-17 -37 -37 -37z" />
    <glyph glyph-name="semicolon" unicode=";" horiz-adv-x="204" 
d="M53 -127l46 120c-20 3 -34 17 -34 37s17 37 37 37s37 -17 37 -37c0 -7 -2 -14 -8 -30l-48 -127h-30zM102 443c-20 0 -37 17 -37 37s17 37 37 37s37 -17 37 -37s-17 -37 -37 -37z" />
    <glyph glyph-name="exclam" unicode="!" horiz-adv-x="260" 
d="M115 190l-5 530h40l-5 -530h-30zM130 -7c-20 0 -37 17 -37 37s17 37 37 37s37 -17 37 -37s-17 -37 -37 -37z" />
    <glyph glyph-name="question" unicode="?" horiz-adv-x="480" 
d="M314 452c-12 -5 -23 -1 -26 8c-4 10 1 19 12 24c40 19 78 47 78 101c0 72 -66 117 -137 117c-78 0 -158 -54 -158 -140h-37c0 108 96 173 192 173c93 0 177 -58 177 -152c0 -77 -56 -111 -101 -131zM238 180c-72 0 -144 40 -144 129c0 78 55 115 93 131c14 6 25 2 28 -8
s-2 -17 -11 -21c-36 -15 -73 -46 -73 -101c0 -66 56 -97 108 -97c60 0 120 42 124 133h37c-2 -107 -75 -166 -162 -166zM238 -7c-20 0 -37 17 -37 37s17 37 37 37s37 -17 37 -37s-17 -37 -37 -37z" />
    <glyph glyph-name="asterisk" unicode="*" horiz-adv-x="472" 
d="M81 423l-16 27l155 90v180h32v-180l155 -90l-16 -27l-155 89zM221 447c0 9 6 16 15 16s15 -8 15 -16v-105h-30v105zM155 560l-90 52l16 27l89 -53c10 -6 10 -14 7 -20c-6 -10 -15 -10 -22 -6zM317 560c-8 -5 -17 -2 -22 6c-4 7 -1 15 7 20l89 53l16 -27z" />
    <glyph glyph-name="numbersign" unicode="#" horiz-adv-x="637" 
d="M430 326c-10 0 -17 10 -15 23l19 132h-359v33h131l29 206h34l-29 -206h198l29 206h34l-29 -206h110v-33h-115l-19 -139c-1 -9 -9 -16 -18 -16zM188 378c1 9 9 16 18 16c10 0 17 -10 15 -23l-19 -132h360v-33h-132l-29 -206h-34l29 206h-198l-29 -206h-34l29 206h-109v33
h114z" />
    <glyph glyph-name="hyphen" unicode="-" horiz-adv-x="454" 
d="M72 317v31h310v-31h-310z" />
    <glyph glyph-name="endash" unicode="&#x2013;" horiz-adv-x="619" 
d="M108 317v31h403v-31h-403z" />
    <glyph glyph-name="emdash" unicode="&#x2014;" horiz-adv-x="908" 
d="M144 317v31h620v-31h-620z" />
    <glyph glyph-name="parenleft" unicode="(" horiz-adv-x="336" 
d="M87 358c-9 0 -16 10 -15 22c14 145 75 300 214 414l21 -24c-117 -94 -186 -248 -201 -394c-1 -11 -9 -18 -19 -18zM286 -169c-139 114 -200 269 -214 414c-1 12 6 22 15 22c10 0 18 -7 19 -18c15 -146 84 -300 201 -394z" />
    <glyph glyph-name="parenright" unicode=")" horiz-adv-x="336" 
d="M249 267c9 0 16 -10 15 -22c-14 -145 -75 -300 -214 -414l-21 24c117 94 186 248 201 394c1 11 9 18 19 18zM50 794c139 -114 200 -269 214 -414c1 -12 -6 -22 -15 -22c-10 0 -18 7 -19 18c-15 146 -84 300 -201 394z" />
    <glyph glyph-name="braceleft" unicode="{" horiz-adv-x="432" 
d="M55 296v33h28c68 0 107 25 107 83v254c0 81 45 124 128 124h59v-33h-66c-48 0 -84 -27 -84 -95v-247c0 -70 -42 -119 -144 -119h-28zM318 -165c-83 0 -128 43 -128 124v268c0 11 7 19 18 19s19 -8 19 -19v-264c0 -68 36 -95 84 -95h66v-33h-59z" />
    <glyph glyph-name="braceright" unicode="}" horiz-adv-x="487" 
d="M432 329v-33h-28c-68 0 -107 -25 -107 -83v-254c0 -81 -45 -124 -128 -124h-59v33h66c48 0 84 27 84 95v247c0 70 42 119 144 119h28zM169 790c83 0 128 -43 128 -124v-268c0 -11 -7 -19 -18 -19s-19 8 -19 19v264c0 68 -36 95 -84 95h-66v33h59z" />
    <glyph glyph-name="bracketleft" unicode="[" horiz-adv-x="341" 
d="M110 651c0 11 7 19 18 19s19 -8 19 -19v-783h139v-33h-176v816zM110 757v33h176v-33h-176z" />
    <glyph glyph-name="bracketright" unicode="]" horiz-adv-x="341" 
d="M231 -26c0 -11 -7 -19 -18 -19s-19 8 -19 19v783h-139v33h176v-816zM231 -132v-33h-176v33h176z" />
    <glyph glyph-name="quotesinglbase" unicode="&#x201a;" horiz-adv-x="204" 
d="M53 -127l46 120c-20 3 -34 17 -34 37s17 37 37 37s37 -17 37 -37c0 -7 -2 -14 -8 -30l-48 -127h-30z" />
    <glyph glyph-name="quotedblbase" unicode="&#x201e;" horiz-adv-x="358" 
d="M53 -127l46 120c-20 3 -34 17 -34 37s17 37 37 37s37 -17 37 -37c0 -7 -2 -14 -8 -30l-48 -127h-30zM207 -127l46 120c-20 3 -34 17 -34 37s17 37 37 37s37 -17 37 -37c0 -7 -2 -14 -8 -30l-48 -127h-30z" />
    <glyph glyph-name="quotedblleft" unicode="&#x201c;" horiz-adv-x="358" 
d="M293 720l-46 -120c20 -3 34 -17 34 -37s-17 -37 -37 -37s-37 17 -37 37c0 7 2 14 8 30l48 127h30zM139 720l-46 -120c20 -3 34 -17 34 -37s-17 -37 -37 -37s-37 17 -37 37c0 7 2 14 8 30l48 127h30z" />
    <glyph glyph-name="quotedblright" unicode="&#x201d;" horiz-adv-x="358" 
d="M53 533l46 120c-20 3 -34 17 -34 37s17 37 37 37s37 -17 37 -37c0 -7 -2 -14 -8 -30l-48 -127h-30zM207 533l46 120c-20 3 -34 17 -34 37s17 37 37 37s37 -17 37 -37c0 -7 -2 -14 -8 -30l-48 -127h-30z" />
    <glyph glyph-name="quoteleft" unicode="&#x2018;" horiz-adv-x="204" 
d="M139 720l-46 -120c20 -3 34 -17 34 -37s-17 -37 -37 -37s-37 17 -37 37c0 7 2 14 8 30l48 127h30z" />
    <glyph glyph-name="quoteright" unicode="&#x2019;" horiz-adv-x="204" 
d="M53 533l46 120c-20 3 -34 17 -34 37s17 37 37 37s37 -17 37 -37c0 -7 -2 -14 -8 -30l-48 -127h-30z" />
    <glyph glyph-name="guillemotleft" unicode="&#xab;" horiz-adv-x="472" 
d="M197 141l-132 191l22 31l154 -222h-44zM144 415c-7 5 -9 15 -2 25l55 83h44l-68 -101c-7 -11 -21 -14 -29 -7zM253 301l-22 31l132 191h44zM308 224c-7 10 -5 20 2 25c8 7 22 4 29 -7l68 -101h-44z" />
    <glyph glyph-name="guillemotright" unicode="&#xbb;" horiz-adv-x="472" 
d="M275 523l132 -191l-22 -31l-154 222h44zM328 249c7 -5 9 -15 2 -25l-55 -83h-44l68 101c7 11 21 14 29 7zM219 363l22 -31l-132 -191h-44zM164 440c7 -10 5 -20 -2 -25c-8 -7 -22 -4 -29 7l-68 101h44z" />
    <glyph glyph-name="guilsinglleft" unicode="&#x2039;" horiz-adv-x="306" 
d="M197 141l-132 191l22 31l154 -222h-44zM144 415c-7 5 -9 15 -2 25l55 83h44l-68 -101c-7 -11 -21 -14 -29 -7z" />
    <glyph glyph-name="guilsinglright" unicode="&#x203a;" horiz-adv-x="306" 
d="M109 523l132 -191l-22 -31l-154 222h44zM162 249c7 -5 9 -15 2 -25l-55 -83h-44l68 101c7 11 21 14 29 7z" />
    <glyph glyph-name="quotedbl" unicode="&#x22;" horiz-adv-x="339" 
d="M88 505l-2 215h38l-2 -215h-34zM217 505l-2 215h38l-2 -215h-34z" />
    <glyph glyph-name="quotesingle" unicode="'" horiz-adv-x="210" 
d="M88 505l-2 215h38l-2 -215h-34z" />
    <glyph glyph-name="at" unicode="@" horiz-adv-x="908" 
d="M171 74c-8 -8 -22 -6 -30 5c-44 63 -69 142 -69 231c0 225 166 398 382 398c101 0 191 -34 258 -92l-23 -23c-61 52 -143 82 -235 82c-197 0 -345 -154 -345 -365c0 -82 22 -154 62 -212c6 -8 6 -18 0 -24zM476 -82c-111 0 -206 35 -276 96l25 24c63 -55 149 -87 251 -87
c53 0 113 11 144 26v-37c-26 -7 -84 -22 -144 -22zM438 119c-83 0 -148 59 -159 163h37c10 -83 60 -130 127 -130c74 0 128 60 128 161c0 100 -54 160 -128 160c-62 0 -110 -41 -124 -112c-2 -9 -9 -16 -18 -16c-12 0 -21 10 -18 25c18 87 79 136 155 136
c73 0 113 -41 133 -76v66h37v-261c0 -54 31 -83 69 -83c70 0 122 75 122 189c0 74 -20 139 -56 192c-6 8 -6 18 0 24c7 7 21 5 29 -6c41 -58 64 -130 64 -210c0 -143 -73 -222 -159 -222c-49 0 -93 27 -103 82c-18 -37 -60 -82 -136 -82z" />
    <glyph glyph-name="ampersand" unicode="&#x26;" horiz-adv-x="661" 
d="M273 -15c-110 0 -208 73 -208 190c0 106 72 164 152 204l22 11c-48 55 -88 113 -88 180c0 104 86 165 175 165c87 0 159 -63 159 -155c0 -60 -37 -125 -109 -161c-8 -4 -17 -2 -22 4c-7 9 -4 20 8 27c57 33 86 80 86 130c0 74 -57 122 -122 122c-69 0 -138 -45 -138 -132
c0 -66 43 -122 98 -182l143 -155c8 -8 8 -20 0 -26c-7 -6 -18 -5 -24 2l-143 156l-29 -15c-64 -32 -131 -82 -131 -175c0 -95 82 -157 171 -157c163 0 255 136 246 342h36c2 -85 -12 -160 -39 -220l130 -140h-49l-99 107c-47 -77 -123 -122 -225 -122z" />
    <glyph glyph-name="dollar" unicode="$" horiz-adv-x="554" 
d="M259 239c0 11 8 19 18 19s17 -8 17 -19v-221c79 4 165 51 165 156c0 67 -30 132 -140 166l-77 24c-116 36 -170 89 -170 183c0 108 90 181 187 187v96h35v-96c100 -8 182 -77 192 -202h-37c-10 109 -82 170 -175 170c-81 0 -165 -59 -165 -155c0 -80 50 -123 135 -149
l15 -5v194c0 11 8 19 18 19s17 -8 17 -19v-205l37 -11c116 -36 165 -103 165 -197c0 -120 -99 -185 -202 -189v-95h-35v96c-122 9 -201 88 -209 232h37c5 -119 70 -189 172 -199v220z" />
    <glyph glyph-name="Euro" unicode="&#x20ac;" horiz-adv-x="740" 
d="M198 559c-9 4 -13 16 -5 28c56 90 151 148 271 148c89 0 170 -39 212 -96l-27 -21c-38 49 -111 83 -185 83c-106 0 -191 -52 -242 -132c-6 -10 -15 -14 -24 -10zM44 436v33h499l-8 -33h-357c-4 -24 -6 -49 -6 -76c0 -193 123 -341 292 -341c81 0 148 29 194 91l28 -20
c-47 -64 -127 -105 -222 -105c-157 0 -277 110 -315 266h-105v33h98c-4 24 -6 50 -6 76s2 52 6 76h-98zM298 251c-11 0 -19 7 -19 17c0 9 8 16 19 16h200l-8 -33h-192z" />
    <glyph glyph-name="plus" unicode="+" horiz-adv-x="600" 
d="M283 77v239h-230v33h230v238h35v-510h-35zM416 316c-10 0 -18 7 -18 17c0 9 8 16 18 16h131v-33h-131z" />
    <glyph glyph-name="percent" unicode="%" horiz-adv-x="800" 
d="M215 352c-73 0 -136 61 -150 160h32c12 -84 63 -130 118 -130c65 0 119 62 119 158c0 95 -54 157 -119 157c-54 0 -98 -42 -115 -125c-1 -7 -8 -12 -15 -12c-11 0 -18 10 -15 22c20 96 77 145 145 145c83 0 150 -74 150 -187c0 -114 -67 -188 -150 -188zM426 396
c-6 5 -9 16 -3 24l228 315l26 -20l-228 -315c-6 -8 -16 -9 -23 -4zM148 -15l-26 20l228 315c6 8 16 9 23 3c7 -4 9 -15 3 -23zM585 -8c-73 0 -136 61 -150 160h32c12 -84 63 -130 118 -130c65 0 119 62 119 158c0 95 -54 157 -119 157c-54 0 -98 -42 -115 -125
c-1 -7 -8 -12 -15 -12c-11 0 -18 10 -15 22c20 96 77 145 145 145c83 0 150 -74 150 -187c0 -114 -67 -188 -150 -188z" />
    </font>
</defs>
</svg>
