<svg width="24" height="24" viewBox="0 0 24 24" fill="none" xmlns="http://www.w3.org/2000/svg">
<g clip-path="url(#clip0_508_592)">
<path d="M19.7446 5.58904C19.7446 6.35823 19.1243 6.97855 18.3551 6.97855C17.5859 6.97855 16.9656 6.35203 16.9656 5.58904C16.9656 4.82605 17.5921 4.19953 18.3551 4.19953C19.1181 4.19953 19.7446 4.82605 19.7446 5.58904ZM18.014 11.8294C18.014 15.0551 15.39 17.679 12.1644 17.679C8.93874 17.679 6.31481 15.0551 6.31481 11.8294C6.31481 8.60377 8.93874 5.97984 12.1644 5.97984C15.39 5.97984 18.014 8.60377 18.014 11.8294ZM15.9111 11.8294C15.9111 9.76376 14.23 8.08271 12.1644 8.08271C10.0987 8.08271 8.41768 9.76376 8.41768 11.8294C8.41768 13.8951 10.0987 15.5761 12.1644 15.5761C14.23 15.5761 15.9111 13.8951 15.9111 11.8294ZM24 7.13363C24 3.19462 20.8054 0 16.8664 0H7.13363C3.19462 0 0 3.19462 0 7.13363V16.8664C0 20.8054 3.19462 24 7.13363 24H16.8664C20.8054 24 24 20.8054 24 16.8664V7.13363ZM21.6552 16.7609C21.6552 19.4655 19.4593 21.6614 16.7547 21.6614H7.23288C4.5283 21.6614 2.33239 19.4655 2.33239 16.7609V7.23908C2.33239 4.53451 4.5283 2.33859 7.23288 2.33859H16.7547C19.4593 2.33859 21.6552 4.53451 21.6552 7.23908V16.7609Z" fill="black"/>
</g>
<defs>
<clipPath id="clip0_508_592">
<rect width="24" height="24" fill="white"/>
</clipPath>
</defs>
</svg>
