<svg width="25" height="16" viewBox="0 0 25 16" fill="none" xmlns="http://www.w3.org/2000/svg">
<path fill-rule="evenodd" clip-rule="evenodd" d="M0 2.29133C0 1.53999 0.60908 0.930908 1.36042 0.930908H23.6396C24.3909 0.930908 25 1.53999 25 2.29133C25 3.04267 24.3909 3.65175 23.6396 3.65175H1.36042C0.609079 3.65175 0 3.04267 0 2.29133Z" fill="white"/>
<path fill-rule="evenodd" clip-rule="evenodd" d="M0 8.28815C0 7.53681 0.60908 6.92773 1.36042 6.92773H23.6396C24.3909 6.92773 25 7.53681 25 8.28815C25 9.03949 24.3909 9.64857 23.6396 9.64857H1.36042C0.609079 9.64857 0 9.03949 0 8.28815Z" fill="white"/>
<path fill-rule="evenodd" clip-rule="evenodd" d="M0 14.2852C0 13.5339 0.60908 12.9248 1.36042 12.9248H23.6396C24.3909 12.9248 25 13.5339 25 14.2852C25 15.0366 24.3909 15.6456 23.6396 15.6456H1.36042C0.609079 15.6456 0 15.0366 0 14.2852Z" fill="white"/>
</svg>
