<svg width="53" height="51" viewBox="0 0 53 51" fill="none" xmlns="http://www.w3.org/2000/svg">
<path d="M51.5172 35.2657C51.5172 42.9197 45.9779 49.1228 39.143 49.1228C36.9293 49.1228 34.8483 48.4716 33.0426 47.3292C29.87 45.3186 27.5747 41.7887 26.9422 37.619C26.83 36.8536 26.7688 36.0654 26.7688 35.2657C26.7688 31.7129 27.9624 28.4572 29.9312 26.0125C32.1959 23.1908 35.4807 21.4087 39.143 21.4087C45.9779 21.4087 51.5172 27.6118 51.5172 35.2657Z" stroke="white" stroke-width="2.89203" stroke-miterlimit="10"/>
<path d="M39.1329 8.93384V21.4086C35.4808 21.4086 32.1858 23.1793 29.9211 26.0124C27.9522 28.4685 26.7586 31.7128 26.7586 35.2656C26.7586 36.0653 26.8199 36.8535 26.9321 37.6189C27.5646 41.7886 29.8701 45.3185 33.0325 47.3291C29.7374 48.4487 25.3611 49.1227 20.5664 49.1227C10.3141 49.1227 2 46.0154 2 42.1884V8.93384" stroke="white" stroke-width="2.89203" stroke-miterlimit="10"/>
<path d="M39.1327 8.93423C39.1327 12.7612 30.8186 15.8685 20.5662 15.8685C10.3139 15.8685 2.01001 12.7612 2.01001 8.93423C2.01001 5.10727 10.3241 2 20.5764 2C30.8288 2 39.1429 5.10727 39.1429 8.93423H39.1327Z" stroke="white" stroke-width="2.89203" stroke-miterlimit="10"/>
<path d="M2.01001 31.1069C2.01001 34.9339 10.3241 38.0412 20.5764 38.0412C22.8105 38.0412 24.9528 37.8927 26.9421 37.6185" stroke="white" stroke-width="2.89203" stroke-miterlimit="10"/>
<path d="M2.01001 20.0149C2.01001 23.8419 10.3241 26.9491 20.5764 26.9491C23.9837 26.9491 27.1869 26.6064 29.9311 26.0009" stroke="white" stroke-width="2.89203" stroke-miterlimit="10"/>
<path d="M44.7028 32.4897L37.8985 40.1094L34.1852 35.9511" stroke="white" stroke-width="2.89203" stroke-miterlimit="10"/>
</svg>
