<svg width="55" height="55" viewBox="0 0 55 55" fill="none" xmlns="http://www.w3.org/2000/svg">
<g clip-path="url(#clip0_875_26)">
<path d="M27.5042 55.0084C42.6943 55.0084 55.0084 42.6943 55.0084 27.5042C55.0084 12.314 42.6943 0 27.5042 0C12.314 0 0 12.314 0 27.5042C0 42.6943 12.314 55.0084 27.5042 55.0084Z" fill="#CAAD8E"/>
<path d="M34.1901 28.2814C33.5382 27.8886 32.6857 27.4541 31.9169 27.7716C31.3235 28.014 30.9474 28.9417 30.563 29.4097C30.3624 29.6521 30.1284 29.6938 29.8275 29.5685C27.6045 28.6826 25.9079 27.2033 24.6794 25.1558C24.4704 24.8382 24.5122 24.5875 24.7629 24.295C25.1307 23.8604 25.5987 23.3673 25.699 22.7739C25.7993 22.1889 25.5235 21.5036 25.2811 20.9771C24.9719 20.3085 24.6209 19.3557 23.9523 18.9797C23.3338 18.6287 22.5232 18.8292 21.9799 19.2722C21.0355 20.041 20.5759 21.2529 20.5926 22.448C20.5926 22.7906 20.6344 23.1249 20.718 23.4592C20.9102 24.2448 21.2696 24.9886 21.6874 25.6823C21.9966 26.2088 22.3309 26.727 22.6987 27.2201C23.8854 28.833 25.3647 30.2371 27.0779 31.2817C27.9304 31.8083 28.8497 32.2679 29.8108 32.5771C30.8806 32.9281 31.8333 33.2959 32.9866 33.0786C34.1984 32.8529 35.3852 32.1008 35.8699 30.9391C36.012 30.5964 36.0872 30.212 36.0036 29.8443C35.8365 29.0921 34.8169 28.6408 34.2068 28.2814H34.1901Z" fill="white"/>
<path d="M28.2731 10.1709C19.5062 10.1709 12.3773 17.2998 12.3773 26.0667C12.3773 28.7494 13.0626 31.3903 14.3748 33.7471L12.0681 42.3552L20.7264 40.0402C23.0497 41.3022 25.6489 41.9708 28.2815 41.9708C37.0484 41.9708 44.1772 34.8419 44.1772 26.075C44.1772 17.3081 37.0484 10.1793 28.2815 10.1793L28.2731 10.1709ZM28.2731 38.9621C25.9665 38.9621 23.6932 38.3353 21.6875 37.1402L21.1442 36.8143L16.3137 38.1097L17.6007 33.3042L17.2664 32.7526C16.0295 30.7301 15.3776 28.4151 15.3776 26.0667C15.3776 18.9545 21.161 13.1712 28.2731 13.1712C35.3852 13.1712 41.1686 18.9545 41.1686 26.0667C41.1686 33.1788 35.3852 38.9621 28.2731 38.9621Z" fill="white"/>
</g>
<defs>
<clipPath id="clip0_875_26">
<rect width="55" height="55" fill="white"/>
</clipPath>
</defs>
</svg>
