<svg width="27" height="26" viewBox="0 0 27 26" fill="none" xmlns="http://www.w3.org/2000/svg">
<g clip-path="url(#clip0_508_594)">
<path d="M0.445441 8.62895H6.04862V25.9925H0.445441V8.62895ZM3.24313 0C5.03271 0 6.48625 1.40296 6.48625 3.13026C6.48625 4.85756 5.03271 6.26052 3.24313 6.26052C1.45355 6.26052 0 4.85756 0 3.13026C0 1.40296 1.45355 0 3.24313 0ZM9.54964 26H15.1372V17.4088C15.1372 15.1459 15.5826 12.951 18.4897 12.951C21.3968 12.951 21.3968 15.5381 21.3968 17.5596V26H26.9844V16.4735C26.9844 11.7969 25.9372 8.19901 20.2793 8.19901C17.552 8.19901 15.7311 9.63969 14.9809 11.0049H14.9106V8.62895H9.54182V25.9925L9.54964 26Z" fill="black"/>
</g>
<defs>
<clipPath id="clip0_508_594">
<rect width="27" height="26" fill="white"/>
</clipPath>
</defs>
</svg>
