<svg width="12" height="13" viewBox="0 0 12 13" fill="none" xmlns="http://www.w3.org/2000/svg">
<path d="M6 1.08447C4.065 1.08447 2.5 2.64947 2.5 4.58447C2.5 7.20947 6 11.0845 6 11.0845C6 11.0845 9.5 7.20947 9.5 4.58447C9.5 2.64947 7.935 1.08447 6 1.08447ZM3.5 4.58447C3.5 3.20447 4.62 2.08447 6 2.08447C7.38 2.08447 8.5 3.20447 8.5 4.58447C8.5 6.02447 7.06 8.17947 6 9.52447C4.96 8.18947 3.5 6.00947 3.5 4.58447Z" fill="black"/>
<path d="M6 5.83447C6.69036 5.83447 7.25 5.27483 7.25 4.58447C7.25 3.89412 6.69036 3.33447 6 3.33447C5.30964 3.33447 4.75 3.89412 4.75 4.58447C4.75 5.27483 5.30964 5.83447 6 5.83447Z" fill="black"/>
</svg>
