<svg width="59" height="55" viewBox="0 0 59 55" fill="none" xmlns="http://www.w3.org/2000/svg">
<path d="M57.5585 38.694C57.0957 37.6357 56.3053 36.8419 55.322 36.4782C54.3387 36.1033 53.2879 36.1915 52.3625 36.7207L47.0315 39.7853C46.6459 38.1758 45.4698 36.9301 43.9467 36.7868L39.6086 36.3459C38.7506 36.2467 37.9216 35.9931 37.1889 35.5962L32.7641 32.9174C30.9711 31.9583 28.9949 31.5174 27.0572 31.6827C24.9653 31.8371 20.9357 32.4875 17.4364 35.0561C16.3663 35.8388 15.2866 36.4451 14.2069 36.9742V36.5884C14.2069 35.9821 13.7731 35.486 13.2429 35.486H1.96401C1.4338 35.486 1 35.9821 1 36.5884V52.7165C1 53.3228 1.4338 53.8189 1.96401 53.8189H13.2236C13.7539 53.8189 14.1877 53.3228 14.1877 52.7165V51.3495C16.4434 51.2833 17.6099 51.4818 18.8438 51.6912L30.7686 53.5433L38.5675 54.2708C38.7699 54.3039 38.982 54.326 39.1844 54.326C39.8303 54.326 40.4666 54.1386 41.0353 53.7858L55.9389 44.5587C57.7898 43.4122 58.4936 40.8326 57.5585 38.683V38.694ZM12.2596 51.603H2.93766V37.6908H12.2693V51.603H12.2596ZM55.0135 42.6185L40.1099 51.8456C39.7339 52.0771 39.3001 52.1653 38.7988 52.0771L30.9807 51.3495L19.1427 49.5085C17.8316 49.277 16.5784 49.0675 14.1973 49.1337V39.3554C15.6337 38.7381 17.0701 37.9443 18.4679 36.9191C21.6009 34.6151 25.2641 34.0308 27.1632 33.8875C28.7924 33.7552 30.4312 34.1301 31.8869 34.9017L36.3117 37.5806C37.2853 38.0987 38.3361 38.4294 39.4158 38.5507L43.7635 38.9916C44.6215 39.0798 45.2673 39.8846 45.2673 40.8657C45.2673 41.9019 44.5251 42.7508 43.6189 42.7508H34.2873C33.7571 42.7508 33.3233 43.2469 33.3233 43.8532C33.3233 44.4595 33.7571 44.9556 34.2873 44.9556H43.6189C45.1517 44.9556 46.4434 43.8532 46.9544 42.2988L53.2204 38.694C53.6832 38.4294 54.2037 38.3853 54.705 38.5727C55.1967 38.7601 55.5919 39.157 55.8233 39.6861C56.2956 40.7555 55.9389 42.0453 55.0135 42.6185Z" fill="white" stroke="white" stroke-width="0.96401" stroke-miterlimit="10"/>
<path d="M8.65442 43.4562H9.84979C10.2161 43.4562 10.5246 43.1145 10.5246 42.6846V39.7412C10.5246 39.3223 10.2258 38.9695 9.84979 38.9695H8.65442C8.2881 38.9695 7.97961 39.3112 7.97961 39.7412V42.6846C7.97961 43.1035 8.27846 43.4562 8.65442 43.4562Z" fill="white" stroke="white" stroke-width="0.96401" stroke-miterlimit="10"/>
<path d="M57.0091 8.58759C56.5464 5.98593 55.2257 3.80319 53.317 2.44724C51.36 1.05822 48.9307 0.661355 46.646 1.34484C44.9108 1.87399 43.378 3.00946 42.0959 4.74022C42.0381 4.81739 41.9802 4.89456 41.932 4.97173C41.6332 4.54179 41.315 4.14493 40.968 3.78114C38.6929 1.37791 36.0419 0.518043 33.092 1.25665C29.4192 2.17164 26.7874 5.84262 26.6814 10.164C26.6621 11.2333 26.7007 12.2806 26.8163 13.2948C27.0091 14.9815 27.414 16.4697 28.0406 17.8477C28.6383 19.1596 29.4674 20.4053 30.6242 21.7723C31.8485 23.2164 33.1884 24.5393 34.6537 25.9944C36.871 28.1992 39.04 30.3599 41.1415 32.6529C41.3247 32.8513 41.6139 32.9616 41.8934 32.9616C42.173 32.9616 42.4622 32.8624 42.655 32.6529C43.5033 31.7269 44.3613 30.8229 45.2289 29.93C46.2893 28.8386 47.369 27.7693 48.4487 26.7C49.2392 25.9173 50.0393 25.1235 50.8298 24.3298C51.9192 23.2274 53.076 22.0148 54.0882 20.6699C55.351 18.9942 56.1801 17.2635 56.6428 15.4004C56.9417 14.1657 57.1055 12.8428 57.1441 11.3436C57.1634 10.5388 57.1634 9.57975 56.9899 8.57657L57.0091 8.58759ZM55.2257 11.2774C55.1872 12.5893 55.0426 13.7468 54.7823 14.8051C54.4063 16.3485 53.7026 17.8036 52.6229 19.2257C51.736 20.4053 50.7527 21.4636 49.5573 22.6762C48.7765 23.4699 47.986 24.2527 47.1955 25.0354C46.1062 26.1157 45.0168 27.1961 43.9468 28.2984C43.2623 29.004 42.5779 29.7205 41.9127 30.4371C39.9654 28.3425 37.9603 26.3362 35.7623 24.1534C34.4995 22.9077 33.1981 21.6179 32.0316 20.2399C31.0001 19.0273 30.2868 17.9469 29.7662 16.8225C29.236 15.676 28.9082 14.4303 28.7444 13.0082C28.6383 12.1042 28.5998 11.1672 28.619 10.2191C28.6962 6.91195 30.7013 4.11186 33.5066 3.40632C34.0464 3.27404 34.5766 3.19687 35.0875 3.19687C36.7553 3.19687 38.2591 3.92445 39.6473 5.39064C40.1582 5.93081 40.6113 6.5702 41.074 7.43007L41.103 7.48519C41.2861 7.80489 41.4982 7.92615 41.932 7.99229C42.2598 7.99229 42.5683 7.78284 42.7418 7.46314C42.9924 6.98911 43.2527 6.55918 43.5515 6.16232C44.5927 4.76227 45.7591 3.89138 47.1184 3.47247C48.8825 2.93229 50.7623 3.25199 52.2662 4.32131C53.7219 5.35757 54.7244 7.02219 55.0811 9.02855C55.2161 9.80023 55.2161 10.594 55.1968 11.2774H55.2257Z" fill="white" stroke="white" stroke-width="0.96401" stroke-miterlimit="10"/>
</svg>
