<svg width="375" height="98" viewBox="0 0 375 98" fill="none" xmlns="http://www.w3.org/2000/svg">
<path d="M16.7249 92.8C16.7249 90.0901 19.0427 87.7845 21.7669 87.7845H31.0381C52.5908 87.7845 67.175 72.0494 67.175 48.8584C67.175 25.6675 52.5908 10.2018 31.0381 10.2018H-4V0.170898H31.0381C59.4088 0.170898 78.2222 19.574 78.2222 49.1429C78.2222 78.7117 59.4088 97.8454 31.0381 97.8454H21.7669C19.0427 97.8454 16.7249 95.5398 16.7249 92.8299V92.8ZM1.44837 19.8286C4.30801 19.8286 6.76128 22.2689 6.76128 25.1135V97.8155H-4V25.1135C-4 22.2689 -1.41127 19.8286 1.44837 19.8286Z" fill="white" fill-opacity="0.5"/>
<path d="M94.4619 0.155518H104.546L103.598 34.7398H95.1392L94.4619 0.155518Z" fill="white" fill-opacity="0.5"/>
<path d="M142.188 0.155518H153.912L128.687 61.4641H152.829C155.553 61.4641 157.871 63.635 157.871 66.3448C157.871 69.1894 155.553 71.495 152.829 71.495H124.609L113.832 97.8151H102.108L142.203 0.155518H142.188ZM157.735 24.3047C160.595 23.2267 163.605 24.4394 164.824 27.4187L193.33 97.8151H181.606L154.74 31.491C153.371 28.3769 154.74 25.3826 157.735 24.3047Z" fill="white" fill-opacity="0.5"/>
<path d="M206.816 89.5359L255.64 22.1189C257.552 19.2743 261.51 18.5856 264.099 20.487C265.739 21.8494 266.959 24.9635 264.776 28.0776L220.738 87.7542H278.277V97.7852H206.816V89.5059V89.5359ZM208.185 0.140625H276.907V10.1716H208.185V0.140625Z" fill="white" fill-opacity="0.5"/>
<path d="M331.857 0.155518H343.582L318.357 61.4641H342.498C345.223 61.4641 347.54 63.635 347.54 66.3448C347.54 69.1894 345.223 71.495 342.498 71.495H314.278L303.502 97.8151H291.777L331.873 0.155518H331.857ZM347.405 24.3047C350.265 23.2267 353.275 24.4394 354.494 27.4187L383 97.8151H371.275L344.41 31.491C343.04 28.3769 344.41 25.3826 347.405 24.3047Z" fill="white" fill-opacity="0.5"/>
</svg>
